{"glyphs":{"0":{"ha":833,"x_min":89,"x_max":744,"o":"m 417 -14 q 177 108 265 -14 q 89 458 89 229 q 177 809 89 688 q 417 931 265 931 q 656 809 568 931 q 744 458 744 688 q 656 108 744 229 q 417 -14 568 -14 m 417 76 q 583 174 525 76 q 640 458 640 272 q 583 742 640 644 q 417 840 525 840 q 251 742 308 840 q 193 458 193 644 q 251 174 193 272 q 417 76 308 76 z "},"1":{"ha":504,"x_min":26,"x_max":364,"o":"m 264 0 l 264 688 q 265 735 264 707 q 267 792 265 764 q 167 707 224 742 q 50 656 110 672 l 26 747 q 86 768 51 751 q 158 809 121 785 q 228 861 196 833 q 278 917 260 889 l 364 917 l 364 0 l 264 0 z "},"2":{"ha":776,"x_min":72,"x_max":690,"o":"m 99 0 l 99 82 q 317 261 228 183 q 461 403 407 339 q 540 525 515 467 q 565 646 565 583 q 513 785 565 732 q 374 838 461 838 q 224 774 281 838 q 160 604 168 711 l 72 657 q 122 799 83 738 q 224 896 160 861 q 376 931 289 931 q 532 894 467 931 q 633 794 597 858 q 669 646 669 731 q 627 474 669 558 q 490 297 585 389 q 240 92 396 204 l 240 90 q 278 92 254 92 q 326 92 301 92 q 363 93 350 93 l 690 93 l 690 0 l 99 0 z "},"3":{"ha":772,"x_min":58,"x_max":686,"o":"m 386 -14 q 179 44 268 -14 q 58 201 90 101 l 158 253 q 236 127 181 175 q 393 79 292 79 q 533 129 483 79 q 582 260 582 179 q 563 347 582 313 q 503 398 543 381 q 403 415 464 415 q 369 415 388 415 q 333 411 351 414 l 333 511 q 358 510 346 510 q 381 510 371 510 q 519 552 476 510 q 563 681 563 594 q 517 797 563 757 q 392 838 472 838 q 261 798 308 838 q 189 690 214 758 l 94 736 q 159 838 117 794 q 261 907 201 882 q 394 932 321 932 q 545 900 485 932 q 635 814 606 868 q 665 693 665 760 q 652 605 665 644 q 616 535 639 565 q 563 488 593 506 q 500 465 533 471 l 500 463 q 577 444 543 461 q 635 400 611 428 q 673 336 660 372 q 686 260 686 300 q 648 117 686 179 q 542 21 610 56 q 386 -14 475 -14 z "},"4":{"ha":813,"x_min":60,"x_max":751,"o":"m 493 0 l 493 246 l 60 246 l 60 319 q 60 319 60 319 q 62 319 61 319 q 63 319 63 319 l 465 917 l 592 917 l 592 332 l 751 332 l 751 246 l 592 246 l 592 0 l 493 0 m 165 332 l 493 332 l 493 696 q 494 736 493 717 q 495 779 494 756 q 497 835 496 803 l 494 835 q 470 789 485 815 q 440 737 456 763 q 410 690 424 711 l 165 332 q 165 332 165 332 q 165 332 165 332 z "},"5":{"ha":775,"x_min":85,"x_max":690,"o":"m 385 -14 q 195 41 268 -14 q 85 197 122 96 l 182 249 q 250 125 201 171 q 386 79 299 79 q 494 105 449 79 q 563 176 539 131 q 588 285 588 222 q 565 397 588 351 q 499 467 542 443 q 396 490 456 490 q 276 467 328 490 q 194 397 225 444 l 107 414 l 158 917 l 651 917 l 651 824 l 242 824 l 208 517 l 206 503 l 208 503 q 291 561 240 539 q 414 583 342 583 q 560 547 497 583 q 656 444 622 510 q 690 289 690 378 q 651 128 690 196 q 544 23 613 60 q 385 -14 475 -14 z "},"6":{"ha":808,"x_min":89,"x_max":726,"o":"m 433 931 q 603 885 536 931 q 708 740 669 839 l 615 697 q 551 799 596 761 q 426 838 506 838 q 321 806 367 838 q 244 720 275 775 q 199 593 214 665 q 183 438 183 521 q 183 420 183 431 q 185 394 183 410 l 190 394 q 242 498 204 458 q 332 557 281 538 q 433 576 383 576 q 588 540 522 576 q 690 438 653 504 q 726 282 726 372 q 690 125 726 192 q 585 22 653 58 q 426 -14 518 -14 q 242 47 317 -14 q 128 214 167 107 q 89 458 89 321 q 135 717 89 613 q 258 876 181 822 q 433 931 336 931 m 426 481 q 323 455 368 481 q 253 384 278 429 q 228 282 228 339 q 253 182 228 228 q 324 109 279 136 q 425 82 369 82 q 570 135 518 82 q 622 283 622 189 q 599 388 622 344 q 531 456 575 432 q 426 481 488 481 z "},"7":{"ha":743,"x_min":53,"x_max":699,"o":"m 53 917 l 699 917 l 699 824 q 519 573 589 703 q 415 301 449 443 q 381 0 382 158 l 278 0 q 364 452 281 235 q 615 849 447 669 l 632 824 l 53 824 l 53 917 z "},"8":{"ha":821,"x_min":92,"x_max":729,"o":"m 411 929 q 613 865 538 929 q 689 692 689 801 q 654 565 689 619 q 557 483 619 510 l 557 482 q 683 394 636 454 q 729 246 729 333 q 690 108 729 167 q 578 18 650 50 q 411 -14 507 -14 q 244 18 317 -14 q 132 108 172 50 q 92 246 92 167 q 138 393 92 332 q 264 482 185 454 l 264 483 q 167 563 203 508 q 132 692 132 618 q 167 818 132 765 q 264 900 201 871 q 411 929 326 929 m 411 836 q 283 795 331 836 q 235 682 235 754 q 283 569 235 610 q 411 528 332 528 q 538 569 489 528 q 588 682 588 610 q 540 795 588 754 q 411 836 492 836 m 411 79 q 524 101 476 79 q 599 162 572 122 q 625 256 625 201 q 598 351 625 311 q 523 412 571 390 q 411 433 475 433 q 299 412 347 433 q 223 351 250 390 q 196 256 196 311 q 222 162 196 201 q 297 101 249 122 q 411 79 346 79 z "},"9":{"ha":822,"x_min":94,"x_max":733,"o":"m 397 931 q 582 871 507 931 q 695 705 657 811 q 733 458 733 599 q 694 199 733 304 q 581 40 656 94 q 397 -14 506 -14 q 209 40 288 -14 q 94 192 131 93 l 193 244 q 263 125 214 171 q 400 79 311 79 q 517 110 471 79 q 592 195 564 140 q 631 326 619 250 q 643 492 643 401 q 642 510 643 503 q 640 526 642 518 l 635 526 q 581 419 621 460 q 490 359 542 378 q 388 340 439 340 q 235 376 301 340 q 132 475 169 411 q 94 626 94 539 q 131 788 94 719 q 235 893 167 856 q 397 931 303 931 m 397 835 q 250 778 301 835 q 199 624 199 722 q 253 487 199 538 q 397 436 308 436 q 500 462 456 436 q 570 533 544 488 q 596 636 596 578 q 570 740 596 694 q 500 810 544 785 q 397 835 456 835 z "},"A":{"ha":879,"x_min":33,"x_max":846,"o":"m 846 0 l 739 0 l 642 263 l 236 263 l 139 0 l 33 0 l 381 917 l 500 917 l 846 0 m 271 357 l 607 357 l 439 819 l 271 357 z "},"Á":{"ha":879,"x_min":33,"x_max":846,"o":"m 846 0 l 739 0 l 642 263 l 236 263 l 139 0 l 33 0 l 381 917 l 500 917 l 846 0 m 271 357 l 607 357 l 439 819 l 271 357 m 479 1251 l 585 1251 l 467 1032 l 386 1032 l 479 1251 z "},"Â":{"ha":879,"x_min":33,"x_max":846,"o":"m 846 0 l 739 0 l 642 263 l 236 263 l 139 0 l 33 0 l 381 917 l 500 917 l 846 0 m 271 357 l 607 357 l 439 819 l 271 357 m 647 1032 l 554 1032 l 439 1185 l 324 1032 l 231 1032 l 383 1250 l 494 1250 l 647 1032 z "},"Ä":{"ha":879,"x_min":33,"x_max":846,"o":"m 846 0 l 739 0 l 642 263 l 236 263 l 139 0 l 33 0 l 381 917 l 500 917 l 846 0 m 271 357 l 607 357 l 439 819 l 271 357 m 304 1179 q 358 1159 338 1179 q 378 1107 378 1139 q 358 1053 378 1074 q 304 1033 338 1033 q 252 1053 272 1033 q 232 1107 232 1074 q 252 1159 232 1139 q 304 1179 272 1179 m 572 1179 q 626 1159 606 1179 q 646 1107 646 1139 q 626 1053 646 1074 q 572 1033 606 1033 q 520 1053 540 1033 q 500 1107 500 1074 q 520 1159 500 1139 q 572 1179 540 1179 z "},"À":{"ha":879,"x_min":33,"x_max":846,"o":"m 846 0 l 739 0 l 642 263 l 236 263 l 139 0 l 33 0 l 381 917 l 500 917 l 846 0 m 271 357 l 607 357 l 439 819 l 271 357 m 406 1251 l 500 1032 l 419 1032 l 301 1251 l 406 1251 z "},"Å":{"ha":879,"x_min":33,"x_max":846,"o":"m 846 0 l 739 0 l 642 263 l 236 263 l 139 0 l 33 0 l 381 917 l 500 917 l 846 0 m 271 357 l 607 357 l 439 819 l 271 357 m 436 1169 q 557 1126 511 1169 q 603 1013 603 1082 q 557 898 603 942 q 436 854 511 854 q 316 898 363 854 q 269 1013 269 942 q 316 1126 269 1082 q 436 1169 363 1169 m 436 1108 q 367 1081 394 1108 q 339 1013 339 1054 q 367 945 339 972 q 436 918 394 918 q 507 945 479 918 q 535 1013 535 972 q 507 1081 535 1054 q 436 1108 479 1108 z "},"Ã":{"ha":879,"x_min":33,"x_max":846,"o":"m 846 0 l 739 0 l 642 263 l 236 263 l 139 0 l 33 0 l 381 917 l 500 917 l 846 0 m 271 357 l 607 357 l 439 819 l 271 357 m 685 1213 q 641 1080 678 1125 q 535 1035 604 1035 q 469 1049 496 1035 q 423 1082 443 1064 q 384 1115 403 1100 q 342 1129 365 1129 q 293 1103 310 1129 q 269 1033 276 1078 l 190 1033 q 235 1166 199 1121 q 343 1211 272 1211 q 407 1197 381 1211 q 453 1164 433 1182 q 492 1131 474 1146 q 533 1117 511 1117 q 582 1142 565 1117 q 606 1213 599 1168 l 685 1213 z "},"Æ":{"ha":1263,"x_min":6,"x_max":1194,"o":"m 697 93 l 1194 93 l 1194 0 l 597 0 l 597 303 l 282 303 l 114 0 l 6 0 l 522 917 l 1175 917 l 1175 824 l 697 824 l 697 511 l 1063 511 l 1063 418 l 697 418 l 697 93 m 335 397 l 597 397 l 597 824 l 571 824 l 335 397 z "},"B":{"ha":875,"x_min":149,"x_max":782,"o":"m 149 0 l 149 917 l 464 917 q 688 850 617 917 q 760 667 760 783 q 722 540 760 599 q 607 467 685 482 l 607 465 q 735 391 688 450 q 782 254 782 332 q 699 69 782 138 q 464 0 617 0 l 149 0 m 249 93 l 483 93 q 628 135 579 93 q 676 254 676 178 q 628 374 676 332 q 483 415 579 415 l 249 415 l 249 93 m 249 508 l 463 508 q 606 547 558 508 q 654 667 654 586 q 606 784 654 744 q 463 824 558 824 l 249 824 l 249 508 z "},"C":{"ha":921,"x_min":93,"x_max":858,"o":"m 858 235 q 723 51 817 117 q 501 -14 629 -14 q 285 44 378 -14 q 143 207 193 101 q 93 458 93 313 q 143 709 93 603 q 285 873 193 815 q 499 931 376 931 q 653 906 586 931 q 769 833 721 881 q 843 714 817 785 l 746 667 q 658 794 717 751 q 506 838 600 838 q 344 792 414 838 q 236 663 275 747 q 197 458 197 578 q 234 256 197 342 q 340 125 271 171 q 501 79 408 79 q 663 128 596 79 q 758 272 731 176 l 858 235 z "},"Ç":{"ha":921,"x_min":93,"x_max":858,"o":"m 858 235 q 723 51 817 117 q 501 -14 629 -14 q 285 44 378 -14 q 143 207 193 101 q 93 458 93 313 q 143 709 93 603 q 285 873 193 815 q 499 931 376 931 q 653 906 586 931 q 769 833 721 881 q 843 714 817 785 l 746 667 q 658 794 717 751 q 506 838 600 838 q 344 792 414 838 q 236 663 275 747 q 197 458 197 578 q 234 256 197 342 q 340 125 271 171 q 501 79 408 79 q 663 128 596 79 q 758 272 731 176 l 858 235 m 424 6 l 479 36 q 594 -35 560 10 q 628 -140 628 -81 q 582 -251 628 -206 q 465 -296 536 -296 q 390 -284 422 -296 q 333 -254 357 -272 l 358 -182 q 400 -206 378 -196 q 454 -217 422 -217 q 519 -191 494 -217 q 544 -118 544 -165 q 518 -53 544 -81 q 424 6 492 -25 z "},"D":{"ha":971,"x_min":149,"x_max":878,"o":"m 435 917 q 760 799 643 917 q 878 460 878 681 q 760 119 878 238 q 435 0 643 0 l 149 0 l 149 917 l 435 917 m 443 93 q 686 190 600 93 q 772 460 772 288 q 733 656 772 575 q 621 781 694 738 q 443 824 547 824 l 249 824 l 249 93 l 443 93 z "},"Ð":{"ha":994,"x_min":32,"x_max":878,"o":"m 32 417 l 32 510 l 544 510 l 544 417 l 32 417 m 435 917 q 760 799 643 917 q 878 460 878 681 q 760 119 878 238 q 435 0 643 0 l 149 0 l 149 917 l 435 917 m 443 93 q 686 190 600 93 q 772 460 772 288 q 733 656 772 575 q 621 781 694 738 q 443 824 547 824 l 249 824 l 249 93 l 443 93 z "},"E":{"ha":851,"x_min":149,"x_max":783,"o":"m 149 0 l 149 917 l 764 917 l 764 824 l 249 824 l 249 513 l 651 513 l 651 418 l 249 418 l 249 93 l 783 93 l 783 0 l 149 0 z "},"É":{"ha":851,"x_min":149,"x_max":783,"o":"m 149 0 l 149 917 l 764 917 l 764 824 l 249 824 l 249 513 l 651 513 l 651 418 l 249 418 l 249 93 l 783 93 l 783 0 l 149 0 m 508 1251 l 614 1251 l 496 1032 l 415 1032 l 508 1251 z "},"Ê":{"ha":851,"x_min":149,"x_max":783,"o":"m 149 0 l 149 917 l 764 917 l 764 824 l 249 824 l 249 513 l 651 513 l 651 418 l 249 418 l 249 93 l 783 93 l 783 0 l 149 0 m 664 1032 l 571 1032 l 456 1185 l 340 1032 l 247 1032 l 400 1250 l 511 1250 l 664 1032 z "},"Ë":{"ha":851,"x_min":149,"x_max":783,"o":"m 149 0 l 149 917 l 764 917 l 764 824 l 249 824 l 249 513 l 651 513 l 651 418 l 249 418 l 249 93 l 783 93 l 783 0 l 149 0 m 321 1179 q 374 1159 354 1179 q 394 1107 394 1139 q 374 1053 394 1074 q 321 1033 354 1033 q 269 1053 289 1033 q 249 1107 249 1074 q 269 1159 249 1139 q 321 1179 289 1179 m 589 1179 q 642 1159 622 1179 q 663 1107 663 1139 q 642 1053 663 1074 q 589 1033 622 1033 q 537 1053 557 1033 q 517 1107 517 1074 q 537 1159 517 1139 q 589 1179 557 1179 z "},"È":{"ha":851,"x_min":149,"x_max":783,"o":"m 149 0 l 149 917 l 764 917 l 764 824 l 249 824 l 249 513 l 651 513 l 651 418 l 249 418 l 249 93 l 783 93 l 783 0 l 149 0 m 415 1251 l 510 1032 l 429 1032 l 311 1251 l 415 1251 z "},"F":{"ha":813,"x_min":149,"x_max":761,"o":"m 761 824 l 249 824 l 249 513 l 650 513 l 650 418 l 249 418 l 249 0 l 149 0 l 149 917 l 761 917 l 761 824 z "},"G":{"ha":972,"x_min":93,"x_max":865,"o":"m 503 -14 q 285 44 378 -14 q 143 207 193 101 q 93 458 93 313 q 146 710 93 604 q 292 873 199 815 q 510 931 386 931 q 726 878 642 931 q 858 717 810 825 l 767 667 q 672 794 738 751 q 510 838 607 838 q 348 792 418 838 q 238 661 278 746 q 197 458 197 576 q 233 256 197 340 q 338 125 269 171 q 507 79 407 79 q 615 97 567 79 q 699 147 664 114 q 754 225 735 179 q 774 328 774 271 l 774 365 l 489 365 l 489 458 l 865 458 l 865 0 l 786 0 l 781 178 l 801 175 q 692 36 767 86 q 503 -14 617 -14 z "},"H":{"ha":988,"x_min":149,"x_max":839,"o":"m 839 917 l 839 0 l 739 0 l 739 917 l 839 917 m 249 917 l 249 0 l 149 0 l 149 917 l 249 917 m 786 513 l 786 418 l 201 418 l 201 513 l 786 513 z "},"I":{"ha":397,"x_min":149,"x_max":249,"o":"m 249 917 l 249 0 l 149 0 l 149 917 l 249 917 z "},"Í":{"ha":397,"x_min":149,"x_max":357,"o":"m 249 917 l 249 0 l 149 0 l 149 917 l 249 917 m 251 1251 l 357 1251 l 239 1032 l 158 1032 l 251 1251 z "},"Î":{"ha":397,"x_min":-10,"x_max":407,"o":"m 249 917 l 249 0 l 149 0 l 149 917 l 249 917 m 407 1032 l 314 1032 l 199 1185 l 83 1032 l -10 1032 l 143 1250 l 254 1250 l 407 1032 z "},"Ï":{"ha":397,"x_min":11,"x_max":386,"o":"m 83 1179 q 137 1159 117 1179 q 157 1107 157 1139 q 137 1053 157 1074 q 83 1033 117 1033 q 31 1053 51 1033 q 11 1107 11 1074 q 31 1159 11 1139 q 83 1179 51 1179 m 314 1179 q 366 1159 346 1179 q 386 1107 386 1139 q 366 1053 386 1074 q 314 1033 346 1033 q 260 1053 281 1033 q 240 1107 240 1074 q 260 1159 240 1139 q 314 1179 281 1179 m 249 917 l 249 0 l 149 0 l 149 917 l 249 917 z "},"Ì":{"ha":397,"x_min":42,"x_max":249,"o":"m 249 917 l 249 0 l 149 0 l 149 917 l 249 917 m 146 1251 l 240 1032 l 160 1032 l 42 1251 l 146 1251 z "},"J":{"ha":750,"x_min":46,"x_max":611,"o":"m 611 917 l 611 311 q 533 73 611 160 q 318 -14 456 -14 q 159 25 222 -14 q 71 134 96 64 q 63 300 46 204 l 156 319 q 178 140 142 200 q 315 79 215 79 q 437 113 394 79 q 495 203 479 146 q 511 335 511 261 l 511 917 l 611 917 z "},"K":{"ha":869,"x_min":149,"x_max":833,"o":"m 828 917 l 447 511 l 432 496 l 200 247 l 199 382 l 697 917 l 828 917 m 249 917 l 249 0 l 149 0 l 149 917 l 249 917 m 458 576 l 833 0 l 713 0 l 376 518 l 458 576 z "},"L":{"ha":796,"x_min":149,"x_max":756,"o":"m 249 93 l 756 93 l 756 0 l 149 0 l 149 917 l 249 917 l 249 93 z "},"M":{"ha":1150,"x_min":149,"x_max":1001,"o":"m 1001 917 l 1001 0 l 906 0 l 906 606 l 917 826 l 915 826 l 618 0 l 532 0 l 233 826 l 232 826 l 243 606 l 243 0 l 149 0 l 149 917 l 301 917 l 514 324 l 574 118 l 576 118 l 638 322 l 849 917 l 1001 917 z "},"N":{"ha":988,"x_min":149,"x_max":839,"o":"m 839 917 l 839 0 l 717 0 l 325 642 l 240 800 l 239 800 l 243 668 l 243 0 l 149 0 l 149 917 l 271 917 l 661 276 l 747 115 l 749 115 l 744 249 l 744 917 l 839 917 z "},"Ñ":{"ha":988,"x_min":149,"x_max":839,"o":"m 839 917 l 839 0 l 717 0 l 325 642 l 240 800 l 239 800 l 243 668 l 243 0 l 149 0 l 149 917 l 271 917 l 661 276 l 747 115 l 749 115 l 744 249 l 744 917 l 839 917 m 746 1213 q 702 1080 739 1125 q 596 1035 665 1035 q 531 1049 557 1035 q 484 1082 504 1064 q 445 1115 464 1100 q 403 1129 426 1129 q 354 1103 371 1129 q 331 1033 338 1078 l 251 1033 q 297 1166 260 1121 q 404 1211 333 1211 q 468 1197 442 1211 q 515 1164 494 1182 q 553 1131 535 1146 q 594 1117 572 1117 q 643 1142 626 1117 q 667 1213 660 1168 l 746 1213 z "},"O":{"ha":1008,"x_min":93,"x_max":915,"o":"m 504 931 q 723 873 631 931 q 865 710 815 815 q 915 458 915 604 q 865 207 915 313 q 723 44 815 101 q 504 -14 631 -14 q 285 44 378 -14 q 143 207 193 101 q 93 458 93 313 q 143 710 93 604 q 285 873 193 815 q 504 931 378 931 m 504 838 q 341 792 410 838 q 235 661 272 746 q 197 458 197 576 q 235 256 197 340 q 341 125 272 171 q 504 79 410 79 q 667 125 599 79 q 774 256 736 171 q 811 458 811 340 q 774 661 811 576 q 667 792 736 746 q 504 838 599 838 z "},"Ó":{"ha":1008,"x_min":93,"x_max":915,"o":"m 504 931 q 723 873 631 931 q 865 710 815 815 q 915 458 915 604 q 865 207 915 313 q 723 44 815 101 q 504 -14 631 -14 q 285 44 378 -14 q 143 207 193 101 q 93 458 93 313 q 143 710 93 604 q 285 873 193 815 q 504 931 378 931 m 504 838 q 341 792 410 838 q 235 661 272 746 q 197 458 197 576 q 235 256 197 340 q 341 125 272 171 q 504 79 410 79 q 667 125 599 79 q 774 256 736 171 q 811 458 811 340 q 774 661 811 576 q 667 792 736 746 q 504 838 599 838 m 544 1251 l 650 1251 l 532 1032 l 451 1032 l 544 1251 z "},"Ô":{"ha":1008,"x_min":93,"x_max":915,"o":"m 504 931 q 723 873 631 931 q 865 710 815 815 q 915 458 915 604 q 865 207 915 313 q 723 44 815 101 q 504 -14 631 -14 q 285 44 378 -14 q 143 207 193 101 q 93 458 93 313 q 143 710 93 604 q 285 873 193 815 q 504 931 378 931 m 504 838 q 341 792 410 838 q 235 661 272 746 q 197 458 197 576 q 235 256 197 340 q 341 125 272 171 q 504 79 410 79 q 667 125 599 79 q 774 256 736 171 q 811 458 811 340 q 774 661 811 576 q 667 792 736 746 q 504 838 599 838 m 713 1032 l 619 1032 l 504 1185 l 389 1032 l 296 1032 l 449 1250 l 560 1250 l 713 1032 z "},"Ö":{"ha":1008,"x_min":93,"x_max":915,"o":"m 504 931 q 723 873 631 931 q 865 710 815 815 q 915 458 915 604 q 865 207 915 313 q 723 44 815 101 q 504 -14 631 -14 q 285 44 378 -14 q 143 207 193 101 q 93 458 93 313 q 143 710 93 604 q 285 873 193 815 q 504 931 378 931 m 504 838 q 341 792 410 838 q 235 661 272 746 q 197 458 197 576 q 235 256 197 340 q 341 125 272 171 q 504 79 410 79 q 667 125 599 79 q 774 256 736 171 q 811 458 811 340 q 774 661 811 576 q 667 792 736 746 q 504 838 599 838 m 369 1179 q 423 1159 403 1179 q 443 1107 443 1139 q 423 1053 443 1074 q 369 1033 403 1033 q 317 1053 338 1033 q 297 1107 297 1074 q 317 1159 297 1139 q 369 1179 338 1179 m 638 1179 q 691 1159 671 1179 q 711 1107 711 1139 q 691 1053 711 1074 q 638 1033 671 1033 q 585 1053 606 1033 q 565 1107 565 1074 q 585 1159 565 1139 q 638 1179 606 1179 z "},"Ò":{"ha":1008,"x_min":93,"x_max":915,"o":"m 504 931 q 723 873 631 931 q 865 710 815 815 q 915 458 915 604 q 865 207 915 313 q 723 44 815 101 q 504 -14 631 -14 q 285 44 378 -14 q 143 207 193 101 q 93 458 93 313 q 143 710 93 604 q 285 873 193 815 q 504 931 378 931 m 504 838 q 341 792 410 838 q 235 661 272 746 q 197 458 197 576 q 235 256 197 340 q 341 125 272 171 q 504 79 410 79 q 667 125 599 79 q 774 256 736 171 q 811 458 811 340 q 774 661 811 576 q 667 792 736 746 q 504 838 599 838 m 464 1251 l 558 1032 l 478 1032 l 360 1251 l 464 1251 z "},"Ø":{"ha":1008,"x_min":93,"x_max":915,"o":"m 308 88 l 250 133 l 724 808 l 782 764 l 308 88 m 122 -50 l 250 133 l 308 88 l 211 -50 l 122 -50 m 782 764 l 724 808 l 822 950 l 913 950 l 782 764 m 504 931 q 723 873 631 931 q 865 710 815 815 q 915 458 915 604 q 865 207 915 313 q 723 44 815 101 q 504 -14 631 -14 q 285 44 378 -14 q 143 207 193 101 q 93 458 93 313 q 143 710 93 604 q 285 873 193 815 q 504 931 378 931 m 504 838 q 341 792 410 838 q 235 661 272 746 q 197 458 197 576 q 235 256 197 340 q 341 125 272 171 q 504 79 410 79 q 667 125 599 79 q 774 256 736 171 q 811 458 811 340 q 774 661 811 576 q 667 792 736 746 q 504 838 599 838 z "},"Õ":{"ha":1008,"x_min":93,"x_max":915,"o":"m 504 931 q 723 873 631 931 q 865 710 815 815 q 915 458 915 604 q 865 207 915 313 q 723 44 815 101 q 504 -14 631 -14 q 285 44 378 -14 q 143 207 193 101 q 93 458 93 313 q 143 710 93 604 q 285 873 193 815 q 504 931 378 931 m 504 838 q 341 792 410 838 q 235 661 272 746 q 197 458 197 576 q 235 256 197 340 q 341 125 272 171 q 504 79 410 79 q 667 125 599 79 q 774 256 736 171 q 811 458 811 340 q 774 661 811 576 q 667 792 736 746 q 504 838 599 838 m 750 1213 q 706 1080 743 1125 q 600 1035 669 1035 q 535 1049 561 1035 q 488 1082 508 1064 q 449 1115 468 1100 q 407 1129 431 1129 q 358 1103 375 1129 q 335 1033 342 1078 l 256 1033 q 301 1166 264 1121 q 408 1211 338 1211 q 472 1197 446 1211 q 519 1164 499 1182 q 558 1131 539 1146 q 599 1117 576 1117 q 647 1142 631 1117 q 671 1213 664 1168 l 750 1213 z "},"Œ":{"ha":1450,"x_min":93,"x_max":1382,"o":"m 882 93 l 1382 93 l 1382 0 l 790 0 l 790 153 q 667 29 743 72 q 494 -14 592 -14 q 281 44 371 -14 q 142 207 190 101 q 93 458 93 313 q 141 710 93 604 q 279 873 189 815 q 497 931 369 931 q 669 889 593 931 q 790 767 744 847 l 790 917 l 1361 917 l 1361 824 l 882 824 l 882 513 l 1250 513 l 1250 418 l 882 418 l 882 93 m 501 79 q 711 178 633 79 q 789 458 789 278 q 711 738 789 639 q 501 838 633 838 q 338 792 406 838 q 233 661 269 746 q 197 458 197 576 q 233 256 197 340 q 338 125 269 171 q 501 79 406 79 z "},"P":{"ha":814,"x_min":149,"x_max":751,"o":"m 456 917 q 670 842 589 917 q 751 640 751 768 q 670 438 751 513 q 456 364 589 364 l 249 364 l 249 0 l 149 0 l 149 917 l 456 917 m 440 458 q 596 505 546 458 q 646 640 646 551 q 596 776 646 729 q 440 824 546 824 l 249 824 l 249 458 l 440 458 z "},"Þ":{"ha":836,"x_min":149,"x_max":763,"o":"m 439 750 q 681 677 600 750 q 763 468 763 604 q 681 260 763 333 q 439 188 600 188 l 199 188 l 199 281 l 449 281 q 658 468 658 281 q 606 610 658 564 q 449 657 554 657 l 199 657 l 199 750 l 439 750 m 249 917 l 249 0 l 149 0 l 149 917 l 249 917 z "},"Q":{"ha":1008,"x_min":93,"x_max":915,"o":"m 726 -271 q 601 -244 660 -271 q 506 -153 542 -217 q 469 18 469 -90 q 470 42 469 29 q 472 67 471 54 l 558 65 q 556 42 557 53 q 554 21 554 32 q 578 -99 554 -58 q 643 -155 603 -140 q 729 -169 683 -169 q 816 -156 775 -169 q 881 -118 857 -143 l 913 -211 q 828 -255 882 -239 q 726 -271 774 -271 m 504 931 q 723 873 631 931 q 865 710 815 815 q 915 458 915 604 q 865 207 915 313 q 723 44 815 101 q 504 -14 631 -14 q 285 44 378 -14 q 143 207 193 101 q 93 458 93 313 q 143 710 93 604 q 285 873 193 815 q 504 931 378 931 m 504 838 q 341 792 410 838 q 235 661 272 746 q 197 458 197 576 q 235 256 197 340 q 341 125 272 171 q 504 79 410 79 q 667 125 599 79 q 774 256 736 171 q 811 458 811 340 q 774 661 811 576 q 667 792 736 746 q 504 838 599 838 z "},"R":{"ha":889,"x_min":149,"x_max":829,"o":"m 483 917 q 698 846 617 917 q 779 651 779 775 q 742 515 779 569 q 637 429 704 460 q 482 386 569 399 l 472 385 l 249 385 l 249 0 l 149 0 l 149 917 l 483 917 m 481 479 q 625 523 576 479 q 674 651 674 567 q 625 781 674 738 q 481 824 576 824 l 249 824 l 249 479 l 481 479 m 542 460 l 829 0 l 711 0 l 458 404 l 542 460 z "},"S":{"ha":857,"x_min":60,"x_max":776,"o":"m 428 931 q 630 881 546 931 q 768 733 714 832 l 686 669 q 575 799 640 760 q 418 838 510 838 q 299 816 346 838 q 228 758 251 794 q 204 675 204 721 q 236 584 204 622 q 361 524 268 546 l 547 481 q 725 394 674 451 q 776 249 776 336 q 734 112 776 171 q 616 19 692 53 q 439 -14 540 -14 q 269 13 343 -14 q 143 88 194 40 q 60 194 92 135 l 144 265 q 210 167 169 210 q 310 102 251 125 q 443 79 369 79 q 564 98 513 79 q 644 153 615 117 q 672 240 672 189 q 641 325 672 289 q 528 381 610 361 l 328 428 q 195 481 246 447 q 122 561 144 515 q 100 661 100 607 q 140 796 100 735 q 253 894 179 857 q 428 931 326 931 z "},"T":{"ha":804,"x_min":40,"x_max":763,"o":"m 763 917 l 763 824 l 451 824 l 451 0 l 351 0 l 351 824 l 40 824 l 40 917 l 763 917 z "},"U":{"ha":951,"x_min":131,"x_max":821,"o":"m 821 917 l 821 340 q 731 75 821 164 q 475 -14 642 -14 q 221 75 311 -14 q 131 340 131 164 l 131 917 l 231 917 l 231 364 q 285 156 231 233 q 475 79 339 79 q 666 156 611 79 q 721 364 721 233 l 721 917 l 821 917 z "},"Ú":{"ha":951,"x_min":131,"x_max":821,"o":"m 821 917 l 821 340 q 731 75 821 164 q 475 -14 642 -14 q 221 75 311 -14 q 131 340 131 164 l 131 917 l 231 917 l 231 364 q 285 156 231 233 q 475 79 339 79 q 666 156 611 79 q 721 364 721 233 l 721 917 l 821 917 m 515 1214 l 621 1214 l 503 994 l 422 994 l 515 1214 z "},"Û":{"ha":951,"x_min":131,"x_max":821,"o":"m 821 917 l 821 340 q 731 75 821 164 q 475 -14 642 -14 q 221 75 311 -14 q 131 340 131 164 l 131 917 l 231 917 l 231 364 q 285 156 231 233 q 475 79 339 79 q 666 156 611 79 q 721 364 721 233 l 721 917 l 821 917 m 683 994 l 590 994 l 475 1147 l 360 994 l 267 994 l 419 1213 l 531 1213 l 683 994 z "},"Ü":{"ha":951,"x_min":131,"x_max":821,"o":"m 821 917 l 821 340 q 731 75 821 164 q 475 -14 642 -14 q 221 75 311 -14 q 131 340 131 164 l 131 917 l 231 917 l 231 364 q 285 156 231 233 q 475 79 339 79 q 666 156 611 79 q 721 364 721 233 l 721 917 l 821 917 m 340 1142 q 394 1122 374 1142 q 414 1069 414 1101 q 394 1016 414 1036 q 340 996 374 996 q 288 1016 308 996 q 268 1069 268 1036 q 288 1122 268 1101 q 340 1142 308 1142 m 608 1142 q 662 1122 642 1142 q 682 1069 682 1101 q 662 1016 682 1036 q 608 996 642 996 q 556 1016 576 996 q 536 1069 536 1036 q 556 1122 536 1101 q 608 1142 576 1142 z "},"Ù":{"ha":951,"x_min":131,"x_max":821,"o":"m 821 917 l 821 340 q 731 75 821 164 q 475 -14 642 -14 q 221 75 311 -14 q 131 340 131 164 l 131 917 l 231 917 l 231 364 q 285 156 231 233 q 475 79 339 79 q 666 156 611 79 q 721 364 721 233 l 721 917 l 821 917 m 457 1221 l 551 1001 l 471 1001 l 353 1221 l 457 1221 z "},"V":{"ha":863,"x_min":38,"x_max":825,"o":"m 825 917 l 489 0 l 375 0 l 38 917 l 144 917 l 378 263 l 432 92 l 486 263 l 718 917 l 825 917 z "},"W":{"ha":1301,"x_min":47,"x_max":1253,"o":"m 317 0 l 47 917 l 151 917 l 379 92 l 596 917 l 710 917 l 926 89 l 1154 917 l 1253 917 l 985 0 l 863 0 l 699 607 l 651 813 l 650 813 l 603 607 l 440 0 l 317 0 z "},"X":{"ha":797,"x_min":32,"x_max":756,"o":"m 756 0 l 640 0 l 396 388 l 149 0 l 32 0 l 343 468 l 60 917 l 176 917 l 406 551 l 635 917 l 744 917 l 458 472 l 756 0 z "},"Y":{"ha":760,"x_min":15,"x_max":744,"o":"m 744 917 l 429 358 l 429 0 l 329 0 l 329 358 l 15 917 l 132 917 l 303 603 l 379 461 l 457 603 l 626 917 l 744 917 z "},"Ý":{"ha":760,"x_min":15,"x_max":744,"o":"m 744 917 l 429 358 l 429 0 l 329 0 l 329 358 l 15 917 l 132 917 l 303 603 l 379 461 l 457 603 l 626 917 l 744 917 m 419 1221 l 525 1221 l 407 1001 l 326 1001 l 419 1221 z "},"Z":{"ha":836,"x_min":74,"x_max":765,"o":"m 163 57 l 146 93 l 765 93 l 765 0 l 74 0 l 74 89 l 658 860 l 675 824 l 86 824 l 86 917 l 747 917 l 747 828 l 163 57 z "},"a":{"ha":728,"x_min":83,"x_max":721,"o":"m 519 451 q 478 576 519 531 q 360 621 436 621 q 242 588 290 621 q 169 485 193 556 l 88 535 q 187 661 115 614 q 363 708 258 708 q 494 683 436 708 q 585 604 551 657 q 619 471 619 551 l 619 132 q 672 75 619 75 q 697 77 683 75 q 721 83 711 79 l 715 4 q 687 -6 704 -1 q 647 -10 669 -10 q 581 5 611 -10 q 534 51 551 19 q 517 129 517 82 l 517 149 l 542 146 q 488 56 526 92 q 401 3 450 21 q 301 -14 351 -14 q 147 33 211 -14 q 83 172 83 79 q 131 298 83 247 q 272 368 179 349 l 538 424 l 538 340 l 319 293 q 218 253 251 279 q 185 178 185 226 q 219 102 185 131 q 317 74 253 74 q 390 84 354 74 q 456 117 426 94 q 502 173 485 139 q 519 254 519 207 l 519 451 z "},"á":{"ha":728,"x_min":83,"x_max":721,"o":"m 519 451 q 478 576 519 531 q 360 621 436 621 q 242 588 290 621 q 169 485 193 556 l 88 535 q 187 661 115 614 q 363 708 258 708 q 494 683 436 708 q 585 604 551 657 q 619 471 619 551 l 619 132 q 672 75 619 75 q 697 77 683 75 q 721 83 711 79 l 715 4 q 687 -6 704 -1 q 647 -10 669 -10 q 581 5 611 -10 q 534 51 551 19 q 517 129 517 82 l 517 149 l 542 146 q 488 56 526 92 q 401 3 450 21 q 301 -14 351 -14 q 147 33 211 -14 q 83 172 83 79 q 131 298 83 247 q 272 368 179 349 l 538 424 l 538 340 l 319 293 q 218 253 251 279 q 185 178 185 226 q 219 102 185 131 q 317 74 253 74 q 390 84 354 74 q 456 117 426 94 q 502 173 485 139 q 519 254 519 207 l 519 451 m 413 1039 l 522 1039 l 388 810 l 306 810 l 413 1039 z "},"â":{"ha":728,"x_min":83,"x_max":721,"o":"m 519 451 q 478 576 519 531 q 360 621 436 621 q 242 588 290 621 q 169 485 193 556 l 88 535 q 187 661 115 614 q 363 708 258 708 q 494 683 436 708 q 585 604 551 657 q 619 471 619 551 l 619 132 q 672 75 619 75 q 697 77 683 75 q 721 83 711 79 l 715 4 q 687 -6 704 -1 q 647 -10 669 -10 q 581 5 611 -10 q 534 51 551 19 q 517 129 517 82 l 517 149 l 542 146 q 488 56 526 92 q 401 3 450 21 q 301 -14 351 -14 q 147 33 211 -14 q 83 172 83 79 q 131 298 83 247 q 272 368 179 349 l 538 424 l 538 340 l 319 293 q 218 253 251 279 q 185 178 185 226 q 219 102 185 131 q 317 74 253 74 q 390 84 354 74 q 456 117 426 94 q 502 173 485 139 q 519 254 519 207 l 519 451 m 581 801 l 489 801 l 367 964 l 244 801 l 153 801 l 310 1029 l 424 1029 l 581 801 z "},"ä":{"ha":728,"x_min":83,"x_max":721,"o":"m 519 451 q 478 576 519 531 q 360 621 436 621 q 242 588 290 621 q 169 485 193 556 l 88 535 q 187 661 115 614 q 363 708 258 708 q 494 683 436 708 q 585 604 551 657 q 619 471 619 551 l 619 132 q 672 75 619 75 q 697 77 683 75 q 721 83 711 79 l 715 4 q 687 -6 704 -1 q 647 -10 669 -10 q 581 5 611 -10 q 534 51 551 19 q 517 129 517 82 l 517 149 l 542 146 q 488 56 526 92 q 401 3 450 21 q 301 -14 351 -14 q 147 33 211 -14 q 83 172 83 79 q 131 298 83 247 q 272 368 179 349 l 538 424 l 538 340 l 319 293 q 218 253 251 279 q 185 178 185 226 q 219 102 185 131 q 317 74 253 74 q 390 84 354 74 q 456 117 426 94 q 502 173 485 139 q 519 254 519 207 l 519 451 m 232 957 q 285 937 265 957 q 306 885 306 917 q 285 831 306 851 q 232 811 265 811 q 180 831 200 811 q 160 885 160 851 q 180 937 160 917 q 232 957 200 957 m 500 957 q 553 937 533 957 q 574 885 574 917 q 553 831 574 851 q 500 811 533 811 q 448 831 468 811 q 428 885 428 851 q 448 937 428 917 q 500 957 468 957 z "},"à":{"ha":728,"x_min":83,"x_max":721,"o":"m 519 451 q 478 576 519 531 q 360 621 436 621 q 242 588 290 621 q 169 485 193 556 l 88 535 q 187 661 115 614 q 363 708 258 708 q 494 683 436 708 q 585 604 551 657 q 619 471 619 551 l 619 132 q 672 75 619 75 q 697 77 683 75 q 721 83 711 79 l 715 4 q 687 -6 704 -1 q 647 -10 669 -10 q 581 5 611 -10 q 534 51 551 19 q 517 129 517 82 l 517 149 l 542 146 q 488 56 526 92 q 401 3 450 21 q 301 -14 351 -14 q 147 33 211 -14 q 83 172 83 79 q 131 298 83 247 q 272 368 179 349 l 538 424 l 538 340 l 319 293 q 218 253 251 279 q 185 178 185 226 q 219 102 185 131 q 317 74 253 74 q 390 84 354 74 q 456 117 426 94 q 502 173 485 139 q 519 254 519 207 l 519 451 m 313 1039 l 419 810 l 338 810 l 204 1039 l 313 1039 z "},"å":{"ha":728,"x_min":83,"x_max":721,"o":"m 519 451 q 478 576 519 531 q 360 621 436 621 q 242 588 290 621 q 169 485 193 556 l 88 535 q 187 661 115 614 q 363 708 258 708 q 494 683 436 708 q 585 604 551 657 q 619 471 619 551 l 619 132 q 672 75 619 75 q 697 77 683 75 q 721 83 711 79 l 715 4 q 687 -6 704 -1 q 647 -10 669 -10 q 581 5 611 -10 q 534 51 551 19 q 517 129 517 82 l 517 149 l 542 146 q 488 56 526 92 q 401 3 450 21 q 301 -14 351 -14 q 147 33 211 -14 q 83 172 83 79 q 131 298 83 247 q 272 368 179 349 l 538 424 l 538 340 l 319 293 q 218 253 251 279 q 185 178 185 226 q 219 102 185 131 q 317 74 253 74 q 390 84 354 74 q 456 117 426 94 q 502 173 485 139 q 519 254 519 207 l 519 451 m 363 1114 q 483 1070 438 1114 q 529 957 529 1026 q 483 842 529 886 q 363 799 438 799 q 242 842 289 799 q 196 957 196 886 q 242 1070 196 1026 q 363 1114 289 1114 m 363 1053 q 293 1026 321 1053 q 265 957 265 999 q 293 890 265 917 q 363 863 321 863 q 433 890 406 863 q 461 957 461 917 q 433 1026 461 999 q 363 1053 406 1053 z "},"ã":{"ha":728,"x_min":83,"x_max":721,"o":"m 519 451 q 478 576 519 531 q 360 621 436 621 q 242 588 290 621 q 169 485 193 556 l 88 535 q 187 661 115 614 q 363 708 258 708 q 494 683 436 708 q 585 604 551 657 q 619 471 619 551 l 619 132 q 672 75 619 75 q 697 77 683 75 q 721 83 711 79 l 715 4 q 687 -6 704 -1 q 647 -10 669 -10 q 581 5 611 -10 q 534 51 551 19 q 517 129 517 82 l 517 149 l 542 146 q 488 56 526 92 q 401 3 450 21 q 301 -14 351 -14 q 147 33 211 -14 q 83 172 83 79 q 131 298 83 247 q 272 368 179 349 l 538 424 l 538 340 l 319 293 q 218 253 251 279 q 185 178 185 226 q 219 102 185 131 q 317 74 253 74 q 390 84 354 74 q 456 117 426 94 q 502 173 485 139 q 519 254 519 207 l 519 451 m 613 990 q 569 858 606 903 q 463 813 532 813 q 397 827 424 813 q 351 860 371 842 q 312 892 331 878 q 269 907 293 907 q 221 881 238 907 q 197 811 204 856 l 118 811 q 163 944 126 899 q 271 989 200 989 q 335 974 308 989 q 381 942 361 960 q 420 909 401 924 q 461 894 439 894 q 510 920 493 894 q 533 990 526 946 l 613 990 z "},"æ":{"ha":1196,"x_min":83,"x_max":1115,"o":"m 306 -14 q 148 33 213 -14 q 83 172 83 79 q 130 297 83 246 q 267 367 176 349 l 518 419 l 518 451 q 474 576 518 532 q 358 621 431 621 q 243 588 292 621 q 169 485 194 554 l 88 535 q 147 626 108 588 q 238 687 185 665 q 357 708 292 708 q 512 667 446 708 q 599 536 578 626 l 568 540 q 631 631 592 593 q 722 688 671 668 q 831 708 774 708 q 983 667 919 708 q 1081 553 1046 625 q 1115 392 1115 482 q 1114 353 1115 369 q 1110 324 1113 336 l 624 324 l 624 319 q 684 139 624 204 q 836 74 744 74 q 949 105 901 74 q 1024 188 997 136 l 1103 142 q 997 28 1065 69 q 839 -14 929 -14 q 662 38 738 -14 q 554 188 586 90 l 585 196 q 553 107 579 146 q 488 41 528 68 q 401 0 449 14 q 306 -14 354 -14 m 317 74 q 414 93 368 74 q 489 153 460 113 q 518 256 518 193 l 518 335 l 319 293 q 218 253 251 279 q 185 178 185 226 q 219 102 185 131 q 317 74 253 74 m 622 413 l 1015 413 q 990 524 1014 478 q 924 596 965 571 q 829 621 883 621 q 692 566 747 621 q 622 413 636 511 z "},"b":{"ha":839,"x_min":128,"x_max":757,"o":"m 453 -14 q 301 34 367 -14 q 211 158 235 82 l 224 176 l 215 0 l 128 0 l 128 1014 l 228 1014 l 228 531 l 215 549 q 307 664 243 619 q 454 708 371 708 q 606 665 538 708 q 716 542 675 622 q 757 347 757 461 q 716 153 757 235 q 606 29 675 72 q 453 -14 538 -14 m 442 74 q 600 148 543 74 q 657 347 657 222 q 601 547 657 472 q 443 621 544 621 q 331 586 379 621 q 255 490 282 551 q 228 344 228 428 q 255 201 228 263 q 331 107 282 140 q 442 74 379 74 z "},"c":{"ha":747,"x_min":79,"x_max":681,"o":"m 400 708 q 523 685 469 708 q 614 622 576 663 q 674 524 651 581 l 579 478 q 514 584 560 547 q 397 621 468 621 q 281 588 331 621 q 206 494 232 556 q 179 347 179 433 q 206 201 179 263 q 283 106 233 139 q 399 74 332 74 q 490 91 451 74 q 554 142 529 108 q 589 222 579 175 l 681 190 q 621 81 660 126 q 526 10 582 35 q 399 -14 469 -14 q 233 29 306 -14 q 120 153 161 72 q 79 347 79 235 q 121 541 79 460 q 235 665 163 622 q 400 708 307 708 z "},"ç":{"ha":747,"x_min":79,"x_max":681,"o":"m 400 708 q 523 685 469 708 q 614 622 576 663 q 674 524 651 581 l 579 478 q 514 584 560 547 q 397 621 468 621 q 281 588 331 621 q 206 494 232 556 q 179 347 179 433 q 206 201 179 263 q 283 106 233 139 q 399 74 332 74 q 490 91 451 74 q 554 142 529 108 q 589 222 579 175 l 681 190 q 621 81 660 126 q 526 10 582 35 q 399 -14 469 -14 q 233 29 306 -14 q 120 153 161 72 q 79 347 79 235 q 121 541 79 460 q 235 665 163 622 q 400 708 307 708 m 324 6 l 379 36 q 494 -35 460 10 q 528 -140 528 -81 q 482 -251 528 -206 q 365 -296 436 -296 q 290 -284 322 -296 q 233 -254 257 -272 l 258 -182 q 300 -206 278 -196 q 354 -217 322 -217 q 419 -191 394 -217 q 444 -118 444 -165 q 418 -53 444 -81 q 324 6 392 -25 z "},"d":{"ha":839,"x_min":82,"x_max":711,"o":"m 385 -14 q 233 29 301 -14 q 123 153 164 72 q 82 347 82 235 q 125 543 82 463 q 239 666 168 624 q 393 708 310 708 q 540 662 478 708 q 624 538 603 615 l 611 529 l 611 1014 l 711 1014 l 711 0 l 624 0 l 614 175 l 628 182 q 582 76 618 119 q 494 9 546 32 q 385 -14 443 -14 m 396 74 q 508 108 460 74 q 584 206 557 142 q 611 356 611 269 q 584 498 611 439 q 510 589 557 557 q 401 621 463 621 q 240 547 299 621 q 182 347 182 472 q 239 148 182 222 q 396 74 296 74 z "},"ð":{"ha":832,"x_min":85,"x_max":740,"o":"m 401 -14 q 233 28 304 -14 q 124 147 163 69 q 85 331 85 224 q 126 515 85 438 q 238 633 167 592 q 397 674 308 674 q 547 640 485 674 q 642 544 608 606 l 631 535 q 569 732 613 644 q 455 890 525 819 q 283 1014 385 960 l 419 1014 q 591 865 522 953 q 695 662 660 778 q 731 399 731 546 q 694 183 731 276 q 585 38 658 90 q 401 -14 513 -14 m 406 74 q 529 110 479 74 q 606 206 579 146 q 632 335 632 265 q 605 469 632 413 q 528 556 578 525 q 411 586 479 586 q 292 555 342 586 q 215 467 242 524 q 188 331 188 410 q 247 142 188 210 q 406 74 306 74 m 285 747 l 265 824 l 531 883 l 574 824 l 285 747 m 575 824 l 532 883 l 721 938 l 740 863 l 575 824 z "},"e":{"ha":769,"x_min":79,"x_max":689,"o":"m 403 -14 q 235 29 308 -14 q 121 153 163 72 q 79 347 79 235 q 120 541 79 460 q 233 665 161 622 q 396 708 304 708 q 554 667 489 708 q 654 553 619 625 q 689 389 689 481 q 688 350 689 367 q 685 321 686 333 l 144 321 l 144 410 l 640 410 l 589 399 q 565 519 589 469 q 497 594 540 568 q 394 621 453 621 q 278 588 328 621 q 203 493 229 554 q 176 347 176 432 q 204 201 176 263 q 283 107 232 140 q 401 74 333 74 q 522 105 474 74 q 597 188 569 136 l 676 142 q 612 59 651 94 q 519 5 572 24 q 403 -14 467 -14 z "},"é":{"ha":769,"x_min":79,"x_max":689,"o":"m 403 -14 q 235 29 308 -14 q 121 153 163 72 q 79 347 79 235 q 120 541 79 460 q 233 665 161 622 q 396 708 304 708 q 554 667 489 708 q 654 553 619 625 q 689 389 689 481 q 688 350 689 367 q 685 321 686 333 l 144 321 l 144 410 l 640 410 l 589 399 q 565 519 589 469 q 497 594 540 568 q 394 621 453 621 q 278 588 328 621 q 203 493 229 554 q 176 347 176 432 q 204 201 176 263 q 283 107 232 140 q 401 74 333 74 q 522 105 474 74 q 597 188 569 136 l 676 142 q 612 59 651 94 q 519 5 572 24 q 403 -14 467 -14 m 435 1039 l 544 1039 l 410 810 l 328 810 l 435 1039 z "},"ê":{"ha":769,"x_min":79,"x_max":689,"o":"m 403 -14 q 235 29 308 -14 q 121 153 163 72 q 79 347 79 235 q 120 541 79 460 q 233 665 161 622 q 396 708 304 708 q 554 667 489 708 q 654 553 619 625 q 689 389 689 481 q 688 350 689 367 q 685 321 686 333 l 144 321 l 144 410 l 640 410 l 589 399 q 565 519 589 469 q 497 594 540 568 q 394 621 453 621 q 278 588 328 621 q 203 493 229 554 q 176 347 176 432 q 204 201 176 263 q 283 107 232 140 q 401 74 333 74 q 522 105 474 74 q 597 188 569 136 l 676 142 q 612 59 651 94 q 519 5 572 24 q 403 -14 467 -14 m 603 801 l 511 801 l 389 964 l 267 801 l 175 801 l 332 1029 l 446 1029 l 603 801 z "},"ë":{"ha":769,"x_min":79,"x_max":689,"o":"m 403 -14 q 235 29 308 -14 q 121 153 163 72 q 79 347 79 235 q 120 541 79 460 q 233 665 161 622 q 396 708 304 708 q 554 667 489 708 q 654 553 619 625 q 689 389 689 481 q 688 350 689 367 q 685 321 686 333 l 144 321 l 144 410 l 640 410 l 589 399 q 565 519 589 469 q 497 594 540 568 q 394 621 453 621 q 278 588 328 621 q 203 493 229 554 q 176 347 176 432 q 204 201 176 263 q 283 107 232 140 q 401 74 333 74 q 522 105 474 74 q 597 188 569 136 l 676 142 q 612 59 651 94 q 519 5 572 24 q 403 -14 467 -14 m 254 957 q 308 937 288 957 q 328 885 328 917 q 308 831 328 851 q 254 811 288 811 q 202 831 222 811 q 182 885 182 851 q 202 937 182 917 q 254 957 222 957 m 522 957 q 576 937 556 957 q 596 885 596 917 q 576 831 596 851 q 522 811 556 811 q 470 831 490 811 q 450 885 450 851 q 470 937 450 917 q 522 957 490 957 z "},"è":{"ha":769,"x_min":79,"x_max":689,"o":"m 403 -14 q 235 29 308 -14 q 121 153 163 72 q 79 347 79 235 q 120 541 79 460 q 233 665 161 622 q 396 708 304 708 q 554 667 489 708 q 654 553 619 625 q 689 389 689 481 q 688 350 689 367 q 685 321 686 333 l 144 321 l 144 410 l 640 410 l 589 399 q 565 519 589 469 q 497 594 540 568 q 394 621 453 621 q 278 588 328 621 q 203 493 229 554 q 176 347 176 432 q 204 201 176 263 q 283 107 232 140 q 401 74 333 74 q 522 105 474 74 q 597 188 569 136 l 676 142 q 612 59 651 94 q 519 5 572 24 q 403 -14 467 -14 m 335 1039 l 442 810 l 360 810 l 226 1039 l 335 1039 z "},"f":{"ha":508,"x_min":42,"x_max":494,"o":"m 382 1021 q 447 1012 418 1021 q 494 988 476 1003 l 468 907 q 435 924 453 918 q 393 929 417 929 q 303 898 335 929 q 271 801 271 867 l 271 694 l 271 661 l 271 0 l 171 0 l 171 811 q 194 921 171 874 q 265 994 218 968 q 382 1021 313 1021 m 490 694 l 490 608 l 42 608 l 42 694 l 490 694 z "},"g":{"ha":708,"x_min":49,"x_max":708,"o":"m 686 822 l 708 733 q 704 733 707 733 q 699 733 701 733 q 598 704 633 733 q 563 614 563 675 l 503 646 q 526 740 503 700 q 590 801 550 779 q 679 822 629 822 q 683 822 682 822 q 686 822 685 822 m 478 83 q 629 38 575 83 q 683 -81 683 -7 q 641 -196 683 -147 q 526 -272 599 -244 q 361 -299 453 -299 q 127 -244 206 -299 q 49 -110 49 -189 q 86 -10 49 -54 q 206 40 124 33 l 199 21 q 121 64 153 33 q 89 150 89 94 q 128 244 89 203 q 247 294 168 286 l 319 261 l 301 261 q 208 228 238 256 q 178 165 178 201 q 207 104 178 125 q 286 83 236 83 l 478 83 m 363 -217 q 490 -199 439 -217 q 568 -153 542 -182 q 594 -92 594 -125 q 562 -26 594 -50 q 454 -1 529 -1 l 253 -1 q 172 -27 206 -1 q 139 -96 139 -53 q 199 -183 139 -150 q 363 -217 258 -217 m 353 708 q 494 678 433 708 q 590 597 556 649 q 625 476 625 544 q 590 356 625 408 q 493 273 554 303 q 353 243 432 243 q 151 308 222 243 q 79 476 79 374 q 114 597 79 544 q 210 678 149 649 q 353 708 272 708 m 353 628 q 230 586 279 628 q 181 476 181 544 q 231 366 181 408 q 353 324 281 324 q 474 366 425 324 q 524 476 524 408 q 475 586 524 544 q 353 628 426 628 z "},"h":{"ha":826,"x_min":128,"x_max":707,"o":"m 128 0 l 128 1014 l 228 1014 l 228 581 q 320 677 261 646 q 451 708 379 708 q 580 680 522 708 q 672 593 638 651 q 707 446 707 535 l 707 0 l 607 0 l 607 413 q 558 574 607 528 q 438 621 510 621 q 339 596 388 621 q 259 517 290 571 q 228 375 228 463 l 228 0 l 128 0 z "},"i":{"ha":356,"x_min":101,"x_max":268,"o":"m 228 694 l 228 0 l 128 0 l 128 694 l 228 694 m 185 828 q 124 851 147 828 q 101 911 101 874 q 124 972 101 949 q 185 994 147 994 q 245 972 222 994 q 268 911 268 949 q 245 851 268 874 q 185 828 222 828 z "},"ı":{"ha":356,"x_min":128,"x_max":228,"o":"m 228 694 l 228 0 l 128 0 l 128 694 l 228 694 z "},"í":{"ha":356,"x_min":117,"x_max":333,"o":"m 228 694 l 228 0 l 128 0 l 128 694 l 228 694 m 224 1039 l 333 1039 l 199 810 l 117 810 l 224 1039 z "},"î":{"ha":356,"x_min":-36,"x_max":392,"o":"m 228 694 l 228 0 l 128 0 l 128 694 l 228 694 m 392 801 l 300 801 l 178 964 l 56 801 l -36 801 l 121 1029 l 235 1029 l 392 801 z "},"ï":{"ha":356,"x_min":-1,"x_max":357,"o":"m 283 811 q 230 831 250 811 q 210 885 210 851 q 230 937 210 917 q 283 957 250 957 q 337 937 317 957 q 357 885 357 917 q 337 831 357 851 q 283 811 317 811 m 72 811 q 19 831 39 811 q -1 885 -1 851 q 19 937 -1 917 q 72 957 39 957 q 126 937 106 957 q 146 885 146 917 q 126 831 146 851 q 72 811 106 811 m 228 694 l 228 0 l 128 0 l 128 694 l 228 694 z "},"ì":{"ha":356,"x_min":15,"x_max":231,"o":"m 228 694 l 228 0 l 128 0 l 128 694 l 228 694 m 124 1039 l 231 810 l 149 810 l 15 1039 l 124 1039 z "},"j":{"ha":331,"x_min":-114,"x_max":236,"o":"m 11 -299 q -60 -286 -28 -299 q -114 -254 -92 -274 l -93 -160 q -51 -190 -76 -178 q 6 -201 -25 -201 q 76 -169 49 -201 q 103 -64 103 -137 l 103 694 l 203 694 l 203 -74 q 174 -206 203 -157 q 101 -277 146 -256 q 11 -299 57 -299 m 153 828 q 92 851 115 828 q 69 911 69 874 q 92 972 69 949 q 153 994 115 994 q 213 972 190 994 q 236 911 236 949 q 213 851 236 874 q 153 828 190 828 z "},"ȷ":{"ha":331,"x_min":-114,"x_max":203,"o":"m 11 -299 q -60 -286 -28 -299 q -114 -254 -92 -274 l -93 -160 q -51 -190 -76 -178 q 6 -201 -25 -201 q 76 -169 49 -201 q 103 -64 103 -137 l 103 694 l 203 694 l 203 -74 q 174 -206 203 -157 q 101 -277 146 -256 q 11 -299 57 -299 z "},"k":{"ha":747,"x_min":128,"x_max":718,"o":"m 704 694 l 417 396 l 393 372 l 181 150 l 181 275 l 578 694 l 704 694 m 228 1014 l 228 0 l 128 0 l 128 1014 l 228 1014 m 425 447 l 718 0 l 597 0 l 343 390 l 425 447 z "},"l":{"ha":388,"x_min":122,"x_max":375,"o":"m 222 1014 l 222 174 q 238 99 222 124 q 296 74 253 74 q 335 78 319 74 q 375 93 350 82 l 361 6 q 317 -9 343 -4 q 268 -14 292 -14 q 153 38 185 -14 q 122 169 122 89 l 122 1014 l 222 1014 z "},"m":{"ha":1301,"x_min":128,"x_max":1181,"o":"m 128 0 l 128 694 l 215 694 l 222 576 q 318 676 257 643 q 447 708 379 708 q 586 673 522 708 q 681 564 650 638 q 741 644 701 613 q 829 692 781 676 q 924 708 878 708 q 1049 681 990 708 q 1144 594 1107 653 q 1181 446 1181 536 l 1181 0 l 1081 0 l 1081 436 q 1032 577 1081 533 q 913 621 983 621 q 810 593 857 621 q 733 513 763 565 q 704 386 704 460 l 704 0 l 604 0 l 604 436 q 556 577 604 533 q 436 621 507 621 q 340 595 389 621 q 260 515 292 569 q 228 376 228 461 l 228 0 l 128 0 z "},"n":{"ha":826,"x_min":128,"x_max":707,"o":"m 128 0 l 128 694 l 215 694 l 224 535 l 208 549 q 304 670 238 632 q 451 708 371 708 q 580 679 522 708 q 672 592 638 650 q 707 446 707 535 l 707 0 l 607 0 l 607 411 q 558 574 607 526 q 438 621 510 621 q 339 596 388 621 q 259 517 290 571 q 228 375 228 463 l 228 0 l 128 0 z "},"ñ":{"ha":826,"x_min":128,"x_max":707,"o":"m 128 0 l 128 694 l 215 694 l 224 535 l 208 549 q 304 670 238 632 q 451 708 371 708 q 580 679 522 708 q 672 592 638 650 q 707 446 707 535 l 707 0 l 607 0 l 607 411 q 558 574 607 526 q 438 621 510 621 q 339 596 388 621 q 259 517 290 571 q 228 375 228 463 l 228 0 l 128 0 m 671 990 q 627 858 664 903 q 521 813 590 813 q 456 827 482 813 q 409 860 429 842 q 370 892 389 878 q 328 907 351 907 q 279 881 296 907 q 256 811 263 856 l 176 811 q 222 944 185 899 q 329 989 258 989 q 393 974 367 989 q 440 942 419 960 q 478 909 460 924 q 519 894 497 894 q 568 920 551 894 q 592 990 585 946 l 671 990 z "},"o":{"ha":803,"x_min":79,"x_max":724,"o":"m 401 708 q 568 665 496 708 q 682 541 640 622 q 724 347 724 460 q 682 153 724 235 q 568 29 640 72 q 401 -14 496 -14 q 235 29 308 -14 q 121 153 163 72 q 79 347 79 235 q 121 541 79 460 q 235 665 163 622 q 401 708 308 708 m 401 622 q 283 589 333 622 q 206 494 233 556 q 179 347 179 433 q 206 201 179 263 q 283 106 233 139 q 401 72 333 72 q 520 106 471 72 q 597 201 569 139 q 624 347 624 263 q 597 494 624 433 q 520 589 569 556 q 401 622 471 622 z "},"ó":{"ha":803,"x_min":79,"x_max":724,"o":"m 401 708 q 568 665 496 708 q 682 541 640 622 q 724 347 724 460 q 682 153 724 235 q 568 29 640 72 q 401 -14 496 -14 q 235 29 308 -14 q 121 153 163 72 q 79 347 79 235 q 121 541 79 460 q 235 665 163 622 q 401 708 308 708 m 401 622 q 283 589 333 622 q 206 494 233 556 q 179 347 179 433 q 206 201 179 263 q 283 106 233 139 q 401 72 333 72 q 520 106 471 72 q 597 201 569 139 q 624 347 624 263 q 597 494 624 433 q 520 589 569 556 q 401 622 471 622 m 447 1039 l 557 1039 l 422 810 l 340 810 l 447 1039 z "},"ô":{"ha":803,"x_min":79,"x_max":724,"o":"m 401 708 q 568 665 496 708 q 682 541 640 622 q 724 347 724 460 q 682 153 724 235 q 568 29 640 72 q 401 -14 496 -14 q 235 29 308 -14 q 121 153 163 72 q 79 347 79 235 q 121 541 79 460 q 235 665 163 622 q 401 708 308 708 m 401 622 q 283 589 333 622 q 206 494 233 556 q 179 347 179 433 q 206 201 179 263 q 283 106 233 139 q 401 72 333 72 q 520 106 471 72 q 597 201 569 139 q 624 347 624 263 q 597 494 624 433 q 520 589 569 556 q 401 622 471 622 m 615 801 l 524 801 l 401 964 l 279 801 l 188 801 l 344 1029 l 458 1029 l 615 801 z "},"ö":{"ha":803,"x_min":79,"x_max":724,"o":"m 401 708 q 568 665 496 708 q 682 541 640 622 q 724 347 724 460 q 682 153 724 235 q 568 29 640 72 q 401 -14 496 -14 q 235 29 308 -14 q 121 153 163 72 q 79 347 79 235 q 121 541 79 460 q 235 665 163 622 q 401 708 308 708 m 401 622 q 283 589 333 622 q 206 494 233 556 q 179 347 179 433 q 206 201 179 263 q 283 106 233 139 q 401 72 333 72 q 520 106 471 72 q 597 201 569 139 q 624 347 624 263 q 597 494 624 433 q 520 589 569 556 q 401 622 471 622 m 267 957 q 320 937 300 957 q 340 885 340 917 q 320 831 340 851 q 267 811 300 811 q 215 831 235 811 q 194 885 194 851 q 215 937 194 917 q 267 957 235 957 m 535 957 q 588 937 568 957 q 608 885 608 917 q 588 831 608 851 q 535 811 568 811 q 483 831 503 811 q 463 885 463 851 q 483 937 463 917 q 535 957 503 957 z "},"ò":{"ha":803,"x_min":79,"x_max":724,"o":"m 401 708 q 568 665 496 708 q 682 541 640 622 q 724 347 724 460 q 682 153 724 235 q 568 29 640 72 q 401 -14 496 -14 q 235 29 308 -14 q 121 153 163 72 q 79 347 79 235 q 121 541 79 460 q 235 665 163 622 q 401 708 308 708 m 401 622 q 283 589 333 622 q 206 494 233 556 q 179 347 179 433 q 206 201 179 263 q 283 106 233 139 q 401 72 333 72 q 520 106 471 72 q 597 201 569 139 q 624 347 624 263 q 597 494 624 433 q 520 589 569 556 q 401 622 471 622 m 347 1039 l 454 810 l 372 810 l 239 1039 l 347 1039 z "},"ø":{"ha":803,"x_min":63,"x_max":739,"o":"m 401 708 q 568 665 496 708 q 682 541 640 622 q 724 347 724 460 q 682 153 724 235 q 568 29 640 72 q 401 -14 496 -14 q 235 29 308 -14 q 121 153 163 72 q 79 347 79 235 q 121 541 79 460 q 235 665 163 622 q 401 708 308 708 m 401 622 q 283 589 333 622 q 206 494 233 556 q 179 347 179 433 q 206 201 179 263 q 283 106 233 139 q 401 72 333 72 q 520 106 471 72 q 597 201 569 139 q 624 347 624 263 q 597 494 624 433 q 520 589 569 556 q 401 622 471 622 m 63 -42 l 654 736 l 739 736 l 147 -42 l 63 -42 z "},"õ":{"ha":803,"x_min":79,"x_max":724,"o":"m 401 708 q 568 665 496 708 q 682 541 640 622 q 724 347 724 460 q 682 153 724 235 q 568 29 640 72 q 401 -14 496 -14 q 235 29 308 -14 q 121 153 163 72 q 79 347 79 235 q 121 541 79 460 q 235 665 163 622 q 401 708 308 708 m 401 622 q 283 589 333 622 q 206 494 233 556 q 179 347 179 433 q 206 201 179 263 q 283 106 233 139 q 401 72 333 72 q 520 106 471 72 q 597 201 569 139 q 624 347 624 263 q 597 494 624 433 q 520 589 569 556 q 401 622 471 622 m 647 990 q 603 858 640 903 q 497 813 567 813 q 432 827 458 813 q 385 860 406 842 q 347 892 365 878 q 304 907 328 907 q 256 881 272 907 q 232 811 239 856 l 153 811 q 198 944 161 899 q 306 989 235 989 q 369 974 343 989 q 416 942 396 960 q 455 909 436 924 q 496 894 474 894 q 544 920 528 894 q 568 990 561 946 l 647 990 z "},"œ":{"ha":1319,"x_min":79,"x_max":1239,"o":"m 401 -14 q 235 29 308 -14 q 121 153 163 72 q 79 347 79 235 q 121 541 79 460 q 235 665 163 622 q 401 708 308 708 q 576 658 500 708 q 689 508 651 607 l 660 508 q 773 658 697 607 q 944 708 849 708 q 1103 667 1038 708 q 1203 553 1168 625 q 1239 389 1239 481 q 1238 351 1239 368 q 1233 321 1236 333 l 690 321 l 690 410 l 1139 410 q 1083 565 1136 510 q 942 621 1029 621 q 826 588 876 621 q 749 494 776 556 q 722 347 722 433 q 751 201 722 263 q 830 106 779 139 q 949 74 881 74 q 1071 105 1022 74 q 1147 188 1119 136 l 1226 142 q 1117 28 1189 69 q 950 -14 1046 -14 q 774 36 851 -14 q 660 186 697 86 l 689 188 q 576 37 653 88 q 401 -14 500 -14 m 403 72 q 522 106 472 72 q 598 201 571 139 q 625 347 625 263 q 598 494 625 433 q 522 589 571 556 q 403 622 472 622 q 284 589 335 622 q 206 494 233 556 q 179 347 179 433 q 206 201 179 263 q 284 106 233 139 q 403 72 335 72 z "},"p":{"ha":839,"x_min":128,"x_max":757,"o":"m 128 -292 l 128 694 l 215 694 l 224 518 l 211 536 q 301 661 235 614 q 457 708 368 708 q 608 665 540 708 q 717 541 676 622 q 757 347 757 460 q 716 153 757 235 q 606 29 675 72 q 453 -14 536 -14 q 306 31 368 -14 q 215 146 243 75 l 228 165 l 228 -292 l 128 -292 m 442 74 q 599 148 542 74 q 657 347 657 222 q 601 547 657 472 q 446 621 544 621 q 333 587 382 621 q 256 492 283 553 q 228 347 228 431 q 255 203 228 265 q 330 108 282 142 q 442 74 378 74 z "},"þ":{"ha":839,"x_min":128,"x_max":757,"o":"m 128 -292 l 128 1014 l 228 1014 l 228 518 l 215 549 q 307 664 243 619 q 454 708 371 708 q 606 665 538 708 q 716 542 675 622 q 757 347 757 461 q 716 153 757 235 q 606 29 675 72 q 453 -14 536 -14 q 306 31 368 -14 q 215 146 243 75 l 228 165 l 228 -292 l 128 -292 m 442 74 q 599 148 542 74 q 657 347 657 222 q 601 547 657 472 q 446 621 544 621 q 333 587 382 621 q 256 492 283 553 q 228 347 228 431 q 255 203 228 265 q 330 108 282 142 q 442 74 378 74 z "},"q":{"ha":839,"x_min":82,"x_max":711,"o":"m 611 -292 l 611 194 l 628 182 q 542 37 611 88 q 385 -14 472 -14 q 233 29 301 -14 q 123 153 164 72 q 82 347 82 235 q 125 543 82 463 q 239 666 168 624 q 393 708 310 708 q 546 660 479 708 q 629 525 613 611 l 614 525 l 624 694 l 711 694 l 711 -292 l 611 -292 m 396 74 q 508 108 460 74 q 584 206 557 143 q 611 351 611 268 q 584 498 611 438 q 510 590 557 558 q 399 621 463 621 q 240 547 297 621 q 182 347 182 472 q 239 148 182 222 q 396 74 296 74 z "},"r":{"ha":531,"x_min":128,"x_max":500,"o":"m 128 0 l 128 694 l 211 694 l 224 572 q 301 673 249 638 q 428 708 354 708 q 467 705 447 708 q 500 692 486 701 l 483 601 q 452 612 469 608 q 404 615 435 615 q 322 588 363 615 q 254 508 281 561 q 228 379 228 456 l 228 0 l 128 0 z "},"s":{"ha":699,"x_min":60,"x_max":624,"o":"m 360 -14 q 182 29 263 -14 q 60 151 101 72 l 143 213 q 228 110 171 146 q 367 74 286 74 q 481 104 439 74 q 524 185 524 135 q 504 242 524 217 q 431 281 485 268 l 275 315 q 136 385 178 338 q 94 503 94 432 q 126 605 94 558 q 215 680 157 651 q 351 708 274 708 q 516 667 449 708 q 615 551 583 626 l 533 497 q 460 592 511 563 q 351 621 408 621 q 267 606 303 621 q 212 566 231 592 q 193 507 193 540 q 215 447 193 475 q 293 407 236 419 l 456 371 q 586 307 549 350 q 624 199 624 264 q 551 44 624 101 q 360 -14 478 -14 z "},"ß":{"ha":821,"x_min":128,"x_max":743,"o":"m 508 536 q 644 499 593 536 q 719 403 696 461 q 743 281 743 344 q 715 134 743 201 q 629 26 686 67 q 485 -14 572 -14 q 379 1 424 -14 q 315 33 335 17 l 343 118 q 399 89 368 100 q 481 78 429 78 q 603 135 558 78 q 647 282 647 193 q 594 437 647 385 q 438 489 540 489 l 363 489 l 364 578 l 428 578 q 560 631 513 578 q 607 761 607 683 q 557 888 607 847 q 429 928 507 928 q 305 894 349 928 q 244 801 261 861 q 228 663 228 742 l 228 0 l 128 0 l 128 693 q 157 863 128 789 q 254 978 186 936 q 438 1021 322 1021 q 588 987 528 1021 q 678 898 649 953 q 708 781 708 843 q 686 669 708 724 q 619 579 664 615 q 508 539 575 543 l 508 536 z "},"t":{"ha":542,"x_min":40,"x_max":521,"o":"m 271 890 l 271 190 q 299 107 271 135 q 372 79 326 79 q 438 93 411 79 q 488 131 465 107 l 521 47 q 450 2 490 18 q 358 -14 410 -14 q 226 29 281 -14 q 171 172 171 72 l 171 863 l 271 890 m 510 694 l 510 608 l 40 608 l 40 694 l 510 694 z "},"u":{"ha":821,"x_min":119,"x_max":693,"o":"m 364 -14 q 243 12 299 -14 q 153 93 188 38 q 119 238 119 149 l 119 694 l 219 694 l 219 264 q 260 121 219 168 q 389 74 300 74 q 466 89 429 74 q 531 134 503 104 q 576 208 560 164 q 593 311 593 253 l 593 694 l 693 694 l 693 0 l 606 0 l 600 115 q 544 43 578 72 q 465 0 510 14 q 364 -14 419 -14 z "},"ú":{"ha":821,"x_min":119,"x_max":693,"o":"m 364 -14 q 243 12 299 -14 q 153 93 188 38 q 119 238 119 149 l 119 694 l 219 694 l 219 264 q 260 121 219 168 q 389 74 300 74 q 466 89 429 74 q 531 134 503 104 q 576 208 560 164 q 593 311 593 253 l 593 694 l 693 694 l 693 0 l 606 0 l 600 115 q 544 43 578 72 q 465 0 510 14 q 364 -14 419 -14 m 453 1024 l 563 1024 l 428 794 l 346 794 l 453 1024 z "},"û":{"ha":821,"x_min":119,"x_max":693,"o":"m 364 -14 q 243 12 299 -14 q 153 93 188 38 q 119 238 119 149 l 119 694 l 219 694 l 219 264 q 260 121 219 168 q 389 74 300 74 q 466 89 429 74 q 531 134 503 104 q 576 208 560 164 q 593 311 593 253 l 593 694 l 693 694 l 693 0 l 606 0 l 600 115 q 544 43 578 72 q 465 0 510 14 q 364 -14 419 -14 m 621 786 l 529 786 l 407 949 l 285 786 l 193 786 l 350 1014 l 464 1014 l 621 786 z "},"ü":{"ha":821,"x_min":119,"x_max":693,"o":"m 364 -14 q 243 12 299 -14 q 153 93 188 38 q 119 238 119 149 l 119 694 l 219 694 l 219 264 q 260 121 219 168 q 389 74 300 74 q 466 89 429 74 q 531 134 503 104 q 576 208 560 164 q 593 311 593 253 l 593 694 l 693 694 l 693 0 l 606 0 l 600 115 q 544 43 578 72 q 465 0 510 14 q 364 -14 419 -14 m 272 942 q 326 922 306 942 q 346 869 346 901 q 326 816 346 836 q 272 796 306 796 q 220 816 240 796 q 200 869 200 836 q 220 922 200 901 q 272 942 240 942 m 540 942 q 594 922 574 942 q 614 869 614 901 q 594 816 614 836 q 540 796 574 796 q 488 816 508 796 q 468 869 468 836 q 488 922 468 901 q 540 942 508 942 z "},"ù":{"ha":821,"x_min":119,"x_max":693,"o":"m 364 -14 q 243 12 299 -14 q 153 93 188 38 q 119 238 119 149 l 119 694 l 219 694 l 219 264 q 260 121 219 168 q 389 74 300 74 q 466 89 429 74 q 531 134 503 104 q 576 208 560 164 q 593 311 593 253 l 593 694 l 693 694 l 693 0 l 606 0 l 600 115 q 544 43 578 72 q 465 0 510 14 q 364 -14 419 -14 m 353 1024 l 460 794 l 378 794 l 244 1024 l 353 1024 z "},"v":{"ha":690,"x_min":18,"x_max":672,"o":"m 567 694 l 672 694 l 396 0 l 294 0 l 18 694 l 132 694 l 347 101 l 567 694 z "},"w":{"ha":1126,"x_min":38,"x_max":1089,"o":"m 978 694 l 1089 694 l 856 0 l 754 0 l 558 567 l 372 0 l 271 0 l 38 694 l 149 694 l 324 117 l 513 694 l 614 694 l 803 117 l 978 694 z "},"x":{"ha":704,"x_min":39,"x_max":663,"o":"m 179 694 l 379 401 l 389 392 l 663 0 l 540 0 l 328 307 l 315 322 l 53 694 l 179 694 m 654 694 l 394 328 l 385 326 l 156 0 l 39 0 l 325 394 l 335 396 l 538 694 l 654 694 z "},"y":{"ha":686,"x_min":0,"x_max":667,"o":"m 667 694 l 354 -119 q 305 -218 332 -178 q 240 -278 278 -258 q 146 -299 201 -299 q 65 -285 103 -299 q 0 -250 28 -272 l 29 -164 q 84 -200 54 -189 q 142 -211 114 -211 q 210 -187 179 -211 q 267 -94 240 -164 l 303 1 l 235 168 l 25 694 l 138 694 l 313 222 l 350 107 l 396 235 l 560 694 l 667 694 z "},"ý":{"ha":686,"x_min":0,"x_max":667,"o":"m 667 694 l 354 -119 q 305 -218 332 -178 q 240 -278 278 -258 q 146 -299 201 -299 q 65 -285 103 -299 q 0 -250 28 -272 l 29 -164 q 84 -200 54 -189 q 142 -211 114 -211 q 210 -187 179 -211 q 267 -94 240 -164 l 303 1 l 235 168 l 25 694 l 138 694 l 313 222 l 350 107 l 396 235 l 560 694 l 667 694 m 390 1024 l 500 1024 l 365 794 l 283 794 l 390 1024 z "},"ÿ":{"ha":686,"x_min":0,"x_max":667,"o":"m 667 694 l 354 -119 q 305 -218 332 -178 q 240 -278 278 -258 q 146 -299 201 -299 q 65 -285 103 -299 q 0 -250 28 -272 l 29 -164 q 84 -200 54 -189 q 142 -211 114 -211 q 210 -187 179 -211 q 267 -94 240 -164 l 303 1 l 235 168 l 25 694 l 138 694 l 313 222 l 350 107 l 396 235 l 560 694 l 667 694 m 210 942 q 263 922 243 942 q 283 869 283 901 q 263 816 283 836 q 210 796 243 796 q 158 816 178 796 q 138 869 138 836 q 158 922 138 901 q 210 942 178 942 m 478 942 q 531 922 511 942 q 551 869 551 901 q 531 816 551 836 q 478 796 511 796 q 426 816 446 796 q 406 869 406 836 q 426 922 406 901 q 478 942 446 942 z "},"z":{"ha":706,"x_min":76,"x_max":635,"o":"m 76 0 l 76 76 l 431 524 l 511 611 l 397 608 l 78 608 l 78 694 l 622 694 l 622 618 l 271 175 l 189 83 l 314 86 l 635 86 l 635 0 l 76 0 z "},"ª":{"ha":515,"x_min":40,"x_max":493,"o":"m 190 454 q 82 488 122 454 q 42 576 42 521 q 74 663 42 631 q 188 710 107 696 l 347 739 l 347 682 l 217 656 q 147 628 165 646 q 128 583 128 611 q 149 539 128 556 q 204 522 169 522 q 262 532 232 522 q 313 567 292 542 q 333 638 333 593 l 333 758 q 308 830 333 804 q 238 856 282 856 q 160 835 194 856 q 104 765 125 814 l 42 801 q 110 889 60 854 q 236 924 160 924 q 369 883 321 924 q 418 761 418 842 l 418 561 q 431 526 418 535 q 460 517 443 517 q 493 522 482 517 l 486 467 q 463 458 476 461 q 436 454 450 454 q 369 478 394 454 q 344 551 344 503 l 344 575 l 358 563 q 322 506 347 531 q 263 468 297 482 q 190 454 229 454 m 40 283 l 40 350 l 468 350 l 468 283 l 40 283 z "},"º":{"ha":488,"x_min":36,"x_max":451,"o":"m 243 454 q 93 517 150 454 q 36 689 36 579 q 93 862 36 800 q 243 924 150 924 q 394 862 338 924 q 451 689 451 800 q 394 517 451 579 q 243 454 338 454 m 51 283 l 51 350 l 436 350 l 436 283 l 51 283 m 243 524 q 335 567 306 524 q 365 689 365 610 q 335 812 365 768 q 243 856 306 856 q 152 812 182 856 q 122 689 122 768 q 152 567 122 610 q 243 524 182 524 z "},"ក":{"ha":867,"x_min":142,"x_max":725,"o":"m 147 367 q 222 572 147 499 q 433 644 297 644 q 644 572 569 644 q 719 367 719 499 l 719 0 l 622 0 l 622 367 q 573 510 622 460 q 433 561 524 561 q 294 510 344 561 q 244 367 244 460 l 244 0 l 147 0 l 147 367 m 142 736 l 142 825 l 725 825 l 725 736 l 142 736 z "},"ខ":{"ha":825,"x_min":128,"x_max":706,"o":"m 413 -14 q 208 51 281 -14 q 136 221 136 115 l 136 361 q 326 392 240 376 q 475 433 413 408 q 572 497 538 457 q 606 599 606 536 q 554 715 606 674 q 410 756 503 756 q 278 722 329 756 q 226 625 226 688 q 244 567 226 589 q 294 546 263 546 q 328 550 311 546 q 357 560 346 554 l 357 481 q 329 472 347 476 q 285 467 311 467 q 172 510 215 467 q 128 626 128 553 q 204 780 128 721 q 411 839 281 839 q 624 778 543 839 q 706 603 706 717 q 665 466 706 521 q 555 377 624 411 q 402 324 486 343 q 233 293 318 304 l 233 221 q 282 109 233 149 q 415 69 331 69 q 543 105 496 69 q 590 200 590 140 q 563 283 590 243 l 649 322 q 676 263 667 296 q 686 196 686 231 q 611 43 686 100 q 413 -14 536 -14 z "},"គ":{"ha":867,"x_min":142,"x_max":725,"o":"m 147 367 q 222 572 147 499 q 433 644 297 644 q 644 572 569 644 q 719 367 719 499 l 719 0 l 622 0 l 622 367 q 573 510 622 460 q 433 561 524 561 q 294 510 344 561 q 244 367 244 460 l 244 164 l 228 164 q 285 271 240 225 q 425 317 331 317 l 461 317 l 461 239 l 425 239 q 335 221 369 239 q 279 174 300 203 q 244 114 258 146 l 244 0 l 147 0 l 147 367 m 142 736 l 142 825 l 725 825 l 725 736 l 142 736 z "},"ឃ":{"ha":1286,"x_min":75,"x_max":1167,"o":"m 414 -14 q 217 54 288 -14 q 147 244 147 122 l 147 429 l 189 606 l 199 597 l 192 597 q 108 624 142 597 q 75 714 75 651 q 194 833 75 833 q 263 817 240 833 q 286 764 286 800 l 286 603 l 244 426 l 244 244 q 291 115 244 161 q 422 69 338 69 q 554 116 508 69 q 600 244 600 163 l 600 594 q 584 639 600 624 q 539 668 568 654 l 539 722 q 565 799 539 774 q 640 825 590 825 l 725 825 l 725 736 l 651 736 q 622 706 622 736 l 622 694 q 677 657 657 679 q 697 594 697 635 l 697 244 q 743 116 697 163 q 869 69 789 69 q 997 115 951 69 q 1042 244 1042 161 l 1042 594 q 1026 639 1042 624 q 981 668 1010 654 l 981 722 q 1006 799 981 774 q 1082 825 1032 825 l 1167 825 l 1167 736 l 1093 736 q 1064 706 1064 736 l 1064 694 q 1119 657 1099 679 q 1139 594 1139 635 l 1139 244 q 1071 54 1139 122 q 878 -14 1003 -14 q 728 27 786 -14 q 642 143 669 68 l 656 143 q 569 28 629 69 q 414 -14 508 -14 m 193 769 q 143 714 143 769 q 193 658 143 658 l 193 769 z "},"ង":{"ha":839,"x_min":83,"x_max":719,"o":"m 147 0 l 147 374 l 83 374 l 83 449 l 244 449 l 244 115 l 433 286 l 622 115 l 622 472 q 608 549 622 519 q 543 600 593 578 l 608 639 q 697 573 674 613 q 719 472 719 533 l 719 0 l 622 0 l 433 175 l 244 0 l 147 0 m 358 524 q 203 563 264 524 q 143 671 143 603 q 154 731 143 707 q 165 782 165 756 q 160 802 165 796 q 140 808 156 808 l 122 808 l 122 881 l 167 881 q 238 861 215 881 q 260 806 260 842 q 249 744 260 775 q 238 683 238 714 q 269 623 238 646 q 371 600 300 600 q 467 616 429 600 q 539 658 506 632 l 544 621 q 479 652 507 624 q 451 724 451 681 q 484 802 451 772 q 569 832 517 832 q 656 802 624 832 q 688 724 688 772 q 673 670 688 694 q 635 630 658 646 q 586 607 613 614 q 536 568 568 588 q 460 536 504 549 q 358 524 415 524 m 569 676 q 601 690 589 676 q 613 721 613 703 q 601 753 613 740 q 569 765 589 765 q 539 753 551 765 q 526 721 526 740 q 539 690 526 703 q 569 676 551 676 z "},"ច":{"ha":867,"x_min":110,"x_max":725,"o":"m 433 -14 q 222 59 297 -14 q 147 264 147 132 l 147 597 q 138 643 147 626 q 110 674 128 660 l 110 717 q 139 798 110 771 q 225 825 168 825 l 725 825 l 725 736 l 228 736 q 202 728 211 736 q 193 703 193 719 l 193 694 q 230 658 215 679 q 244 597 244 636 l 244 264 q 294 121 244 172 q 433 69 344 69 q 573 121 524 69 q 622 264 622 172 l 622 428 l 649 392 l 625 392 q 542 419 575 392 q 508 508 508 446 q 538 598 508 568 q 628 628 568 628 q 697 611 674 628 q 719 558 719 594 l 719 264 q 644 59 719 132 q 433 -14 569 -14 m 626 564 q 576 508 576 564 q 626 453 576 453 l 626 564 z "},"ឆ":{"ha":867,"x_min":94,"x_max":725,"o":"m 161 0 q 117 71 139 24 q 94 167 94 118 q 108 222 94 203 q 147 242 122 240 l 147 597 q 138 643 147 626 q 110 674 128 660 l 110 717 q 139 798 110 771 q 225 825 168 825 l 725 825 l 725 736 l 228 736 q 202 728 211 736 q 193 703 193 719 l 193 694 q 230 658 215 679 q 244 597 244 636 l 244 0 l 161 0 m 582 -8 q 482 18 518 -8 q 414 85 446 44 q 378 127 394 111 q 340 151 361 143 q 285 158 319 158 l 222 158 l 222 242 l 293 242 q 378 229 344 242 q 435 196 411 217 q 479 147 458 175 q 532 91 511 107 q 575 75 553 75 q 610 88 597 75 q 622 126 622 101 l 622 428 l 649 392 l 625 392 q 542 419 575 392 q 508 508 508 446 q 538 598 508 568 q 628 628 568 628 q 697 611 674 628 q 719 558 719 594 l 719 115 q 681 24 719 57 q 582 -8 643 -8 m 626 564 q 576 508 576 564 q 626 453 576 453 l 626 564 z "},"ជ":{"ha":839,"x_min":110,"x_max":692,"o":"m 147 597 q 138 643 147 626 q 110 674 128 660 l 110 717 q 139 798 110 771 q 225 825 168 825 l 365 825 l 506 750 l 544 750 q 587 765 574 750 q 600 808 600 779 l 600 881 l 692 881 l 692 808 q 677 729 692 760 q 631 684 663 699 q 550 669 600 669 l 478 669 l 353 736 l 228 736 q 202 728 211 736 q 193 703 193 719 l 193 694 q 230 658 215 679 q 244 597 244 636 l 244 119 l 419 290 l 594 119 l 594 556 l 692 556 l 692 0 l 594 0 l 419 175 l 244 0 l 147 0 l 147 597 z "},"ឈ":{"ha":1656,"x_min":147,"x_max":1536,"o":"m 818 -14 q 633 50 700 -14 q 567 228 567 114 l 567 588 q 525 711 567 667 q 407 756 483 756 q 287 711 329 756 q 244 588 244 667 l 244 192 l 218 228 l 242 228 q 326 201 293 228 q 360 111 360 174 q 330 22 360 51 q 239 -8 300 -8 q 170 9 193 -8 q 147 61 147 26 l 147 588 q 215 773 147 707 q 407 839 282 839 q 597 773 531 839 q 664 588 664 707 l 664 228 q 708 111 664 153 q 826 69 751 69 q 903 88 867 69 q 965 143 940 107 q 989 228 989 179 l 989 594 q 973 639 989 624 q 928 668 957 654 l 928 722 q 953 799 928 774 q 1029 825 979 825 l 1114 825 l 1114 736 l 1040 736 q 1011 706 1011 736 l 1011 694 q 1066 657 1046 679 q 1086 594 1086 635 l 1086 228 q 1131 112 1086 154 q 1247 69 1175 69 q 1368 111 1325 69 q 1411 228 1411 153 l 1411 594 q 1395 639 1411 624 q 1350 668 1379 654 l 1350 722 q 1376 799 1350 774 q 1451 825 1401 825 l 1536 825 l 1536 736 l 1463 736 q 1433 706 1433 736 l 1433 694 q 1488 657 1468 679 q 1508 594 1508 635 l 1508 228 q 1442 50 1508 114 q 1256 -14 1376 -14 q 1112 25 1168 -14 q 1031 136 1056 64 l 1044 136 q 959 25 1013 64 q 818 -14 906 -14 m 240 56 q 290 111 290 56 q 240 167 290 167 l 240 56 z "},"ញ":{"ha":1286,"x_min":147,"x_max":1144,"o":"m 808 -358 q 684 -343 740 -358 q 576 -306 628 -328 q 471 -261 524 -283 q 357 -224 418 -239 q 219 -208 296 -208 l 175 -208 l 175 -125 l 219 -125 q 367 -140 301 -125 q 490 -178 433 -156 q 597 -222 546 -200 q 699 -260 647 -244 q 808 -275 750 -275 l 965 -275 q 1026 -259 1006 -275 q 1047 -211 1047 -243 q 1033 -168 1047 -183 q 996 -153 1019 -153 q 958 -161 982 -153 q 917 -176 935 -169 l 917 -101 q 962 -84 936 -93 q 1006 -75 988 -75 q 1107 -110 1069 -75 q 1144 -210 1144 -144 q 1098 -319 1144 -281 q 965 -358 1051 -358 l 808 -358 m 594 0 l 594 654 l 525 725 l 424 624 l 415 624 l 314 725 l 244 654 l 244 192 l 218 228 l 242 228 q 326 201 293 228 q 360 111 360 174 q 330 22 360 51 q 239 -8 300 -8 q 170 9 193 -8 q 147 61 147 26 l 147 676 l 304 839 l 310 839 l 419 725 l 529 839 l 535 839 l 692 676 l 692 0 l 594 0 m 240 56 q 290 111 290 56 q 240 167 290 167 l 240 56 m 1042 603 q 917 742 1042 742 l 826 742 l 678 636 l 636 694 l 813 825 l 917 825 q 1083 769 1028 825 q 1139 603 1139 714 l 1139 0 l 1042 0 l 1042 603 z "},"ដ":{"ha":850,"x_min":138,"x_max":711,"o":"m 147 0 l 147 542 l 244 542 l 244 118 l 425 289 l 606 118 l 606 542 l 703 542 l 703 0 l 606 0 l 425 175 l 244 0 l 147 0 m 393 606 q 202 638 267 606 q 138 733 138 669 q 168 806 138 778 q 246 833 199 833 q 293 827 269 833 q 332 814 317 821 l 332 742 q 294 754 315 749 q 263 760 272 760 q 243 751 251 760 q 235 729 235 742 q 275 695 235 707 q 389 683 315 683 q 560 708 507 683 q 614 785 614 733 l 614 881 l 711 881 l 711 785 q 632 651 711 696 q 393 606 553 606 z "},"ឋ":{"ha":858,"x_min":75,"x_max":758,"o":"m 429 -14 q 221 59 294 -14 q 147 264 147 132 l 147 429 l 189 606 l 199 597 l 192 597 q 108 624 142 597 q 75 714 75 651 q 194 833 75 833 q 263 817 240 833 q 286 764 286 800 l 286 603 l 244 426 l 244 264 q 293 121 244 172 q 429 69 342 69 q 565 121 517 69 q 614 264 614 172 l 614 575 q 602 614 614 600 q 568 637 590 628 q 514 654 546 646 l 514 731 q 538 801 514 778 q 607 825 561 825 l 621 825 l 696 778 l 678 775 l 678 881 l 758 881 l 758 776 q 744 735 758 754 q 697 715 731 715 l 678 715 l 625 743 l 619 743 q 597 718 597 743 l 597 692 q 680 651 649 678 q 711 575 711 624 l 711 264 q 638 59 711 132 q 429 -14 564 -14 m 193 769 q 143 714 143 769 q 193 658 143 658 l 193 769 z "},"ឌ":{"ha":797,"x_min":119,"x_max":675,"o":"m 304 -14 q 169 36 219 -14 q 119 190 119 86 l 119 361 q 367 401 265 381 q 524 458 469 421 q 578 568 578 496 l 578 665 l 508 728 l 401 636 l 393 636 l 286 728 l 217 665 l 217 594 q 247 554 217 554 q 273 558 261 554 q 292 564 285 561 l 292 486 q 269 480 285 483 q 233 476 253 476 q 151 504 183 476 q 119 579 119 532 l 119 692 l 278 839 l 283 839 l 397 736 l 511 839 l 517 839 l 675 692 l 675 575 q 638 451 675 500 q 538 371 601 401 q 391 322 474 340 q 217 293 308 304 l 217 196 q 242 95 217 124 q 313 67 268 67 q 388 84 346 67 q 470 129 429 101 q 542 190 511 157 q 586 253 574 222 l 604 163 q 546 91 583 124 q 465 35 508 58 q 378 -1 421 11 q 304 -14 336 -14 m 582 0 l 579 167 l 579 289 l 674 289 l 674 0 l 582 0 z "},"ឍ":{"ha":1286,"x_min":147,"x_max":1167,"o":"m 597 0 l 597 654 l 533 725 l 425 624 l 417 624 l 308 725 l 244 654 l 244 192 l 218 228 l 242 228 q 326 201 293 228 q 360 111 360 174 q 330 22 360 51 q 239 -8 300 -8 q 170 9 193 -8 q 147 61 147 26 l 147 676 l 299 839 l 304 839 l 421 725 l 538 839 l 543 839 l 694 676 l 694 0 l 597 0 m 240 56 q 290 111 290 56 q 240 167 290 167 l 240 56 m 1006 -8 q 931 8 960 -8 q 882 51 903 24 q 839 117 861 79 q 794 183 813 163 q 753 204 776 204 q 699 176 717 204 q 674 119 682 149 l 642 140 q 681 246 649 203 q 767 289 713 289 q 851 251 819 289 q 910 165 883 213 q 953 99 935 122 q 997 75 971 75 q 1030 88 1018 75 q 1042 128 1042 101 l 1042 594 q 1026 639 1042 624 q 981 668 1010 654 l 981 722 q 1006 799 981 774 q 1082 825 1032 825 l 1167 825 l 1167 736 l 1093 736 q 1064 706 1064 736 l 1064 694 q 1119 657 1099 679 q 1139 594 1139 635 l 1139 121 q 1103 26 1139 60 q 1006 -8 1067 -8 z "},"ណ":{"ha":1656,"x_min":147,"x_max":1508,"o":"m 581 583 q 537 710 581 665 q 413 756 493 756 q 289 710 333 756 q 244 583 244 665 l 244 192 l 218 228 l 242 228 q 326 201 293 228 q 360 111 360 174 q 330 22 360 51 q 239 -8 300 -8 q 170 9 193 -8 q 147 61 147 26 l 147 583 q 217 772 147 706 q 413 839 288 839 q 608 772 539 839 q 678 583 678 706 l 678 114 l 828 276 l 978 114 l 978 583 q 1047 772 978 706 q 1243 839 1117 839 q 1438 772 1368 839 q 1508 583 1508 706 l 1508 0 l 1411 0 l 1411 583 q 1367 710 1411 665 q 1243 756 1322 756 q 1119 710 1163 756 q 1075 583 1075 665 l 1075 0 l 978 0 l 828 161 l 678 0 l 581 0 l 581 583 m 240 56 q 290 111 290 56 q 240 167 290 167 l 240 56 z "},"ត":{"ha":867,"x_min":142,"x_max":725,"o":"m 622 367 q 573 510 622 458 q 433 561 524 561 q 294 510 344 561 q 244 367 244 458 l 244 192 l 218 228 l 242 228 q 326 201 293 228 q 360 111 360 174 q 330 22 360 51 q 239 -8 300 -8 q 170 9 193 -8 q 147 61 147 26 l 147 367 q 222 572 147 499 q 433 644 297 644 q 644 572 569 644 q 719 367 719 499 l 719 0 l 622 0 l 622 367 m 240 56 q 290 111 290 56 q 240 167 290 167 l 240 56 m 142 736 l 142 825 l 725 825 l 725 736 l 142 736 z "},"ថ":{"ha":867,"x_min":110,"x_max":719,"o":"m 433 -14 q 222 59 297 -14 q 147 264 147 132 l 147 597 q 138 643 147 626 q 110 674 128 660 l 110 717 q 139 798 110 771 q 225 825 168 825 l 393 825 l 533 750 l 572 750 q 615 765 601 750 q 628 808 628 779 l 628 881 l 719 881 l 719 808 q 705 729 719 760 q 659 684 690 699 q 578 669 628 669 l 506 669 l 381 736 l 228 736 q 202 728 211 736 q 193 703 193 719 l 193 694 q 230 658 215 679 q 244 597 244 636 l 244 264 q 294 121 244 172 q 433 69 344 69 q 573 121 524 69 q 622 264 622 172 l 622 400 l 649 364 l 625 364 q 542 391 575 364 q 508 481 508 418 q 538 570 508 540 q 628 600 568 600 q 697 583 674 600 q 719 531 719 567 l 719 264 q 644 59 719 132 q 433 -14 569 -14 m 626 536 q 576 481 576 536 q 626 425 576 425 l 626 536 z "},"ទ":{"ha":797,"x_min":108,"x_max":686,"o":"m 507 285 q 358 307 429 289 q 230 360 286 325 q 141 449 174 394 q 108 583 108 504 q 188 772 108 704 q 397 839 267 839 q 544 810 483 839 q 637 734 604 782 q 669 625 669 686 q 663 576 669 599 q 647 539 656 554 l 549 539 q 563 581 556 558 q 571 625 571 604 q 524 719 571 682 q 399 756 478 756 q 260 710 313 756 q 208 578 208 665 q 292 419 208 468 q 526 357 375 371 l 507 285 m 382 -14 q 227 40 282 -14 q 172 192 172 94 l 172 256 l 267 256 l 267 192 q 297 99 267 132 q 382 67 326 67 q 467 99 438 67 q 497 192 497 132 l 497 389 q 519 442 497 425 q 582 458 540 458 q 660 431 635 458 q 686 357 686 404 q 656 283 686 307 q 582 258 625 258 l 568 258 l 592 294 l 592 190 q 537 40 592 93 q 382 -14 482 -14 m 581 317 q 622 357 622 317 q 581 397 622 397 l 581 317 z "},"ធ":{"ha":867,"x_min":110,"x_max":725,"o":"m 147 597 q 138 643 147 626 q 110 674 128 660 l 110 717 q 139 798 110 771 q 225 825 168 825 l 725 825 l 725 736 l 228 736 q 202 728 211 736 q 193 703 193 719 l 193 694 q 230 658 215 679 q 244 597 244 636 l 244 115 l 433 286 l 622 115 l 622 428 l 649 392 l 625 392 q 542 419 575 392 q 508 508 508 446 q 538 598 508 568 q 628 628 568 628 q 697 611 674 628 q 719 558 719 594 l 719 0 l 622 0 l 433 175 l 244 0 l 147 0 l 147 597 m 626 564 q 576 508 576 564 q 626 453 576 453 l 626 564 z "},"ន":{"ha":817,"x_min":119,"x_max":697,"o":"m 464 -14 q 337 13 389 -14 q 251 83 285 39 q 193 181 217 128 l 225 253 q 267 169 239 213 q 341 96 296 125 q 450 67 386 67 q 556 99 519 67 q 592 190 592 131 l 592 293 q 422 324 506 304 q 269 377 338 343 q 160 466 201 411 q 119 603 119 521 q 201 776 119 713 q 417 839 282 839 q 623 782 549 839 q 697 633 697 725 q 653 522 697 563 q 540 481 610 481 q 496 485 514 481 q 468 494 478 490 l 468 572 q 497 563 479 567 q 531 558 514 558 q 581 578 563 558 q 599 635 599 599 q 550 724 599 692 q 417 756 501 756 q 273 715 326 756 q 219 596 219 674 q 278 471 219 514 q 442 405 336 428 q 689 361 547 382 l 689 188 q 628 39 689 92 q 464 -14 568 -14 m 136 0 l 136 289 l 231 289 l 231 142 l 228 0 l 136 0 z "},"ប":{"ha":864,"x_min":86,"x_max":744,"o":"m 432 -14 q 222 59 297 -14 q 147 264 147 132 l 147 594 q 131 639 147 624 q 86 668 115 654 l 86 722 q 112 799 86 774 q 188 825 138 825 l 272 825 l 272 736 l 199 736 q 169 706 169 736 l 169 694 q 224 657 204 679 q 244 594 244 635 l 244 264 q 294 121 244 172 q 432 69 343 69 q 570 121 521 69 q 619 264 619 172 l 619 594 q 603 639 619 624 q 558 668 588 654 l 558 722 q 584 799 558 774 q 660 825 610 825 l 744 825 l 744 736 l 671 736 q 642 706 642 736 l 642 694 q 697 657 676 679 q 717 594 717 635 l 717 264 q 642 59 717 132 q 432 -14 568 -14 z "},"ផ":{"ha":867,"x_min":110,"x_max":719,"o":"m 147 597 q 138 643 147 626 q 110 674 128 660 l 110 717 q 139 798 110 771 q 225 825 168 825 l 393 825 l 533 750 l 572 750 q 615 765 601 750 q 628 808 628 779 l 628 881 l 719 881 l 719 808 q 705 729 719 760 q 659 684 690 699 q 578 669 628 669 l 506 669 l 381 736 l 228 736 q 202 728 211 736 q 193 703 193 719 l 193 694 q 230 658 215 679 q 244 597 244 636 l 244 115 l 433 286 l 622 115 l 622 400 l 649 364 l 625 364 q 542 391 575 364 q 508 481 508 418 q 538 570 508 540 q 628 600 568 600 q 697 583 674 600 q 719 531 719 567 l 719 0 l 622 0 l 433 175 l 244 0 l 147 0 l 147 597 m 626 536 q 576 481 576 536 q 626 425 576 425 l 626 536 z "},"ព":{"ha":867,"x_min":147,"x_max":719,"o":"m 622 0 l 622 654 l 553 725 l 438 624 l 429 624 l 314 725 l 244 654 l 244 192 l 218 228 l 242 228 q 326 201 293 228 q 360 111 360 174 q 330 22 360 51 q 239 -8 300 -8 q 170 9 193 -8 q 147 61 147 26 l 147 676 l 304 839 l 310 839 l 433 725 l 557 839 l 563 839 l 719 676 l 719 0 l 622 0 m 240 56 q 290 111 290 56 q 240 167 290 167 l 240 56 z "},"ភ":{"ha":867,"x_min":78,"x_max":725,"o":"m 214 -8 q 143 10 171 -8 q 100 60 115 29 q 78 129 85 92 l 150 160 q 173 92 160 121 q 204 43 186 63 l 207 43 q 211 60 210 51 q 213 78 213 68 q 203 150 213 113 q 180 228 193 188 q 157 313 167 268 q 147 408 147 358 q 222 583 147 521 q 433 644 297 644 q 644 572 569 644 q 719 367 719 499 l 719 0 l 622 0 l 622 367 q 573 510 622 460 q 433 561 524 561 q 294 522 344 561 q 244 408 244 482 q 253 335 244 374 q 274 254 263 296 q 294 169 285 213 q 303 79 303 125 q 278 13 303 33 q 214 -8 254 -8 m 142 736 l 142 825 l 725 825 l 725 736 l 142 736 z "},"ម":{"ha":864,"x_min":86,"x_max":744,"o":"m 432 -14 q 222 59 297 -14 q 147 264 147 132 l 147 594 q 131 639 147 624 q 86 668 115 654 l 86 722 q 112 799 86 774 q 188 825 138 825 l 272 825 l 272 736 l 199 736 q 169 706 169 736 l 169 694 q 224 657 204 679 q 244 594 244 635 l 244 264 q 294 121 244 172 q 432 69 343 69 q 570 121 521 69 q 619 264 619 172 l 619 594 q 603 639 619 624 q 558 668 588 654 l 558 722 q 584 799 558 774 q 660 825 610 825 l 744 825 l 744 736 l 671 736 q 642 706 642 736 l 642 694 q 697 657 676 679 q 717 594 717 635 l 717 264 q 642 59 717 132 q 432 -14 568 -14 m 203 385 l 203 463 l 661 463 l 661 385 l 203 385 z "},"យ":{"ha":1286,"x_min":147,"x_max":1167,"o":"m 414 -14 q 217 54 288 -14 q 147 244 147 122 l 147 764 q 158 803 147 788 q 188 826 168 818 q 239 833 208 833 q 358 714 358 833 q 325 624 358 651 q 242 597 292 597 l 235 597 l 244 606 l 244 244 q 291 115 244 161 q 422 69 338 69 q 554 116 508 69 q 600 244 600 163 l 600 594 q 584 639 600 624 q 539 668 568 654 l 539 722 q 565 799 539 774 q 640 825 590 825 l 725 825 l 725 736 l 651 736 q 622 706 622 736 l 622 694 q 677 657 657 679 q 697 594 697 635 l 697 244 q 743 116 697 163 q 869 69 789 69 q 997 115 951 69 q 1042 244 1042 161 l 1042 594 q 1026 639 1042 624 q 981 668 1010 654 l 981 722 q 1006 799 981 774 q 1082 825 1032 825 l 1167 825 l 1167 736 l 1093 736 q 1064 706 1064 736 l 1064 694 q 1119 657 1099 679 q 1139 594 1139 635 l 1139 244 q 1071 54 1139 122 q 878 -14 1003 -14 q 728 27 786 -14 q 642 143 669 68 l 656 143 q 569 28 629 69 q 414 -14 508 -14 m 240 658 q 290 714 290 658 q 240 769 290 769 l 240 658 z "},"រ":{"ha":444,"x_min":94,"x_max":308,"o":"m 210 -8 q 124 21 154 -8 q 94 110 94 50 q 126 199 94 169 q 207 228 157 228 l 225 228 l 200 192 l 200 581 q 177 632 200 614 q 111 664 154 650 l 111 722 q 137 799 111 774 q 213 825 163 825 l 308 825 l 308 736 l 224 736 q 194 706 194 736 l 194 694 q 272 653 246 682 q 297 581 297 625 l 297 61 q 210 -8 297 -8 m 208 164 q 158 110 158 164 q 208 56 158 56 l 208 164 z "},"ល":{"ha":1286,"x_min":147,"x_max":1167,"o":"m 868 -14 q 668 58 739 -14 q 597 258 597 129 l 597 567 q 551 706 597 656 q 421 756 506 756 q 290 706 336 756 q 244 567 244 656 l 244 192 l 218 228 l 242 228 q 326 201 293 228 q 360 111 360 174 q 330 22 360 51 q 239 -8 300 -8 q 170 9 193 -8 q 147 61 147 26 l 147 567 q 219 767 147 696 q 421 839 290 839 q 624 767 553 839 q 694 567 694 696 l 694 258 q 740 119 694 169 q 868 69 786 69 q 996 119 950 69 q 1042 258 1042 169 l 1042 594 q 1026 639 1042 624 q 981 668 1010 654 l 981 722 q 1006 799 981 774 q 1082 825 1032 825 l 1167 825 l 1167 736 l 1093 736 q 1064 706 1064 736 l 1064 694 q 1119 657 1099 679 q 1139 594 1139 635 l 1139 258 q 1068 58 1139 129 q 868 -14 997 -14 m 240 56 q 290 111 290 56 q 240 167 290 167 l 240 56 z "},"វ":{"ha":450,"x_min":100,"x_max":350,"o":"m 215 -8 q 130 21 160 -8 q 100 110 100 50 q 131 199 100 169 q 213 228 163 228 l 231 228 l 206 192 l 206 575 q 194 614 206 600 q 160 637 182 628 q 106 654 138 646 l 106 731 q 199 825 106 825 l 213 825 l 288 778 l 269 775 l 269 881 l 350 881 l 350 776 q 336 735 350 754 q 289 715 322 715 l 269 715 l 217 743 l 211 743 q 189 718 189 743 l 189 692 q 272 651 240 678 q 303 575 303 624 l 303 61 q 215 -8 303 -8 m 214 164 q 164 110 164 164 q 214 56 164 56 l 214 164 z "},"ឝ":{"ha":867,"x_min":142,"x_max":822,"o":"m 147 367 q 222 572 147 499 q 433 644 297 644 q 644 572 569 644 q 719 367 719 499 l 719 0 l 622 0 l 622 367 q 573 510 622 460 q 433 561 524 561 q 294 510 344 561 q 244 367 244 460 l 244 164 l 228 164 q 281 271 239 225 q 411 317 324 317 l 433 317 l 433 239 l 411 239 q 328 221 360 239 q 278 174 297 203 q 244 114 258 146 l 244 0 l 147 0 l 147 367 m 142 736 l 142 825 l 725 825 l 725 736 l 142 736 m 500 239 l 500 317 l 822 317 l 822 239 l 500 239 z "},"ឞ":{"ha":867,"x_min":86,"x_max":825,"o":"m 432 -14 q 222 59 297 -14 q 147 264 147 132 l 147 594 q 131 639 147 624 q 86 668 115 654 l 86 722 q 112 799 86 774 q 188 825 138 825 l 272 825 l 272 736 l 199 736 q 169 706 169 736 l 169 694 q 224 657 204 679 q 244 594 244 635 l 244 264 q 294 121 244 172 q 432 69 343 69 q 571 121 521 69 q 621 264 621 172 l 621 594 q 605 639 621 624 q 560 668 589 654 l 560 722 q 585 799 560 774 q 661 825 611 825 l 746 825 l 746 736 l 672 736 q 643 706 643 736 l 643 694 q 698 657 678 679 q 718 594 718 635 l 718 264 q 643 59 718 132 q 432 -14 568 -14 m 463 385 l 463 463 l 825 463 l 825 385 l 463 385 z "},"ស":{"ha":1286,"x_min":147,"x_max":1167,"o":"m 868 -14 q 668 58 739 -14 q 597 258 597 129 l 597 383 q 551 515 597 468 q 421 563 506 563 q 290 515 336 563 q 244 383 244 468 l 244 192 l 218 228 l 242 228 q 326 201 293 228 q 360 111 360 174 q 330 22 360 51 q 239 -8 300 -8 q 170 9 193 -8 q 147 61 147 26 l 147 383 q 219 576 147 507 q 421 644 290 644 q 624 576 553 644 q 694 383 694 507 l 694 258 q 740 119 694 169 q 868 69 786 69 q 996 119 950 69 q 1042 258 1042 169 l 1042 594 q 1026 639 1042 624 q 981 668 1010 654 l 981 722 q 1006 799 981 774 q 1082 825 1032 825 l 1167 825 l 1167 736 l 1093 736 q 1064 706 1064 736 l 1064 694 q 1119 657 1099 679 q 1139 594 1139 635 l 1139 258 q 1068 58 1139 129 q 868 -14 997 -14 m 240 56 q 290 111 290 56 q 240 167 290 167 l 240 56 m 282 585 l 194 682 l 194 722 q 220 799 194 774 q 296 825 246 825 l 621 825 l 621 736 l 304 736 q 285 730 292 736 q 278 708 278 724 l 278 697 l 357 611 l 282 585 z "},"ហ":{"ha":1286,"x_min":86,"x_max":1139,"o":"m 418 -14 q 218 58 289 -14 q 147 258 147 129 l 147 594 q 131 639 147 624 q 86 668 115 654 l 86 722 q 112 799 86 774 q 188 825 138 825 l 272 825 l 272 736 l 199 736 q 169 706 169 736 l 169 694 q 224 657 204 679 q 244 594 244 635 l 244 258 q 290 119 244 169 q 418 69 336 69 q 546 119 500 69 q 592 258 592 169 l 592 567 q 663 767 592 696 q 865 839 735 839 q 1068 767 997 839 q 1139 567 1139 696 l 1139 0 l 1042 0 l 1042 567 q 996 706 1042 656 q 865 756 950 756 q 735 706 781 756 q 689 567 689 656 l 689 258 q 618 58 689 129 q 418 -14 547 -14 z "},"ឡ":{"ha":1136,"x_min":108,"x_max":1017,"o":"m 500 -358 l 500 -83 l 597 -83 l 597 -258 l 744 -140 l 892 -258 l 892 594 q 876 639 892 624 q 831 668 860 654 l 831 722 q 856 799 831 774 q 932 825 882 825 l 1017 825 l 1017 736 l 943 736 q 914 706 914 736 l 914 694 q 969 657 949 679 q 989 594 989 635 l 989 -358 l 892 -358 l 744 -239 l 597 -358 l 500 -358 m 507 285 q 358 307 429 289 q 230 360 286 325 q 141 449 174 394 q 108 583 108 504 q 188 772 108 704 q 397 839 267 839 q 544 810 483 839 q 637 734 604 782 q 669 625 669 686 q 663 576 669 599 q 647 539 656 554 l 549 539 q 563 581 556 558 q 571 625 571 604 q 524 719 571 682 q 399 756 478 756 q 260 710 313 756 q 208 578 208 665 q 292 419 208 468 q 526 357 375 371 l 507 285 m 382 -14 q 227 40 282 -14 q 172 192 172 94 l 172 256 l 267 256 l 267 192 q 297 99 267 132 q 382 67 326 67 q 467 99 438 67 q 497 192 497 132 l 497 389 q 519 442 497 425 q 582 458 540 458 q 660 431 635 458 q 686 357 686 404 q 656 283 686 307 q 582 258 625 258 l 568 258 l 592 294 l 592 190 q 537 40 592 93 q 382 -14 482 -14 m 581 317 q 622 357 622 317 q 581 397 622 397 l 581 317 z "},"អ":{"ha":897,"x_min":97,"x_max":761,"o":"m 663 -8 q 576 21 607 -8 q 544 110 544 50 q 576 199 544 169 q 660 228 608 228 l 678 228 l 653 192 l 653 581 q 633 632 653 614 q 578 664 614 650 l 578 722 q 603 799 578 774 q 679 825 629 825 l 761 825 l 761 736 l 690 736 q 661 706 661 736 l 661 694 q 728 653 706 682 q 750 581 750 625 l 750 61 q 728 9 750 26 q 663 -8 707 -8 m 214 164 q 164 110 164 164 q 214 56 164 56 l 214 164 m 215 -8 q 128 21 160 -8 q 97 110 97 50 q 129 199 97 169 q 213 228 161 228 l 231 228 l 206 192 l 206 581 q 186 632 206 614 q 131 664 167 650 l 131 722 q 156 799 131 774 q 232 825 182 825 l 314 825 l 314 736 l 243 736 q 214 706 214 736 l 214 694 q 281 653 258 682 q 303 581 303 625 l 303 61 q 281 9 303 26 q 215 -8 260 -8 m 661 164 q 611 110 611 164 q 661 56 611 56 l 661 164 m 238 385 l 238 463 l 706 463 l 706 385 l 238 385 z "},"ឥ":{"ha":867,"x_min":117,"x_max":725,"o":"m 622 367 q 573 510 622 458 q 433 561 524 561 q 294 510 344 561 q 244 367 244 458 l 244 192 l 218 228 l 242 228 q 326 201 293 228 q 360 111 360 174 q 330 22 360 51 q 239 -8 300 -8 q 170 9 193 -8 q 147 61 147 26 l 147 367 q 222 572 147 499 q 433 644 297 644 q 644 572 569 644 q 719 367 719 499 l 719 0 l 622 0 l 622 367 m 240 56 q 290 111 290 56 q 240 167 290 167 l 240 56 m 181 600 q 135 634 154 611 q 117 697 117 657 q 149 792 117 758 q 236 825 181 825 l 378 825 l 526 786 l 583 786 q 622 800 610 786 q 633 842 633 814 l 633 881 l 725 881 l 725 842 q 693 736 725 769 q 589 703 661 703 l 500 703 l 369 736 l 243 736 q 216 725 225 736 q 207 694 207 714 q 215 663 207 672 q 233 647 224 653 l 181 600 z "},"ឦ":{"ha":1214,"x_min":147,"x_max":1067,"o":"m 622 561 q 573 704 622 653 q 433 756 524 756 q 294 704 344 756 q 244 561 244 653 l 244 192 l 218 228 l 242 228 q 326 201 293 228 q 360 111 360 174 q 330 22 360 51 q 239 -8 300 -8 q 170 9 193 -8 q 147 61 147 26 l 147 561 q 222 766 147 693 q 433 839 297 839 q 644 766 569 839 q 719 561 719 693 l 719 0 l 622 0 l 622 561 m 240 56 q 290 111 290 56 q 240 167 290 167 l 240 56 m 274 -367 q 208 -353 231 -367 q 186 -308 186 -339 l 186 -233 q 212 -144 186 -181 q 292 -89 238 -108 q 433 -69 346 -69 q 575 -89 521 -69 q 655 -144 629 -108 q 681 -233 681 -181 l 681 -358 l 589 -358 l 589 -233 q 554 -170 589 -193 q 433 -147 519 -147 q 310 -170 344 -147 q 275 -233 275 -193 l 271 -206 l 281 -206 q 340 -225 321 -206 q 358 -285 358 -244 q 338 -346 358 -325 q 274 -367 318 -367 m 269 -322 q 297 -312 288 -322 q 306 -285 306 -303 q 297 -256 306 -265 q 269 -247 288 -247 l 269 -322 m 615 -358 l 615 -278 l 840 -278 q 935 -244 901 -278 q 969 -151 969 -211 l 969 831 q 935 925 969 892 q 839 958 901 958 l 625 958 l 625 1119 q 600 1144 625 1144 l 561 1144 l 561 1219 l 631 1219 q 697 1199 678 1219 q 717 1136 717 1179 l 717 1039 l 839 1039 q 1007 985 947 1039 q 1067 831 1067 932 l 1067 -151 q 1008 -304 1067 -250 q 840 -358 949 -358 l 615 -358 z "},"ឧ":{"ha":808,"x_min":119,"x_max":697,"o":"m 319 -14 q 177 38 226 -14 q 128 181 128 90 l 128 361 q 318 392 232 376 q 467 433 404 408 q 563 497 529 457 q 597 599 597 536 q 546 715 597 674 q 401 756 494 756 q 269 724 321 756 q 218 632 218 692 q 236 579 218 599 q 286 560 254 560 q 320 564 303 560 q 349 574 338 568 l 349 494 q 321 485 339 490 q 276 481 303 481 q 163 522 207 481 q 119 633 119 563 q 196 782 119 725 q 403 839 272 839 q 616 778 535 839 q 697 603 697 717 q 656 466 697 521 q 547 377 615 411 q 394 324 478 343 q 225 293 310 304 l 225 186 q 252 97 225 125 q 328 69 279 69 q 437 96 386 69 q 528 165 488 122 q 593 253 568 207 l 613 153 q 533 69 579 107 q 433 9 488 32 q 319 -14 378 -14 m 589 0 l 586 167 l 586 289 l 681 289 l 681 0 l 589 0 z "},"ឨ":{"ha":808,"x_min":117,"x_max":696,"o":"m 169 919 l 117 981 l 272 1097 l 279 1097 l 406 1019 l 532 1097 l 539 1097 l 694 981 l 642 919 l 532 1001 l 410 931 l 401 931 l 279 1001 l 169 919 m 318 -14 q 176 38 225 -14 q 126 181 126 90 l 126 361 q 317 392 231 376 q 465 433 403 408 q 562 497 528 457 q 596 599 596 536 q 544 715 596 674 q 400 756 493 756 q 268 724 319 756 q 217 632 217 692 q 235 579 217 599 q 285 560 253 560 q 319 564 301 560 q 347 574 336 568 l 347 494 q 319 485 338 490 q 275 481 301 481 q 162 522 206 481 q 118 633 118 563 q 194 782 118 725 q 401 839 271 839 q 615 778 533 839 q 696 603 696 717 q 655 466 696 521 q 545 377 614 411 q 392 324 476 343 q 224 293 308 304 l 224 186 q 251 97 224 125 q 326 69 278 69 q 435 96 385 69 q 526 165 486 122 q 592 253 567 207 l 611 153 q 532 69 578 107 q 431 9 486 32 q 318 -14 376 -14 m 588 0 l 585 167 l 585 289 l 679 289 l 679 0 l 588 0 z "},"ឩ":{"ha":808,"x_min":119,"x_max":744,"o":"m 281 -14 q 168 28 208 -14 q 128 156 128 71 l 128 361 q 318 392 232 376 q 467 433 404 408 q 563 497 529 457 q 597 599 597 536 q 546 715 597 674 q 401 756 494 756 q 269 724 321 756 q 218 632 218 692 q 236 579 218 599 q 286 560 254 560 q 320 564 303 560 q 349 574 338 568 l 349 494 q 321 485 339 490 q 276 481 303 481 q 163 522 207 481 q 119 633 119 563 q 196 782 119 725 q 403 839 272 839 q 616 778 535 839 q 697 603 697 717 q 656 466 697 521 q 547 377 615 411 q 394 324 478 343 q 225 293 310 304 l 225 161 q 244 90 225 114 q 303 67 264 67 q 388 94 349 67 q 459 163 428 121 q 510 253 490 206 l 528 157 q 464 72 501 111 q 381 10 426 33 q 281 -14 335 -14 m 507 0 l 503 167 l 503 289 l 592 289 l 592 0 l 507 0 m 672 0 l 672 289 l 744 289 l 744 0 l 672 0 z "},"ឪ":{"ha":808,"x_min":106,"x_max":697,"o":"m 171 878 q 126 917 147 892 q 106 986 106 942 q 140 1078 106 1049 q 235 1108 175 1108 l 321 1108 l 507 1028 l 531 1028 q 578 1044 565 1028 q 592 1090 592 1060 l 592 1167 l 683 1167 l 683 1086 q 648 980 683 1013 q 532 947 613 947 l 493 947 l 307 1028 l 242 1028 q 208 1016 219 1028 q 196 981 196 1004 q 207 947 196 958 q 232 928 218 935 l 171 878 m 319 -14 q 177 38 226 -14 q 128 181 128 90 l 128 361 q 318 392 232 376 q 467 433 404 408 q 563 497 529 457 q 597 599 597 536 q 546 715 597 674 q 401 756 494 756 q 269 724 321 756 q 218 632 218 692 q 236 579 218 599 q 286 560 254 560 q 320 564 303 560 q 349 574 338 568 l 349 494 q 321 485 339 490 q 276 481 303 481 q 163 522 207 481 q 119 633 119 563 q 196 782 119 725 q 403 839 272 839 q 616 778 535 839 q 697 603 697 717 q 656 466 697 521 q 547 377 615 411 q 394 324 478 343 q 225 293 310 304 l 225 186 q 252 97 225 125 q 328 69 279 69 q 437 96 386 69 q 528 165 488 122 q 593 253 568 207 l 613 153 q 533 69 579 107 q 433 9 488 32 q 319 -14 378 -14 m 589 0 l 586 167 l 586 289 l 681 289 l 681 0 l 589 0 z "},"ឫ":{"ha":864,"x_min":86,"x_max":744,"o":"m 436 -372 q 281 -347 354 -372 q 140 -271 208 -321 l 194 -192 q 307 -260 250 -235 q 436 -285 364 -285 q 572 -244 524 -285 q 619 -132 619 -204 l 619 -83 l 717 -83 l 717 -132 q 643 -309 717 -246 q 436 -372 569 -372 m 432 -14 q 222 59 297 -14 q 147 264 147 132 l 147 594 q 131 639 147 624 q 86 668 115 654 l 86 722 q 112 799 86 774 q 188 825 138 825 l 272 825 l 272 736 l 199 736 q 169 706 169 736 l 169 694 q 224 657 204 679 q 244 594 244 635 l 244 264 q 294 121 244 172 q 432 69 343 69 q 570 121 521 69 q 619 264 619 172 l 619 594 q 603 639 619 624 q 558 668 588 654 l 558 722 q 584 799 558 774 q 660 825 610 825 l 744 825 l 744 736 l 671 736 q 642 706 642 736 l 642 694 q 697 657 676 679 q 717 594 717 635 l 717 264 q 642 59 717 132 q 432 -14 568 -14 z "},"ឬ":{"ha":864,"x_min":86,"x_max":789,"o":"m 432 -372 q 279 -347 351 -372 q 140 -271 207 -321 l 194 -192 q 307 -260 250 -235 q 436 -285 364 -285 q 572 -241 524 -285 q 619 -118 619 -197 l 619 -83 l 717 -83 l 717 -110 q 683 -248 717 -189 q 586 -340 650 -307 q 432 -372 522 -372 m 683 -372 l 619 -269 l 678 -210 l 789 -367 l 789 -372 l 683 -372 m 432 -14 q 222 59 297 -14 q 147 264 147 132 l 147 594 q 131 639 147 624 q 86 668 115 654 l 86 722 q 112 799 86 774 q 188 825 138 825 l 272 825 l 272 736 l 199 736 q 169 706 169 736 l 169 694 q 224 657 204 679 q 244 594 244 635 l 244 264 q 294 121 244 172 q 432 69 343 69 q 570 121 521 69 q 619 264 619 172 l 619 594 q 603 639 619 624 q 558 668 588 654 l 558 722 q 584 799 558 774 q 660 825 610 825 l 744 825 l 744 736 l 671 736 q 642 706 642 736 l 642 694 q 697 657 676 679 q 717 594 717 635 l 717 264 q 642 59 717 132 q 432 -14 568 -14 z "},"ឭ":{"ha":867,"x_min":143,"x_max":719,"o":"m 439 -372 q 284 -347 357 -372 q 143 -271 211 -321 l 197 -192 q 310 -260 253 -235 q 439 -285 367 -285 q 574 -244 526 -285 q 622 -132 622 -204 l 622 -83 l 719 -83 l 719 -132 q 646 -309 719 -246 q 439 -372 572 -372 m 622 0 l 622 654 l 553 725 l 438 624 l 429 624 l 314 725 l 244 654 l 244 192 l 218 228 l 242 228 q 326 201 293 228 q 360 111 360 174 q 330 22 360 51 q 239 -8 300 -8 q 170 9 193 -8 q 147 61 147 26 l 147 676 l 304 839 l 310 839 l 433 725 l 557 839 l 563 839 l 719 676 l 719 0 l 622 0 m 240 56 q 290 111 290 56 q 240 167 290 167 l 240 56 z "},"ឮ":{"ha":867,"x_min":143,"x_max":792,"o":"m 435 -372 q 282 -347 354 -372 q 143 -271 210 -321 l 197 -192 q 310 -260 253 -235 q 439 -285 367 -285 q 574 -241 526 -285 q 622 -118 622 -197 l 622 -83 l 719 -83 l 719 -110 q 686 -248 719 -189 q 589 -340 653 -307 q 435 -372 525 -372 m 686 -372 l 622 -269 l 681 -210 l 792 -367 l 792 -372 l 686 -372 m 622 0 l 622 654 l 553 725 l 438 624 l 429 624 l 314 725 l 244 654 l 244 192 l 218 228 l 242 228 q 326 201 293 228 q 360 111 360 174 q 330 22 360 51 q 239 -8 300 -8 q 170 9 193 -8 q 147 61 147 26 l 147 676 l 304 839 l 310 839 l 433 725 l 557 839 l 563 839 l 719 676 l 719 0 l 622 0 m 240 56 q 290 111 290 56 q 240 167 290 167 l 240 56 z "},"ឯ":{"ha":839,"x_min":75,"x_max":711,"o":"m 147 0 l 147 358 l 83 358 l 83 436 l 244 436 l 244 115 l 429 286 l 614 115 l 614 582 q 569 686 614 644 q 447 728 525 728 q 317 686 369 728 q 239 575 265 644 l 147 575 l 147 814 q 122 839 147 839 l 75 839 l 75 917 l 149 917 q 219 894 197 917 q 242 822 242 871 l 242 663 l 222 663 q 315 769 254 726 q 464 811 375 811 q 644 751 576 811 q 711 589 711 690 l 711 0 l 614 0 l 429 175 l 244 0 l 147 0 z "},"ឰ":{"ha":867,"x_min":147,"x_max":719,"o":"m 347 -364 q 244 -328 281 -364 q 208 -229 208 -293 q 236 -133 208 -165 q 301 -90 264 -101 q 365 -75 339 -78 l 622 -46 l 622 654 l 553 725 l 438 624 l 429 624 l 314 725 l 244 654 l 244 192 l 218 228 l 242 228 q 326 201 293 228 q 360 111 360 174 q 330 22 360 51 q 239 -8 300 -8 q 170 9 193 -8 q 147 61 147 26 l 147 676 l 304 839 l 310 839 l 433 725 l 557 839 l 563 839 l 719 676 l 719 -222 q 686 -319 719 -286 q 585 -351 653 -351 l 556 -351 l 467 -286 l 383 -364 l 347 -364 m 240 56 q 290 111 290 56 q 240 167 290 167 l 240 56 m 357 -289 l 374 -289 l 458 -214 l 467 -214 l 560 -276 l 572 -276 q 613 -262 600 -276 q 625 -217 625 -247 l 625 -118 l 388 -144 q 322 -171 342 -150 q 303 -225 303 -192 q 317 -273 303 -257 q 357 -289 331 -289 z "},"ឱ":{"ha":808,"x_min":106,"x_max":697,"o":"m 169 878 q 126 917 147 892 q 106 985 106 942 q 154 1088 106 1050 q 303 1125 203 1125 q 435 1108 374 1125 q 544 1065 496 1090 q 626 1016 592 1040 q 676 976 660 992 l 632 906 q 560 959 608 926 q 447 1018 513 992 q 303 1044 381 1044 q 217 1025 239 1044 q 196 981 196 1006 q 207 947 196 960 q 232 928 218 935 l 169 878 m 319 -14 q 177 38 226 -14 q 128 181 128 90 l 128 361 q 318 392 232 376 q 467 433 404 408 q 563 497 529 457 q 597 599 597 536 q 546 715 597 674 q 401 756 494 756 q 269 724 321 756 q 218 632 218 692 q 236 579 218 599 q 286 560 254 560 q 320 564 303 560 q 349 574 338 568 l 349 494 q 321 485 339 490 q 276 481 303 481 q 163 522 207 481 q 119 633 119 563 q 196 782 119 725 q 403 839 272 839 q 616 778 535 839 q 697 603 697 717 q 656 466 697 521 q 547 377 615 411 q 394 324 478 343 q 225 293 310 304 l 225 186 q 252 97 225 125 q 328 69 279 69 q 437 96 386 69 q 528 165 488 122 q 593 253 568 207 l 613 153 q 533 69 579 107 q 433 9 488 32 q 319 -14 378 -14 m 589 0 l 586 167 l 586 289 l 681 289 l 681 0 l 589 0 z "},"ឲ":{"ha":824,"x_min":147,"x_max":715,"o":"m 438 -14 q 223 49 299 -14 q 147 224 147 111 l 147 625 q 224 826 147 757 q 435 894 300 894 q 574 870 515 894 q 671 801 632 846 l 611 736 q 531 794 572 776 q 436 811 489 811 q 333 790 376 811 q 267 727 290 768 q 244 625 244 686 l 244 224 q 294 110 244 151 q 440 69 344 69 q 574 103 526 69 q 621 201 621 138 q 614 241 621 224 q 592 271 607 258 q 551 290 576 283 q 489 297 525 297 l 475 297 l 457 361 q 574 401 531 376 q 618 475 618 426 q 600 524 618 507 q 538 540 582 540 l 449 540 l 449 621 l 543 621 q 671 586 632 621 q 710 490 710 551 q 681 401 710 436 q 610 349 653 365 q 521 332 567 332 l 513 353 q 663 312 611 350 q 715 193 715 274 q 644 43 715 100 q 438 -14 574 -14 z "},"ឳ":{"ha":808,"x_min":106,"x_max":697,"o":"m 171 878 q 126 917 147 892 q 106 986 106 942 q 140 1076 106 1044 q 235 1108 175 1108 l 342 1108 l 551 1010 l 551 1092 q 569 1149 551 1131 q 622 1167 586 1167 l 694 1167 l 694 1092 l 660 1092 q 638 1069 638 1092 l 638 931 l 554 931 l 342 1028 l 242 1028 q 208 1014 219 1028 q 196 981 196 1000 q 207 947 196 958 q 232 928 218 935 l 171 878 m 319 -14 q 177 38 226 -14 q 128 181 128 90 l 128 361 q 318 392 232 376 q 467 433 404 408 q 563 497 529 457 q 597 599 597 536 q 546 715 597 674 q 401 756 494 756 q 269 724 321 756 q 218 632 218 692 q 236 579 218 599 q 286 560 254 560 q 320 564 303 560 q 349 574 338 568 l 349 494 q 321 485 339 490 q 276 481 303 481 q 163 522 207 481 q 119 633 119 563 q 196 782 119 725 q 403 839 272 839 q 616 778 535 839 q 697 603 697 717 q 656 466 697 521 q 547 377 615 411 q 394 324 478 343 q 225 293 310 304 l 225 186 q 252 97 225 125 q 328 69 279 69 q 437 96 386 69 q 528 165 488 122 q 593 253 568 207 l 613 153 q 533 69 579 107 q 433 9 488 32 q 319 -14 378 -14 m 589 0 l 586 167 l 586 289 l 681 289 l 681 0 l 589 0 z "},"ា":{"ha":453,"x_min":-156,"x_max":297,"o":"m 200 617 q 90 736 200 736 l -156 736 l -156 825 l 90 825 q 297 617 297 825 l 297 0 l 200 0 l 200 617 z "},"ឿ":{"ha":392,"x_min":-375,"x_max":244,"o":"m 0 -372 q -177 -315 -110 -372 q -244 -165 -244 -258 l -244 -83 l -147 -83 l -147 -165 q -107 -257 -147 -222 q 0 -292 -67 -292 q 107 -257 67 -292 q 147 -165 147 -222 l 147 808 q 128 892 147 868 q 83 931 108 917 l -225 931 q -336 963 -297 931 q -375 1050 -375 994 q -329 1153 -375 1114 q -206 1192 -283 1192 q -87 1167 -140 1192 q 6 1108 -33 1143 q 64 1040 44 1072 l 67 1040 l 67 1219 l 147 1219 l 147 990 q 219 922 193 963 q 244 814 244 882 l 244 -165 q 178 -315 244 -258 q 0 -372 111 -372 m 11 1000 q -28 1047 -6 1025 q -76 1083 -50 1068 q -131 1108 -101 1099 q -192 1117 -160 1117 q -259 1099 -235 1117 q -283 1051 -283 1082 q -267 1015 -283 1029 q -222 1000 -251 1000 l 11 1000 m -17 1106 l -97 1133 l -97 1250 l -17 1250 l -17 1106 z "},"ៀ":{"ha":392,"x_min":-289,"x_max":244,"o":"m 0 -372 q -177 -315 -110 -372 q -244 -165 -244 -258 l -244 -83 l -147 -83 l -147 -165 q -107 -257 -147 -222 q 0 -292 -67 -292 q 107 -257 67 -292 q 147 -165 147 -222 l 147 831 q 113 925 147 892 q 17 958 79 958 l -225 958 l -225 1119 q -250 1144 -225 1144 l -289 1144 l -289 1219 l -219 1219 q -153 1199 -172 1219 q -133 1136 -133 1179 l -133 1039 l 17 1039 q 185 985 125 1039 q 244 831 244 932 l 244 -165 q 178 -315 244 -258 q 0 -372 111 -372 z "},"េ":{"ha":428,"x_min":108,"x_max":361,"o":"m 242 -8 q 173 9 196 -8 q 150 61 150 26 l 150 594 q 139 640 150 624 q 108 671 128 657 l 108 722 q 134 799 108 774 q 210 825 160 825 l 303 825 l 303 736 l 221 736 q 192 706 192 736 l 192 694 q 232 657 217 679 q 247 594 247 635 l 247 206 l 222 244 l 243 244 q 328 215 296 244 q 361 118 361 185 q 242 -8 361 -8 m 243 56 q 293 118 293 56 q 243 181 293 181 l 243 56 z "},"ែ":{"ha":428,"x_min":74,"x_max":361,"o":"m 206 917 q 110 946 146 917 q 74 1022 74 975 q 81 1069 74 1046 l 164 1069 q 157 1033 157 1051 q 169 1003 157 1015 q 203 992 182 992 q 250 1014 233 992 q 267 1076 267 1036 q 244 1147 267 1122 q 171 1172 221 1172 l 90 1172 l 90 1250 l 171 1250 q 307 1206 261 1250 q 353 1078 353 1163 q 313 959 353 1001 q 206 917 274 917 m 242 -8 q 173 9 196 -8 q 150 61 150 26 l 150 594 q 139 640 150 624 q 108 671 128 657 l 108 722 q 134 799 108 774 q 210 825 160 825 l 303 825 l 303 736 l 221 736 q 192 706 192 736 l 192 694 q 232 657 217 679 q 247 594 247 635 l 247 206 l 222 244 l 243 244 q 328 215 296 244 q 361 118 361 185 q 242 -8 361 -8 m 243 56 q 293 118 293 56 q 243 181 293 181 l 243 56 z "},"ៃ":{"ha":428,"x_min":65,"x_max":361,"o":"m 214 917 q 121 942 157 917 q 85 1015 85 968 q 87 1035 85 1026 q 90 1051 89 1044 l 174 1051 q 171 1041 172 1047 q 169 1029 169 1035 q 183 1000 169 1011 q 215 989 196 989 q 256 1007 242 989 q 269 1056 269 1025 q 249 1105 269 1088 q 183 1122 228 1122 l 93 1122 l 65 1264 l 150 1264 l 163 1194 l 193 1194 q 310 1160 267 1194 q 353 1056 353 1125 q 317 952 353 988 q 214 917 281 917 m 242 -8 q 173 9 196 -8 q 150 61 150 26 l 150 594 q 139 640 150 624 q 108 671 128 657 l 108 722 q 134 799 108 774 q 210 825 160 825 l 303 825 l 303 736 l 221 736 q 192 706 192 736 l 192 694 q 232 657 217 679 q 247 594 247 635 l 247 206 l 222 244 l 243 244 q 328 215 296 244 q 361 118 361 185 q 242 -8 361 -8 m 243 56 q 293 118 293 56 q 243 181 293 181 l 243 56 z "},"ោ":{"ha":453,"x_min":-156,"x_max":297,"o":"m 200 617 q 90 736 200 736 l -156 736 l -156 825 l 90 825 q 297 617 297 825 l 297 0 l 200 0 l 200 617 z "},"ៅ":{"ha":453,"x_min":-156,"x_max":297,"o":"m 206 728 l 206 1003 q 172 1036 206 1036 l 122 1036 l 122 1117 l 200 1117 q 273 1092 249 1117 q 297 1019 297 1068 l 297 839 q 288 797 297 819 q 260 756 278 775 q 219 728 243 738 l 206 728 m 200 617 q 90 736 200 736 l -156 736 l -156 825 l 90 825 q 297 617 297 825 l 297 0 l 200 0 l 200 617 z "},"ះ":{"ha":447,"x_min":89,"x_max":358,"o":"m 224 558 q 127 595 165 558 q 89 692 89 632 q 127 789 89 753 q 224 825 165 825 q 320 789 282 825 q 358 692 358 753 q 320 595 358 632 q 224 558 282 558 m 224 628 q 265 645 250 628 q 281 692 281 663 q 265 738 281 721 q 224 756 250 756 q 182 738 197 756 q 167 692 167 721 q 182 645 167 663 q 224 628 197 628 m 224 0 q 127 37 165 0 q 89 133 89 74 q 127 231 89 194 q 224 267 165 267 q 320 231 282 267 q 358 133 358 194 q 320 37 358 74 q 224 0 282 0 m 224 69 q 265 87 250 69 q 281 133 281 104 q 265 180 281 163 q 224 197 250 197 q 182 180 197 197 q 167 133 167 163 q 182 87 167 104 q 224 69 197 69 z "},"ៈ":{"ha":300,"x_min":75,"x_max":233,"o":"m 154 614 q 97 635 119 614 q 75 692 75 657 q 97 749 75 728 q 154 769 119 769 q 211 749 189 769 q 233 692 233 728 q 211 635 233 657 q 154 614 189 614 m 154 56 q 97 77 119 56 q 75 133 75 99 q 97 190 75 169 q 154 211 119 211 q 211 190 189 211 q 233 133 233 169 q 211 77 233 99 q 154 56 189 56 z "},"ៜ":{"ha":728,"x_min":114,"x_max":622,"o":"m 365 -14 q 238 8 296 -14 q 147 71 181 29 q 114 172 114 113 q 124 235 114 204 q 153 293 135 267 l 236 254 q 214 212 221 233 q 207 174 207 190 q 253 94 207 122 q 365 67 299 67 q 455 84 418 67 q 511 132 492 101 q 531 201 531 163 q 501 283 531 254 q 424 326 471 311 q 325 353 378 342 q 226 385 272 365 q 149 442 179 404 q 119 544 119 479 q 179 680 119 632 q 346 728 239 728 l 583 728 l 583 647 l 346 647 q 247 621 282 647 q 211 550 211 594 q 241 482 211 506 q 317 444 271 458 q 417 417 364 431 q 516 381 469 404 q 592 317 563 358 q 622 206 622 276 q 592 90 622 140 q 504 13 561 40 q 365 -14 447 -14 z "},"⁰":{"ha":533,"x_min":50,"x_max":483,"o":"m 267 454 q 105 526 160 454 q 50 738 50 599 q 105 949 50 876 q 267 1021 160 1021 q 428 949 374 1021 q 483 738 483 876 q 428 526 483 599 q 267 454 374 454 m 267 526 q 365 580 332 526 q 397 738 397 633 q 365 895 397 842 q 267 949 332 949 q 169 895 201 949 q 136 738 136 842 q 169 580 136 633 q 267 526 201 526 z "},"¹":{"ha":318,"x_min":15,"x_max":242,"o":"m 167 1014 l 242 1014 l 242 463 l 156 463 l 156 821 q 156 870 156 844 q 158 921 157 896 q 92 869 129 892 q 15 836 56 846 l 15 913 q 70 933 40 918 q 126 970 100 949 q 167 1014 153 992 z "},"²":{"ha":490,"x_min":42,"x_max":449,"o":"m 56 463 l 56 524 q 122 574 88 547 q 182 622 156 600 q 281 713 246 675 q 330 780 315 750 q 344 842 344 810 q 317 918 344 888 q 238 949 289 949 q 154 913 186 949 q 121 815 122 878 l 42 843 q 101 974 47 926 q 242 1021 154 1021 q 349 997 306 1021 q 414 933 392 972 q 436 846 436 893 q 415 764 436 806 q 352 679 394 722 q 247 589 310 636 q 210 563 233 578 q 168 532 188 547 l 168 531 q 208 533 181 532 q 249 535 235 535 l 449 535 l 449 463 l 56 463 z "},"³":{"ha":483,"x_min":33,"x_max":433,"o":"m 239 1021 q 374 979 326 1021 q 421 871 421 938 q 386 777 421 810 q 315 740 351 744 l 315 739 q 396 705 358 738 q 433 611 433 672 q 378 497 433 540 q 236 454 322 454 q 104 488 156 454 q 33 586 53 521 l 115 625 q 154 552 125 576 q 235 528 183 528 q 313 553 283 528 q 343 622 343 579 q 311 688 343 669 q 226 707 279 707 q 216 707 221 707 q 204 706 211 707 l 204 771 q 215 769 210 769 q 222 769 221 769 q 301 792 274 769 q 329 858 329 815 q 304 926 329 903 q 235 949 279 949 q 165 926 193 949 q 131 863 138 904 l 49 892 q 118 989 67 957 q 239 1021 169 1021 z "},"⁴":{"ha":482,"x_min":15,"x_max":453,"o":"m 453 667 l 453 604 l 357 604 l 357 463 l 282 463 l 282 604 l 15 604 l 15 651 l 260 1014 l 357 1014 l 357 667 l 453 667 m 100 667 l 282 667 l 282 842 q 283 888 282 863 q 286 940 285 913 l 282 940 q 262 903 275 926 q 239 867 249 881 l 100 667 z "},"⁵":{"ha":485,"x_min":40,"x_max":442,"o":"m 268 817 q 394 769 347 817 q 442 646 442 721 q 415 543 442 586 q 344 478 389 500 q 243 456 300 456 q 119 484 169 456 q 40 576 68 513 l 117 621 q 158 553 128 578 q 240 529 188 529 q 324 560 292 529 q 357 642 357 590 q 328 722 357 694 q 244 750 300 750 q 172 736 200 750 q 129 694 144 722 l 61 707 l 89 1014 l 415 1014 l 415 942 l 153 942 l 142 806 q 139 783 140 792 q 136 767 138 774 l 138 767 q 183 803 153 789 q 268 817 213 817 z "},"⁶":{"ha":506,"x_min":50,"x_max":460,"o":"m 265 454 q 106 527 161 454 q 50 738 50 600 q 80 895 50 832 q 160 990 110 958 q 275 1021 211 1021 q 385 994 342 1021 q 450 908 428 967 l 378 871 q 343 927 368 906 q 275 949 318 949 q 194 919 226 949 q 146 843 161 890 q 131 743 131 796 q 131 731 131 736 q 132 718 131 725 l 133 718 q 192 783 157 763 q 278 804 228 804 q 410 757 360 804 q 460 631 460 710 q 407 501 460 549 q 265 454 354 454 m 267 525 q 348 553 318 525 q 378 631 378 581 q 348 708 378 679 q 267 736 318 736 q 208 721 233 736 q 168 681 182 706 q 154 631 154 657 q 185 554 154 583 q 267 525 217 525 z "},"⁷":{"ha":419,"x_min":7,"x_max":410,"o":"m 140 463 q 184 715 140 594 q 324 942 228 836 l 7 942 l 7 1014 l 410 1014 l 410 942 q 269 720 313 835 q 226 463 226 606 l 140 463 z "},"⁸":{"ha":515,"x_min":50,"x_max":464,"o":"m 257 1019 q 394 980 343 1019 q 444 872 444 940 q 419 797 444 829 q 350 749 394 764 l 350 747 q 432 699 400 733 q 464 611 464 665 q 408 497 464 539 q 257 454 351 454 q 107 497 164 454 q 50 611 50 539 q 82 699 50 664 q 164 747 114 733 l 164 749 q 94 796 119 763 q 69 872 69 829 q 121 980 69 940 q 257 1019 172 1019 m 257 953 q 182 930 210 953 q 154 868 154 907 q 183 805 154 829 q 257 781 211 781 q 331 805 303 781 q 358 868 358 829 q 331 930 358 907 q 257 953 304 953 m 257 522 q 344 548 311 522 q 376 617 376 574 q 344 687 376 661 q 257 713 311 713 q 171 687 204 713 q 138 617 138 661 q 171 548 138 574 q 257 522 204 522 z "},"⁹":{"ha":511,"x_min":50,"x_max":461,"o":"m 246 1021 q 404 947 347 1021 q 461 736 461 872 q 403 526 461 597 q 244 454 344 454 q 122 484 172 454 q 51 574 72 514 l 132 608 q 168 547 143 569 q 244 525 193 525 q 310 543 283 525 q 354 592 338 561 q 376 665 371 624 q 378 753 382 707 l 376 753 q 349 711 371 731 q 299 680 328 692 q 239 668 269 668 q 100 715 150 668 q 50 842 50 761 q 103 972 50 924 q 246 1021 156 1021 m 247 949 q 165 920 196 949 q 135 843 135 892 q 165 766 135 794 q 246 738 194 738 q 305 752 279 738 q 345 790 331 767 q 360 843 360 814 q 328 919 360 890 q 247 949 296 949 z "},"⁄":{"ha":311,"x_min":-211,"x_max":524,"o":"m -211 0 l 425 917 l 524 917 l -114 0 l -211 0 z "},"½":{"ha":1119,"x_min":15,"x_max":1078,"o":"m 167 924 l 242 924 l 242 372 l 156 372 l 156 731 q 156 780 156 754 q 158 831 157 806 q 92 778 129 801 q 15 746 56 756 l 15 822 q 70 843 40 828 q 126 880 100 858 q 167 924 153 901 m 107 0 l 743 917 l 842 917 l 204 0 l 107 0 m 685 -6 l 685 56 q 751 106 717 79 q 811 154 785 132 q 910 244 875 207 q 959 312 944 282 q 974 374 974 342 q 946 450 974 419 q 867 481 918 481 q 783 445 815 481 q 750 347 751 410 l 671 375 q 730 506 676 458 q 871 553 783 553 q 978 528 935 553 q 1043 465 1021 504 q 1065 378 1065 425 q 1044 296 1065 338 q 981 211 1024 254 q 876 121 939 168 q 840 94 863 110 q 797 64 817 79 l 797 63 q 837 65 810 64 q 878 67 864 67 l 1078 67 l 1078 -6 l 685 -6 z "},"¼":{"ha":1028,"x_min":15,"x_max":999,"o":"m 167 924 l 242 924 l 242 372 l 156 372 l 156 731 q 156 780 156 754 q 158 831 157 806 q 92 778 129 801 q 15 746 56 756 l 15 822 q 70 843 40 828 q 126 880 100 858 q 167 924 153 901 m 107 0 l 743 917 l 842 917 l 204 0 l 107 0 m 999 199 l 999 136 l 903 136 l 903 -6 l 828 -6 l 828 136 l 561 136 l 561 183 l 806 546 l 903 546 l 903 199 l 999 199 m 646 199 l 828 199 l 828 374 q 829 419 828 394 q 832 472 831 444 l 828 472 q 808 435 821 458 q 785 399 794 413 l 646 199 z "},"¾":{"ha":1193,"x_min":33,"x_max":1164,"o":"m 239 931 q 374 889 326 931 q 421 781 421 847 q 386 687 421 719 q 315 650 351 654 l 315 649 q 396 615 358 647 q 433 521 433 582 q 378 407 433 450 q 236 364 322 364 q 104 397 156 364 q 33 496 53 431 l 115 535 q 154 462 125 486 q 235 438 183 438 q 313 463 283 438 q 343 532 343 489 q 311 598 343 579 q 226 617 279 617 q 216 617 221 617 q 204 615 211 617 l 204 681 q 215 679 210 679 q 222 679 221 679 q 301 702 274 679 q 329 768 329 725 q 304 835 329 813 q 235 858 279 858 q 165 836 193 858 q 131 772 138 814 l 49 801 q 118 899 67 867 q 239 931 169 931 m 272 0 l 908 917 l 1007 917 l 369 0 l 272 0 m 1164 199 l 1164 136 l 1068 136 l 1068 -6 l 993 -6 l 993 136 l 726 136 l 726 183 l 971 546 l 1068 546 l 1068 199 l 1164 199 m 811 199 l 993 199 l 993 374 q 994 419 993 394 q 997 472 996 444 l 993 472 q 973 435 986 458 q 950 399 960 413 l 811 199 z "},"០":{"ha":833,"x_min":117,"x_max":717,"o":"m 417 -14 q 195 96 274 -14 q 117 403 117 206 l 117 422 q 195 730 117 621 q 417 839 274 839 q 638 730 560 839 q 717 422 717 621 l 717 403 q 638 96 717 206 q 417 -14 560 -14 m 417 72 q 524 111 479 72 q 591 224 568 150 q 614 403 614 299 l 614 422 q 591 601 614 528 q 524 714 568 675 q 417 753 479 753 q 310 714 354 753 q 243 601 267 675 q 219 422 219 528 l 219 403 q 243 224 219 299 q 310 111 267 150 q 417 72 354 72 z "},"១":{"ha":847,"x_min":111,"x_max":731,"o":"m 403 -14 q 236 26 306 -14 q 136 133 167 65 l 213 190 q 283 106 233 139 q 403 72 332 72 q 569 155 510 72 q 628 401 628 238 l 628 424 q 601 603 628 531 q 522 715 574 676 q 397 753 471 753 q 262 704 313 753 q 211 574 211 656 q 238 474 211 510 q 313 438 265 438 q 360 456 343 438 q 383 510 378 475 l 474 510 q 423 395 465 433 q 308 357 381 357 q 167 413 222 357 q 111 574 111 468 q 147 713 111 654 q 249 806 183 772 q 400 839 314 839 q 642 733 553 839 q 731 424 731 626 l 731 401 q 644 92 731 197 q 403 -14 558 -14 z "},"២":{"ha":981,"x_min":56,"x_max":833,"o":"m 490 -14 q 226 55 306 -14 q 147 247 147 124 l 147 796 q 110 836 147 836 l 56 836 l 56 917 l 135 917 q 216 888 188 917 q 244 807 244 860 l 244 247 q 299 117 244 164 q 490 69 353 69 q 682 117 628 69 q 736 247 736 164 l 736 681 l 686 736 l 607 664 l 599 664 l 519 736 l 469 681 l 469 503 l 443 536 l 467 536 q 539 513 508 536 q 569 432 569 489 q 542 352 569 379 q 464 325 515 325 q 395 341 418 325 q 372 392 372 357 l 372 699 l 508 839 l 514 839 l 603 756 l 692 839 l 697 839 l 833 699 l 833 247 q 754 55 833 124 q 490 -14 675 -14 m 458 386 q 506 432 506 386 q 458 478 506 478 l 458 386 z "},"៣":{"ha":1231,"x_min":147,"x_max":1083,"o":"m 239 -8 q 170 9 193 -8 q 147 61 147 26 l 147 581 q 213 772 147 704 q 397 839 279 839 q 539 803 479 839 q 629 685 599 767 l 601 685 q 692 803 633 767 q 833 839 751 839 q 1018 772 953 839 q 1083 581 1083 704 l 1083 0 l 986 0 l 986 581 q 944 710 986 664 q 825 756 903 756 q 706 710 749 756 q 664 581 664 664 l 664 0 l 567 0 l 567 581 q 525 710 567 664 q 406 756 483 756 q 287 710 329 756 q 244 581 244 664 l 244 192 l 218 228 l 242 228 q 325 201 292 228 q 358 111 358 174 q 328 22 358 51 q 239 -8 299 -8 m 240 56 q 290 111 290 56 q 240 167 290 167 l 240 56 z "},"៤":{"ha":847,"x_min":131,"x_max":733,"o":"m 347 0 q 188 51 244 0 q 131 194 131 101 l 131 443 q 199 660 131 588 q 406 757 267 732 l 497 774 q 569 800 544 782 q 599 847 594 818 q 588 917 603 876 l 676 917 q 684 808 697 853 q 627 734 671 763 q 514 692 583 706 l 425 675 q 307 635 350 661 q 246 564 264 610 q 228 443 228 518 l 228 194 q 260 110 228 139 q 347 81 292 81 l 663 81 l 646 71 q 565 126 597 86 q 533 228 533 165 l 533 406 q 556 460 533 443 q 628 478 578 478 q 704 449 675 478 q 733 365 733 421 q 703 281 733 307 q 624 256 672 256 l 607 256 l 625 294 l 625 218 q 636 155 625 179 q 668 114 647 131 q 717 81 689 97 l 717 0 l 347 0 m 622 317 q 669 365 669 317 q 622 414 669 414 l 622 317 z "},"៥":{"ha":853,"x_min":131,"x_max":733,"o":"m 347 0 q 188 51 244 0 q 131 194 131 101 l 131 471 q 168 592 131 544 q 286 660 206 640 l 286 632 q 242 669 258 644 q 225 728 225 693 q 259 808 225 776 q 343 839 293 839 q 430 806 396 839 q 464 725 464 774 q 449 677 464 703 q 408 636 433 651 l 414 656 q 456 636 433 642 q 497 631 478 631 q 575 656 546 631 q 617 724 604 682 q 626 817 629 767 q 608 917 624 867 l 704 917 q 717 788 722 851 q 685 674 713 725 q 610 592 658 622 q 492 561 561 561 q 413 574 444 561 q 353 607 382 588 l 349 607 q 256 565 283 596 q 228 471 228 535 l 228 194 q 260 110 228 139 q 347 81 292 81 l 663 81 l 646 71 q 565 126 597 86 q 533 228 533 165 l 533 386 q 621 458 533 458 q 704 430 675 458 q 733 346 733 401 q 703 262 733 288 q 624 236 672 236 l 607 236 l 625 275 l 625 218 q 636 155 625 179 q 668 114 647 131 q 717 81 689 97 l 717 0 l 347 0 m 344 672 q 378 686 364 672 q 392 722 392 700 q 378 758 392 744 q 344 772 364 772 q 311 758 325 772 q 297 722 297 744 q 311 686 297 700 q 344 672 325 672 m 622 297 q 669 346 669 297 q 622 394 669 394 l 622 297 z "},"៦":{"ha":856,"x_min":64,"x_max":739,"o":"m 408 -14 q 257 18 322 -14 q 156 108 192 50 q 119 243 119 167 q 175 403 119 346 q 317 460 231 460 q 400 442 365 460 q 456 392 435 425 q 482 307 476 358 l 392 307 q 369 361 386 343 q 319 379 351 379 q 247 342 275 379 q 219 244 219 306 q 272 118 219 164 q 406 72 325 72 q 531 110 479 72 q 609 222 582 149 q 636 401 636 296 l 636 424 q 584 671 636 589 q 425 753 532 753 q 287 708 340 753 q 211 607 233 663 l 128 607 l 128 813 q 101 839 128 839 l 64 839 l 64 917 l 124 917 q 197 893 172 917 q 222 821 222 869 l 222 672 l 190 685 q 250 777 213 743 q 335 825 288 811 q 435 839 383 839 q 663 733 588 839 q 739 424 739 626 l 739 401 q 699 174 739 267 q 585 34 658 82 q 408 -14 511 -14 z "},"៧":{"ha":1042,"x_min":147,"x_max":894,"o":"m 239 -8 q 170 9 193 -8 q 147 61 147 26 l 147 676 l 299 839 l 304 839 l 407 739 l 510 839 l 515 839 l 667 676 l 667 140 q 683 85 667 104 q 732 67 700 67 q 781 85 764 67 q 797 140 797 104 l 797 796 q 760 836 797 836 l 710 836 l 710 917 l 785 917 q 866 888 838 917 q 894 807 894 860 l 894 140 q 854 28 894 65 q 732 -8 814 -8 q 610 28 651 -8 q 569 140 569 65 l 569 654 l 506 725 l 411 639 l 403 639 l 308 725 l 244 654 l 244 192 l 218 228 l 242 228 q 325 201 292 228 q 358 111 358 174 q 328 22 358 51 q 239 -8 299 -8 m 240 56 q 290 111 290 56 q 240 167 290 167 l 240 56 z "},"៨":{"ha":856,"x_min":147,"x_max":753,"o":"m 147 0 l 147 576 q 217 767 147 696 q 410 839 288 839 q 495 827 454 839 q 570 788 536 815 q 626 713 604 761 l 594 700 l 594 821 q 619 893 594 869 q 693 917 644 917 l 753 917 l 753 839 l 715 839 q 695 833 701 839 q 689 813 689 828 l 689 635 l 606 635 q 536 722 582 690 q 421 753 490 753 q 290 705 336 753 q 244 576 244 657 l 244 0 l 147 0 m 574 -8 q 488 10 524 -8 q 426 55 453 28 q 380 109 400 82 q 340 154 360 136 q 299 172 321 172 q 264 160 282 172 q 226 125 246 149 l 218 181 q 265 236 242 221 q 315 251 289 251 q 374 233 349 251 q 422 189 400 215 q 465 135 443 163 q 510 90 486 108 q 564 72 533 72 q 608 94 594 72 q 622 156 622 115 l 622 318 l 649 282 l 625 282 q 546 308 578 282 q 514 393 514 333 q 545 478 514 450 q 632 507 576 507 q 719 438 719 507 l 719 158 q 681 33 719 75 q 574 -8 643 -8 m 628 343 l 628 443 q 578 393 578 443 q 628 343 578 343 z "},"៩":{"ha":803,"x_min":114,"x_max":706,"o":"m 421 -14 q 197 53 279 -14 q 114 246 114 121 q 161 395 114 336 q 297 476 208 454 l 297 454 q 194 524 229 478 q 158 639 158 571 q 219 784 158 729 q 376 839 279 839 q 486 816 438 839 q 564 751 535 793 l 547 729 l 547 821 q 572 893 547 869 q 646 917 597 917 l 706 917 l 706 839 l 668 839 q 648 833 654 839 q 642 813 642 828 l 642 649 l 558 649 q 489 726 536 697 q 386 756 442 756 q 292 723 328 756 q 256 638 256 690 q 302 540 256 581 q 414 499 349 499 l 661 499 l 661 418 l 415 418 q 266 374 318 418 q 214 249 214 331 q 272 118 214 164 q 431 72 329 72 q 554 102 511 72 q 597 176 597 132 q 583 217 597 201 q 542 238 569 233 l 568 317 q 659 276 626 311 q 692 179 692 240 q 621 40 692 93 q 421 -14 550 -14 z "},".":{"ha":381,"x_min":107,"x_max":274,"o":"m 190 -12 q 130 10 153 -12 q 107 69 107 33 q 130 130 107 107 q 190 153 153 153 q 251 130 228 153 q 274 69 274 107 q 251 10 274 33 q 190 -12 228 -12 z "},",":{"ha":353,"x_min":78,"x_max":274,"o":"m 176 153 q 248 118 222 153 q 274 26 274 83 q 258 -59 274 -17 q 212 -137 243 -101 q 131 -196 181 -172 l 78 -147 q 141 -112 114 -135 q 185 -61 168 -89 q 206 -6 201 -33 l 201 -3 q 188 -10 196 -7 q 164 -12 179 -12 q 117 7 142 -12 q 93 68 93 26 q 117 128 93 103 q 176 153 142 153 z "},":":{"ha":393,"x_min":128,"x_max":294,"o":"m 211 542 q 151 565 174 542 q 128 624 128 588 q 151 684 128 661 q 211 707 174 707 q 272 684 249 707 q 294 624 294 661 q 272 565 294 588 q 211 542 249 542 m 211 -12 q 151 10 174 -12 q 128 69 128 33 q 151 130 128 107 q 211 153 174 153 q 272 130 249 153 q 294 69 294 107 q 272 10 294 33 q 211 -12 249 -12 z "},";":{"ha":393,"x_min":97,"x_max":294,"o":"m 196 153 q 267 118 242 153 q 293 26 293 83 q 278 -59 293 -17 q 231 -137 263 -101 q 150 -196 200 -172 l 97 -147 q 160 -112 133 -135 q 204 -61 188 -89 q 225 -6 221 -33 l 221 -3 q 207 -10 215 -7 q 183 -12 199 -12 q 137 7 161 -12 q 113 68 113 26 q 137 128 113 103 q 196 153 161 153 m 211 542 q 151 565 174 542 q 128 624 128 588 q 151 684 128 661 q 211 707 174 707 q 272 684 249 707 q 294 624 294 661 q 272 565 294 588 q 211 542 249 542 z "},"…":{"ha":1149,"x_min":122,"x_max":1056,"o":"m 972 -12 q 912 10 935 -12 q 889 69 889 33 q 912 130 889 107 q 972 153 935 153 q 1033 130 1010 153 q 1056 69 1056 107 q 1033 10 1056 33 q 972 -12 1010 -12 m 589 -12 q 528 10 551 -12 q 506 69 506 33 q 528 130 506 107 q 589 153 551 153 q 649 130 626 153 q 672 69 672 107 q 649 10 672 33 q 589 -12 626 -12 m 206 -12 q 145 10 168 -12 q 122 69 122 33 q 145 130 122 107 q 206 153 168 153 q 266 130 243 153 q 289 69 289 107 q 266 10 289 33 q 206 -12 243 -12 z "},"!":{"ha":363,"x_min":99,"x_max":264,"o":"m 233 917 l 233 507 l 219 282 l 143 282 l 129 507 l 129 917 l 233 917 m 181 153 q 241 130 218 153 q 264 69 264 107 q 241 10 264 33 q 181 -12 218 -12 q 122 10 144 -12 q 99 69 99 33 q 122 130 99 107 q 181 153 144 153 z "},"¡":{"ha":351,"x_min":93,"x_max":258,"o":"m 124 -222 l 124 188 l 138 413 l 214 413 l 228 188 l 228 -222 l 124 -222 m 176 542 q 116 565 139 542 q 93 625 93 588 q 116 684 93 661 q 176 707 139 707 q 235 684 213 707 q 258 625 258 661 q 235 565 258 588 q 176 542 213 542 z "},"?":{"ha":715,"x_min":53,"x_max":649,"o":"m 294 279 l 294 486 q 445 528 392 504 q 521 586 499 551 q 543 672 543 621 q 522 760 543 724 q 458 817 500 797 q 353 838 415 838 q 208 786 264 838 q 142 644 153 735 l 53 694 q 108 819 67 767 q 213 901 149 872 q 360 931 276 931 q 511 901 446 931 q 613 817 576 871 q 649 688 649 763 q 616 554 649 607 q 526 472 583 501 q 397 432 469 442 l 397 279 l 294 279 m 360 -12 q 299 10 322 -12 q 276 69 276 33 q 299 130 276 107 q 360 153 322 153 q 420 130 397 153 q 443 69 443 107 q 420 10 443 33 q 360 -12 397 -12 z "},"¿":{"ha":715,"x_min":67,"x_max":663,"o":"m 421 414 l 421 207 q 271 166 325 190 q 194 107 217 142 q 172 21 172 72 q 194 -67 172 -31 q 258 -124 215 -104 q 363 -144 300 -144 q 508 -92 451 -144 q 574 49 564 -40 l 663 -1 q 608 -126 649 -72 q 503 -208 567 -179 q 356 -237 439 -237 q 204 -208 269 -237 q 103 -124 139 -178 q 67 6 67 -69 q 99 140 67 86 q 189 222 132 193 q 318 261 246 251 l 318 414 l 421 414 m 356 706 q 416 683 393 706 q 439 624 439 660 q 416 563 439 586 q 356 540 393 540 q 295 563 318 540 q 272 624 272 586 q 295 683 272 660 q 356 706 318 706 z "},"·":{"ha":308,"x_min":85,"x_max":251,"o":"m 168 411 q 108 434 131 411 q 85 493 85 457 q 108 553 85 531 q 168 576 131 576 q 228 553 206 576 q 251 493 251 531 q 228 434 251 457 q 168 411 206 411 z "},"•":{"ha":597,"x_min":136,"x_max":461,"o":"m 299 311 q 183 356 229 311 q 136 468 136 400 q 183 582 136 538 q 299 626 229 626 q 415 582 369 626 q 461 468 461 538 q 415 356 461 400 q 299 311 369 311 z "},"*":{"ha":783,"x_min":72,"x_max":711,"o":"m 411 704 l 515 592 l 614 453 l 549 406 l 447 542 l 372 676 l 392 690 l 411 704 m 372 704 l 392 690 l 411 676 l 336 542 l 235 406 l 169 453 l 268 592 l 372 704 m 96 829 l 260 778 l 400 714 l 392 690 l 385 668 l 233 699 l 72 753 l 96 829 m 433 1014 l 433 843 l 417 690 l 392 690 l 368 690 l 350 843 l 350 1014 l 433 1014 m 688 829 l 711 753 l 550 699 l 400 668 l 392 690 l 385 714 l 524 778 l 688 829 z "},"#":{"ha":886,"x_min":32,"x_max":854,"o":"m 721 917 l 569 0 l 485 0 l 636 917 l 721 917 m 796 339 l 796 263 l 32 263 l 32 339 l 796 339 m 400 917 l 249 0 l 164 0 l 314 917 l 400 917 m 854 658 l 854 582 l 90 582 l 90 658 l 854 658 z "},"/":{"ha":592,"x_min":40,"x_max":551,"o":"m 551 1014 l 135 -97 l 40 -97 l 457 1014 l 551 1014 z "},"\\":{"ha":592,"x_min":40,"x_max":551,"o":"m 40 1014 l 135 1014 l 551 -97 l 457 -97 l 40 1014 z "},"(":{"ha":469,"x_min":83,"x_max":432,"o":"m 375 1042 l 432 983 q 242 715 297 861 q 186 392 186 569 q 242 68 186 214 q 432 -201 297 -78 l 375 -260 q 157 29 231 -135 q 83 392 83 193 q 157 753 83 590 q 375 1042 231 917 z "},")":{"ha":469,"x_min":38,"x_max":386,"o":"m 94 -260 l 38 -201 q 228 68 174 -78 q 283 390 283 214 q 228 715 283 568 q 38 983 174 861 l 94 1042 q 313 753 239 917 q 386 390 386 589 q 313 29 386 193 q 94 -260 239 -135 z "},"{":{"ha":472,"x_min":36,"x_max":411,"o":"m 411 -260 q 243 -215 294 -260 q 192 -89 192 -169 l 192 204 q 155 314 192 281 q 36 347 118 347 l 36 435 q 155 468 118 435 q 192 578 192 501 l 192 871 q 243 997 192 953 q 411 1042 294 1042 l 411 960 q 314 940 343 960 q 285 878 285 919 l 285 569 q 246 452 285 497 q 133 392 207 407 q 246 331 207 375 q 285 214 285 286 l 285 -96 q 314 -158 285 -137 q 411 -178 343 -178 l 411 -260 z "},"}":{"ha":472,"x_min":61,"x_max":436,"o":"m 61 1042 q 229 997 178 1042 q 281 871 281 953 l 281 578 q 317 468 281 501 q 436 435 354 435 l 436 347 q 317 314 354 347 q 281 204 281 281 l 281 -89 q 229 -215 281 -169 q 61 -260 178 -260 l 61 -178 q 158 -158 129 -178 q 188 -96 188 -137 l 188 213 q 226 331 188 286 q 339 390 265 375 q 226 451 265 407 q 188 568 188 496 l 188 878 q 158 940 188 919 q 61 960 129 960 l 61 1042 z "},"[":{"ha":469,"x_min":119,"x_max":428,"o":"m 428 926 l 213 926 l 213 -146 l 428 -146 l 428 -233 l 119 -233 l 119 1014 l 428 1014 l 428 926 z "},"]":{"ha":469,"x_min":42,"x_max":350,"o":"m 42 -146 l 257 -146 l 257 926 l 42 926 l 42 1014 l 350 1014 l 350 -233 l 42 -233 l 42 -146 z "},"-":{"ha":692,"x_min":121,"x_max":571,"o":"m 571 417 l 571 313 l 121 313 l 121 417 l 571 417 z "},"­":{"ha":0,"x_min":0,"x_max":0,"o":""},"–":{"ha":914,"x_min":111,"x_max":801,"o":"m 801 411 l 801 318 l 111 318 l 111 411 l 801 411 z "},"—":{"ha":1396,"x_min":111,"x_max":1283,"o":"m 1283 411 l 1283 318 l 111 318 l 111 411 l 1283 411 z "},"_":{"ha":742,"x_min":0,"x_max":742,"o":"m 742 -135 l 742 -228 l 0 -228 l 0 -135 l 742 -135 z "},"‚":{"ha":340,"x_min":76,"x_max":272,"o":"m 175 153 q 247 118 221 153 q 272 26 272 83 q 257 -59 272 -17 q 210 -137 242 -101 q 129 -196 179 -172 l 76 -147 q 140 -112 113 -135 q 183 -61 167 -89 q 204 -6 200 -33 l 200 -3 q 186 -10 194 -7 q 163 -12 178 -12 q 116 7 140 -12 q 92 68 92 26 q 116 128 92 103 q 175 153 140 153 z "},"„":{"ha":586,"x_min":76,"x_max":518,"o":"m 175 153 q 247 118 221 153 q 272 26 272 83 q 257 -59 272 -17 q 210 -137 242 -101 q 129 -196 179 -172 l 76 -147 q 140 -112 113 -135 q 183 -61 167 -89 q 204 -6 200 -33 l 200 -3 q 186 -10 194 -7 q 163 -12 178 -12 q 116 7 140 -12 q 92 68 92 26 q 116 128 92 103 q 175 153 140 153 m 421 153 q 492 118 467 153 q 518 26 518 83 q 503 -59 518 -17 q 456 -137 488 -101 q 375 -196 425 -172 l 322 -147 q 385 -112 358 -135 q 429 -61 413 -89 q 450 -6 446 -33 l 446 -3 q 432 -10 440 -7 q 408 -12 424 -12 q 362 7 386 -12 q 338 68 338 26 q 362 128 338 103 q 421 153 386 153 z "},"“":{"ha":586,"x_min":74,"x_max":515,"o":"m 171 622 q 99 658 125 622 q 74 749 74 693 q 89 835 74 793 q 136 912 104 876 q 217 971 168 947 l 269 922 q 206 887 233 910 q 163 836 179 864 q 142 781 146 808 l 146 778 q 160 785 151 782 q 183 788 168 788 q 231 768 207 788 q 254 707 254 749 q 230 647 254 672 q 171 622 206 622 m 417 622 q 345 658 371 622 q 319 749 319 693 q 335 835 319 793 q 382 912 350 876 q 463 971 414 947 l 515 922 q 452 887 479 910 q 408 836 425 864 q 388 781 392 808 l 392 778 q 406 785 397 782 q 429 788 414 788 q 476 768 453 788 q 500 707 500 749 q 476 647 500 672 q 417 622 451 622 z "},"”":{"ha":586,"x_min":76,"x_max":518,"o":"m 175 971 q 247 936 221 971 q 272 844 272 901 q 257 759 272 801 q 210 681 242 717 q 129 622 179 646 l 76 671 q 140 706 113 683 q 183 757 167 729 q 204 813 200 785 l 200 815 q 186 808 194 811 q 163 806 178 806 q 116 825 140 806 q 92 886 92 844 q 116 946 92 921 q 175 971 140 971 m 421 971 q 492 936 467 971 q 518 844 518 901 q 503 759 518 801 q 456 681 488 717 q 375 622 425 646 l 322 671 q 385 706 358 683 q 429 757 413 729 q 450 813 446 785 l 446 815 q 432 808 440 811 q 408 806 424 806 q 362 825 386 806 q 338 886 338 844 q 362 946 338 921 q 421 971 386 971 z "},"‘":{"ha":340,"x_min":74,"x_max":269,"o":"m 171 622 q 99 658 125 622 q 74 749 74 693 q 89 835 74 793 q 136 912 104 876 q 217 971 168 947 l 269 922 q 206 887 233 910 q 163 836 179 864 q 142 781 146 808 l 146 778 q 160 785 151 782 q 183 788 168 788 q 231 768 207 788 q 254 707 254 749 q 230 647 254 672 q 171 622 206 622 z "},"’":{"ha":340,"x_min":76,"x_max":272,"o":"m 175 971 q 247 936 221 971 q 272 844 272 901 q 257 759 272 801 q 210 681 242 717 q 129 622 179 646 l 76 671 q 140 706 113 683 q 183 757 167 729 q 204 813 200 785 l 200 815 q 186 808 194 811 q 163 806 178 806 q 116 825 140 806 q 92 886 92 844 q 116 946 92 921 q 175 971 140 971 z "},"«":{"ha":665,"x_min":69,"x_max":593,"o":"m 357 640 l 176 368 l 357 96 l 249 96 l 69 368 l 249 640 l 357 640 m 593 640 l 413 368 l 593 96 l 485 96 l 306 368 l 485 640 l 593 640 z "},"»":{"ha":665,"x_min":72,"x_max":596,"o":"m 308 96 l 489 368 l 308 640 l 417 640 l 596 368 l 417 96 l 308 96 m 72 96 l 253 368 l 72 640 l 181 640 l 360 368 l 181 96 l 72 96 z "},"‹":{"ha":429,"x_min":69,"x_max":357,"o":"m 357 640 l 176 368 l 357 96 l 249 96 l 69 368 l 249 640 l 357 640 z "},"›":{"ha":429,"x_min":72,"x_max":360,"o":"m 72 96 l 253 368 l 72 640 l 181 640 l 360 368 l 181 96 l 72 96 z "},"\"":{"ha":531,"x_min":111,"x_max":442,"o":"m 442 957 l 410 629 l 332 629 l 332 957 l 442 957 m 221 957 l 189 629 l 111 629 l 111 957 l 221 957 z "},"'":{"ha":310,"x_min":111,"x_max":221,"o":"m 221 957 l 189 629 l 111 629 l 111 957 l 221 957 z "},"។":{"ha":803,"x_min":125,"x_max":656,"o":"m 558 0 l 558 569 q 505 514 536 539 q 433 474 474 489 q 335 458 392 458 q 183 508 240 458 q 125 639 125 558 q 182 777 125 729 q 343 825 239 825 l 343 744 q 254 719 286 744 q 222 643 222 693 q 256 567 222 596 q 344 539 289 539 q 435 557 394 539 q 508 608 476 575 q 561 685 540 642 l 561 825 l 656 825 l 656 0 l 558 0 z "},"៕":{"ha":1086,"x_min":150,"x_max":939,"o":"m 583 0 l 583 569 q 530 514 561 539 q 458 474 499 489 q 360 458 417 458 q 208 508 265 458 q 150 639 150 558 q 207 777 150 729 q 368 825 264 825 l 368 744 q 279 719 311 744 q 247 643 247 693 q 281 567 247 596 q 369 539 314 539 q 458 557 418 539 q 531 608 499 575 q 583 685 563 642 l 583 825 l 681 825 l 681 0 l 583 0 m 842 0 l 842 825 l 939 825 l 939 0 l 842 0 z "},"៖":{"ha":508,"x_min":25,"x_max":483,"o":"m 254 531 q 158 567 196 531 q 119 664 119 604 q 158 761 119 725 q 254 797 196 797 q 351 761 313 797 q 389 664 389 725 q 351 567 389 604 q 254 531 313 531 m 254 600 q 296 617 281 600 q 311 664 311 635 q 296 710 311 693 q 254 728 281 728 q 213 710 228 728 q 197 664 197 693 q 213 617 197 635 q 254 600 228 600 m 254 28 q 158 65 196 28 q 119 161 119 101 q 158 258 119 222 q 254 294 196 294 q 351 258 313 294 q 389 161 389 222 q 351 65 389 101 q 254 28 313 28 m 254 97 q 296 115 281 97 q 311 161 311 132 q 296 208 311 190 q 254 225 281 225 q 213 208 228 225 q 197 161 197 190 q 213 115 197 132 q 254 97 228 97 m 25 375 l 25 450 l 483 450 l 483 375 l 25 375 z "},"ៗ":{"ha":772,"x_min":89,"x_max":650,"o":"m 375 -285 q 220 -248 286 -285 q 114 -146 154 -211 l 183 -83 q 261 -166 215 -133 q 375 -199 307 -199 q 507 -155 461 -199 q 553 -31 553 -111 l 553 668 l 483 733 l 374 643 l 365 643 l 256 733 l 186 668 l 186 522 q 201 472 186 492 q 242 453 217 453 q 283 458 265 453 q 300 463 300 463 l 300 385 q 281 380 300 385 q 228 375 261 375 q 127 411 165 375 q 89 507 89 447 l 89 690 l 246 839 l 251 839 l 369 738 l 488 839 l 493 839 l 650 690 l 650 -35 q 579 -220 650 -156 q 375 -285 508 -285 z "},"៘":{"ha":2776,"x_min":125,"x_max":2629,"o":"m 558 0 l 558 569 q 505 514 536 539 q 433 474 474 489 q 335 458 392 458 q 183 508 240 458 q 125 639 125 558 q 182 777 125 729 q 343 825 239 825 l 343 744 q 254 719 286 744 q 222 643 222 693 q 256 567 222 596 q 344 539 289 539 q 435 557 394 539 q 508 608 476 575 q 561 685 540 642 l 561 825 l 656 825 l 656 0 l 558 0 m 1671 -14 q 1471 58 1542 -14 q 1400 258 1400 129 l 1400 567 q 1354 706 1400 656 q 1224 756 1308 756 q 1093 706 1139 756 q 1047 567 1047 656 l 1047 192 l 1021 228 l 1044 228 q 1129 201 1096 228 q 1163 111 1163 174 q 1133 22 1163 51 q 1042 -8 1103 -8 q 973 9 996 -8 q 950 61 950 26 l 950 567 q 1022 767 950 696 q 1224 839 1093 839 q 1426 767 1356 839 q 1497 567 1497 696 l 1497 258 q 1543 119 1497 169 q 1671 69 1589 69 q 1799 119 1753 69 q 1844 258 1844 169 l 1844 594 q 1828 639 1844 624 q 1783 668 1813 654 l 1783 722 q 1809 799 1783 774 q 1885 825 1835 825 l 1969 825 l 1969 736 l 1896 736 q 1867 706 1867 736 l 1867 694 q 1922 657 1901 679 q 1942 594 1942 635 l 1942 258 q 1871 58 1942 129 q 1671 -14 1800 -14 m 1043 56 q 1093 111 1093 56 q 1043 167 1093 167 l 1043 56 m 2532 0 l 2532 569 q 2478 514 2510 539 q 2406 474 2447 489 q 2308 458 2365 458 q 2156 508 2214 458 q 2099 639 2099 558 q 2156 777 2099 729 q 2317 825 2213 825 l 2317 744 q 2228 719 2260 744 q 2196 643 2196 693 q 2229 567 2196 596 q 2318 539 2263 539 q 2409 557 2368 539 q 2482 608 2450 575 q 2535 685 2514 642 l 2535 825 l 2629 825 l 2629 0 l 2532 0 z "},"៙":{"ha":767,"x_min":81,"x_max":686,"o":"m 383 92 q 225 129 293 92 q 119 235 157 167 q 81 394 81 304 q 119 554 81 486 q 225 660 157 622 q 383 697 293 697 q 542 660 474 697 q 648 554 610 622 q 686 394 686 486 q 648 235 686 304 q 542 129 610 167 q 383 92 474 92 m 383 178 q 494 204 447 178 q 568 279 542 231 q 594 394 594 328 q 568 510 594 461 q 494 585 542 558 q 383 611 447 611 q 272 585 319 611 q 199 510 225 558 q 172 394 172 461 q 199 279 172 328 q 272 204 225 231 q 383 178 319 178 m 383 272 q 295 306 329 272 q 261 394 261 339 q 295 483 261 450 q 383 517 329 517 q 472 483 438 517 q 506 394 506 450 q 472 306 506 339 q 383 272 438 272 m 383 331 q 428 348 411 331 q 444 394 444 365 q 428 441 444 424 q 383 458 411 458 q 339 441 356 458 q 322 394 322 424 q 339 348 322 365 q 383 331 356 331 z "},"៚":{"ha":1556,"x_min":67,"x_max":1500,"o":"m 364 89 q 210 126 278 89 q 105 231 143 163 q 67 392 67 299 q 103 553 67 483 q 201 661 139 622 q 342 700 263 700 q 441 679 399 700 q 503 618 483 658 l 426 563 q 396 600 419 586 q 335 614 372 614 q 249 585 286 614 q 190 508 211 557 q 169 396 169 460 q 222 235 169 296 q 371 175 275 175 q 494 207 443 175 q 578 283 546 239 q 624 369 610 328 q 633 431 638 411 l 681 333 q 624 213 665 269 q 518 123 583 157 q 364 89 453 89 m 744 128 l 564 583 l 661 583 l 842 128 l 744 128 m 942 128 l 789 514 l 886 514 l 1039 128 l 942 128 m 1131 128 l 1006 444 l 1103 444 l 1208 174 l 1168 178 l 1261 308 q 1305 357 1279 333 q 1378 381 1331 381 q 1449 360 1418 381 q 1500 308 1479 340 l 1456 247 q 1421 290 1438 275 q 1382 304 1404 304 q 1355 296 1364 304 q 1340 281 1346 288 l 1228 128 l 1131 128 z "}," ":{"ha":464,"x_min":0,"x_max":0,"o":""}," ":{"ha":464,"x_min":0,"x_max":0,"o":""},"​":{"ha":0,"x_min":0,"x_max":0,"o":""},"‍":{"ha":0,"x_min":0,"x_max":0,"o":""},"‌":{"ha":0,"x_min":0,"x_max":0,"o":""},"\r":{"ha":464,"x_min":0,"x_max":0,"o":""},"¢":{"ha":757,"x_min":90,"x_max":692,"o":"m 413 -14 q 245 29 318 -14 q 131 153 172 72 q 90 347 90 235 q 131 541 90 460 q 245 665 172 622 q 413 708 318 708 q 535 686 482 708 q 625 622 588 664 q 685 524 663 581 l 592 478 q 525 589 572 551 q 411 626 478 626 q 247 553 311 626 q 183 347 183 481 q 247 141 183 214 q 411 68 311 68 q 499 85 460 68 q 564 138 538 103 q 603 222 590 172 l 692 192 q 633 82 672 128 q 539 11 594 36 q 413 -14 483 -14 m 363 -139 l 363 833 l 444 833 l 444 -139 l 363 -139 z "},"¤":{"ha":913,"x_min":96,"x_max":817,"o":"m 457 744 q 605 708 540 744 q 706 606 669 671 q 743 458 743 542 q 706 310 743 375 q 605 207 669 244 q 457 169 540 169 q 309 207 374 169 q 207 310 244 244 q 169 458 169 375 q 207 606 169 542 q 309 708 244 671 q 457 744 374 744 m 457 654 q 322 599 375 654 q 269 458 269 544 q 322 315 269 371 q 457 260 375 260 q 591 315 539 260 q 643 458 643 371 q 591 599 643 544 q 457 654 539 654 m 160 817 l 324 657 l 258 593 l 96 753 l 160 817 m 257 324 l 319 260 l 160 96 l 96 160 l 257 324 m 653 319 l 817 160 l 753 96 l 590 256 l 653 319 m 753 817 l 817 753 l 657 590 l 593 654 l 753 817 z "},"$":{"ha":832,"x_min":61,"x_max":751,"o":"m 425 1 q 263 28 333 1 q 141 100 192 54 q 61 204 90 146 l 143 272 q 207 178 167 218 q 304 115 247 138 q 432 93 361 93 q 591 133 531 93 q 651 249 651 172 q 619 333 651 300 q 513 385 586 367 l 319 431 q 149 517 200 458 q 99 657 99 576 q 137 788 99 728 q 247 883 175 847 q 417 918 318 918 q 610 870 529 918 q 743 726 692 822 l 664 664 q 557 790 621 753 q 406 828 493 828 q 291 806 338 828 q 222 749 244 785 q 199 671 199 714 q 231 582 199 619 q 351 524 263 544 l 531 482 q 660 433 611 464 q 730 358 708 401 q 751 257 751 314 q 710 124 751 182 q 597 34 669 67 q 425 1 524 1 m 378 -139 l 378 1056 l 463 1056 l 463 -139 l 378 -139 z "},"€":{"ha":939,"x_min":82,"x_max":883,"o":"m 82 511 l 82 593 l 618 593 l 593 511 l 82 511 m 82 306 l 82 386 l 565 386 l 540 306 l 82 306 m 557 931 q 755 876 676 931 q 869 719 833 822 l 779 676 q 702 800 757 757 q 564 843 647 843 q 367 740 442 843 q 292 458 292 638 q 361 178 292 282 q 565 74 431 74 q 709 123 649 74 q 794 269 769 172 l 883 235 q 816 103 861 158 q 707 17 771 47 q 563 -14 643 -14 q 362 44 444 -14 q 235 207 279 101 q 192 458 192 313 q 238 710 192 604 q 366 873 283 815 q 557 931 449 931 z "},"៛":{"ha":461,"x_min":89,"x_max":422,"o":"m 229 -8 q 142 21 174 -8 q 111 110 111 50 q 143 199 111 169 q 226 228 175 228 l 244 228 l 219 192 l 219 581 q 197 632 219 614 q 131 664 174 650 l 131 722 q 156 799 131 774 q 232 825 182 825 l 328 825 l 328 736 l 243 736 q 214 706 214 736 l 214 694 q 291 653 265 682 q 317 581 317 625 l 317 61 q 229 -8 317 -8 m 228 56 l 228 164 q 178 110 178 164 q 228 56 178 56 m 89 369 l 89 444 l 422 444 l 422 369 l 89 369 z "},"£":{"ha":828,"x_min":68,"x_max":785,"o":"m 114 390 l 114 472 l 621 472 l 621 390 l 114 390 m 214 -12 q 107 20 146 -12 q 68 103 68 53 q 110 188 68 151 q 226 224 151 224 q 319 208 279 224 q 390 169 358 192 q 452 123 422 146 q 515 84 482 100 q 590 68 547 68 q 676 101 649 68 q 704 207 703 135 l 785 207 q 737 43 785 99 q 604 -12 689 -12 q 513 3 554 -12 q 436 44 472 19 q 366 92 400 68 q 297 133 332 117 q 224 149 263 149 q 174 136 190 149 q 157 103 157 124 q 176 68 157 81 q 225 56 196 56 q 306 80 279 56 q 342 143 333 104 q 350 224 350 182 q 331 326 350 276 q 274 443 313 375 q 229 531 244 494 q 208 599 214 568 q 201 663 201 631 q 238 805 201 744 q 338 898 275 865 q 479 931 401 931 q 651 876 585 931 q 743 715 717 822 l 657 668 q 598 794 639 749 q 476 839 557 839 q 343 794 393 839 q 293 663 293 749 q 298 608 293 633 q 315 553 303 582 q 347 481 326 524 q 406 347 385 408 q 428 229 428 286 q 408 117 428 174 q 341 24 388 61 q 214 -12 294 -12 z "},"¥":{"ha":828,"x_min":49,"x_max":778,"o":"m 369 0 l 369 153 l 110 153 l 110 222 l 369 222 l 369 332 l 110 332 l 110 408 l 289 408 l 347 403 l 49 917 l 164 917 l 354 558 l 413 433 l 415 433 l 474 560 l 664 917 l 778 917 l 481 403 l 539 408 l 718 408 l 718 332 l 457 332 l 457 222 l 718 222 l 718 153 l 457 153 l 457 0 l 369 0 z "},"∕":{"ha":311,"x_min":-211,"x_max":524,"o":"m -211 0 l 425 917 l 524 917 l -114 0 l -211 0 z "},"+":{"ha":839,"x_min":83,"x_max":756,"o":"m 467 781 l 467 96 l 374 96 l 374 781 l 467 781 m 756 486 l 756 393 l 83 393 l 83 486 l 756 486 z "},"−":{"ha":839,"x_min":85,"x_max":754,"o":"m 754 486 l 754 393 l 85 393 l 85 486 l 754 486 z "},"×":{"ha":839,"x_min":119,"x_max":718,"o":"m 651 142 l 718 208 l 186 739 l 119 672 l 651 142 m 186 142 l 718 672 l 651 739 l 119 208 l 186 142 z "},"÷":{"ha":839,"x_min":85,"x_max":754,"o":"m 754 486 l 754 393 l 85 393 l 85 486 l 754 486 m 433 86 q 373 109 396 86 q 350 168 350 132 q 373 228 350 206 q 433 251 396 251 q 494 228 471 251 q 517 168 517 206 q 494 109 517 132 q 433 86 471 86 m 433 626 q 373 649 396 626 q 350 708 350 672 q 373 769 350 746 q 433 792 396 792 q 494 769 471 792 q 517 708 517 746 q 494 649 517 672 q 433 626 471 626 z "},"=":{"ha":839,"x_min":93,"x_max":746,"o":"m 746 610 l 746 515 l 93 515 l 93 610 l 746 610 m 746 331 l 746 238 l 93 238 l 93 331 l 746 331 z "},">":{"ha":839,"x_min":82,"x_max":736,"o":"m 82 788 l 736 474 l 736 358 l 82 44 l 82 147 l 657 414 l 82 682 l 82 788 z "},"<":{"ha":839,"x_min":103,"x_max":757,"o":"m 757 44 l 103 358 l 103 474 l 757 788 l 757 685 l 182 418 l 757 150 l 757 44 z "},"≥":{"ha":839,"x_min":79,"x_max":742,"o":"m 79 172 l 79 279 l 663 526 l 79 771 l 79 876 l 742 588 l 742 464 l 79 172 m 742 0 l 79 0 l 79 93 l 742 93 l 742 0 z "},"≤":{"ha":839,"x_min":97,"x_max":760,"o":"m 760 172 l 97 464 l 97 588 l 760 876 l 760 771 l 176 526 l 760 279 l 760 172 m 97 0 l 97 93 l 760 93 l 760 0 l 97 0 z "},"±":{"ha":839,"x_min":85,"x_max":754,"o":"m 467 886 l 467 206 l 374 206 l 374 886 l 467 886 m 754 593 l 754 499 l 85 499 l 85 593 l 754 593 m 754 93 l 754 0 l 85 0 l 85 93 l 754 93 z "},"≈":{"ha":839,"x_min":88,"x_max":751,"o":"m 576 492 q 497 506 536 492 q 420 540 458 521 q 344 573 382 558 q 267 588 306 588 q 167 569 207 588 q 88 511 128 551 l 88 604 q 171 662 132 644 q 267 679 210 679 q 349 665 310 679 q 427 631 389 650 q 503 597 465 611 q 578 582 540 582 q 663 597 622 582 q 751 658 704 613 l 751 567 q 668 510 711 528 q 576 492 625 492 m 576 215 q 497 230 536 215 q 420 264 458 244 q 344 298 382 283 q 267 313 306 313 q 167 294 207 313 q 88 236 128 276 l 88 328 q 171 386 132 368 q 267 404 210 404 q 349 390 310 404 q 427 356 389 375 q 503 322 465 336 q 578 307 540 307 q 663 322 622 307 q 751 383 704 338 l 751 292 q 668 234 711 253 q 576 215 625 215 z "},"~":{"ha":739,"x_min":60,"x_max":679,"o":"m 679 535 q 627 388 671 438 q 506 338 583 338 q 424 353 458 338 q 361 389 389 368 q 306 425 333 410 q 244 440 278 440 q 185 413 206 440 q 156 338 164 386 l 60 338 q 112 485 68 435 q 236 535 156 535 q 317 519 282 535 q 379 483 351 504 q 435 447 407 463 q 496 432 463 432 q 555 460 533 432 q 585 535 576 488 l 679 535 z "},"¬":{"ha":839,"x_min":85,"x_max":754,"o":"m 754 443 l 754 190 l 654 190 l 654 443 l 754 443 m 754 486 l 754 393 l 85 393 l 85 486 l 754 486 z "},"^":{"ha":774,"x_min":39,"x_max":733,"o":"m 39 493 l 339 1014 l 435 1014 l 733 493 l 632 493 l 386 929 l 142 493 l 39 493 z "},"∞":{"ha":1228,"x_min":97,"x_max":1131,"o":"m 904 693 q 1018 660 967 693 q 1100 566 1069 628 q 1131 417 1131 504 q 1100 267 1131 329 q 1018 173 1069 206 q 904 140 967 140 q 827 153 863 140 q 756 195 792 167 q 677 269 719 224 q 579 379 635 315 q 488 483 525 442 q 423 549 450 524 q 372 584 396 574 q 321 594 347 594 q 260 572 289 594 q 213 508 231 550 q 194 406 194 465 q 213 303 194 346 q 260 239 231 261 q 321 217 289 217 q 369 224 349 217 q 415 255 390 232 q 478 323 440 278 q 579 443 517 368 q 701 581 653 531 q 782 656 749 632 q 843 687 815 681 q 904 693 871 693 m 322 693 q 400 681 364 693 q 472 641 436 668 q 550 569 508 614 q 644 460 592 525 q 732 357 694 399 q 800 290 769 315 q 857 252 831 264 q 908 240 883 240 q 970 263 942 240 q 1016 328 999 286 q 1033 429 1033 371 q 1015 531 1033 489 q 969 596 997 574 q 907 618 940 618 q 859 610 881 618 q 812 580 838 603 q 746 510 786 557 q 640 386 706 464 q 527 253 572 303 q 450 180 482 204 q 389 148 418 156 q 322 140 360 140 q 210 173 261 140 q 128 267 158 206 q 97 417 97 329 q 128 566 97 504 q 210 660 158 628 q 322 693 261 693 z "},"∅":{"ha":1081,"x_min":68,"x_max":1013,"o":"m 136 -18 l 72 46 l 946 935 l 1008 872 l 136 -18 m 540 -14 q 353 22 439 -14 q 203 121 267 57 q 103 271 139 185 q 68 458 68 357 q 103 646 68 560 q 203 796 139 732 q 353 895 267 860 q 540 931 439 931 q 728 895 642 931 q 878 796 814 860 q 977 646 942 732 q 1013 458 1013 560 q 977 271 1013 357 q 878 121 942 185 q 728 22 814 57 q 540 -14 642 -14 m 540 79 q 689 108 621 79 q 807 187 757 136 q 885 307 857 238 q 913 458 913 376 q 885 610 913 540 q 807 730 857 679 q 689 809 757 781 q 540 838 621 838 q 392 809 460 838 q 274 730 324 781 q 196 610 224 679 q 168 458 168 540 q 196 307 168 376 q 274 187 224 238 q 392 108 324 136 q 540 79 460 79 z "},"√":{"ha":856,"x_min":28,"x_max":919,"o":"m 371 0 l 172 489 l 28 489 l 28 582 l 231 582 l 422 106 l 821 1136 l 919 1136 l 471 0 l 371 0 z "},"µ":{"ha":831,"x_min":128,"x_max":703,"o":"m 128 -292 l 128 694 l 228 694 l 228 265 q 273 120 228 167 q 399 74 318 74 q 499 99 453 74 q 574 180 546 125 q 603 322 603 235 l 603 694 l 703 694 l 703 0 l 621 0 l 613 122 q 521 22 581 57 q 392 -14 461 -14 q 297 6 340 -14 q 225 67 253 25 l 228 67 l 228 -292 l 128 -292 z "},"∂":{"ha":800,"x_min":68,"x_max":711,"o":"m 369 -14 q 210 26 278 -14 q 106 135 143 65 q 68 296 68 206 q 106 456 68 386 q 212 565 144 525 q 364 604 279 604 q 508 571 443 604 q 614 476 572 538 q 665 331 656 415 l 614 319 q 567 423 600 379 q 484 491 535 467 q 364 515 433 515 q 258 488 303 515 q 191 413 214 461 q 168 297 168 364 q 194 180 168 229 q 267 103 219 131 q 378 76 314 76 q 559 174 500 76 q 618 458 618 272 q 587 681 618 596 q 497 806 556 767 q 358 846 439 846 q 253 825 296 846 q 167 765 210 804 l 117 835 q 228 905 167 879 q 364 931 289 931 q 628 806 546 931 q 711 458 711 682 q 623 108 711 229 q 369 -14 535 -14 z "},"%":{"ha":1146,"x_min":56,"x_max":1092,"o":"m 240 0 l 813 917 l 907 917 l 333 0 l 240 0 m 267 929 q 381 897 333 929 q 455 809 429 865 q 481 679 481 753 q 455 549 481 606 q 381 460 429 492 q 267 429 333 429 q 154 460 201 429 q 81 549 107 492 q 56 679 56 606 q 81 809 56 753 q 154 897 107 865 q 267 929 201 929 m 267 850 q 200 829 228 850 q 158 770 172 808 q 144 679 144 732 q 158 588 144 626 q 200 529 172 550 q 267 508 228 508 q 336 529 308 508 q 378 588 364 550 q 392 679 392 626 q 378 770 392 732 q 336 829 364 808 q 267 850 308 850 m 879 488 q 992 456 944 488 q 1066 369 1040 425 q 1092 238 1092 313 q 1066 107 1092 164 q 992 19 1040 50 q 879 -12 944 -12 q 766 19 814 -12 q 692 107 718 50 q 667 238 667 164 q 692 369 667 313 q 766 456 718 425 q 879 488 814 488 m 879 410 q 811 389 839 410 q 769 329 783 368 q 756 238 756 290 q 769 147 756 186 q 811 88 783 108 q 879 67 839 67 q 947 88 919 67 q 989 147 975 108 q 1003 238 1003 186 q 989 329 1003 290 q 947 389 975 368 q 879 410 919 410 z "},"‰":{"ha":1668,"x_min":56,"x_max":1614,"o":"m 1401 488 q 1515 456 1467 488 q 1588 369 1563 425 q 1614 238 1614 313 q 1588 107 1614 164 q 1515 19 1563 50 q 1401 -12 1467 -12 q 1288 19 1336 -12 q 1215 107 1240 50 q 1189 238 1189 164 q 1215 369 1189 313 q 1288 456 1240 425 q 1401 488 1336 488 m 1401 410 q 1333 389 1361 410 q 1292 329 1306 368 q 1278 238 1278 290 q 1292 147 1278 186 q 1333 88 1306 108 q 1401 67 1361 67 q 1469 88 1442 67 q 1511 147 1497 108 q 1525 238 1525 186 q 1511 329 1525 290 q 1469 389 1497 368 q 1401 410 1442 410 m 240 0 l 813 917 l 907 917 l 333 0 l 240 0 m 267 929 q 381 897 333 929 q 455 809 429 865 q 481 679 481 753 q 455 549 481 606 q 381 460 429 492 q 267 429 333 429 q 154 460 201 429 q 81 549 107 492 q 56 679 56 606 q 81 809 56 753 q 154 897 107 865 q 267 929 201 929 m 267 850 q 200 829 228 850 q 158 770 172 808 q 144 679 144 732 q 158 588 144 626 q 200 529 172 550 q 267 508 228 508 q 336 529 308 508 q 378 588 364 550 q 392 679 392 626 q 378 770 392 732 q 336 829 364 808 q 267 850 308 850 m 879 488 q 992 456 944 488 q 1066 369 1040 425 q 1092 238 1092 313 q 1066 107 1092 164 q 992 19 1040 50 q 879 -12 944 -12 q 766 19 814 -12 q 692 107 718 50 q 667 238 667 164 q 692 369 667 313 q 766 456 718 425 q 879 488 814 488 m 879 410 q 811 389 839 410 q 769 329 783 368 q 756 238 756 290 q 769 147 756 186 q 811 88 783 108 q 879 67 839 67 q 947 88 919 67 q 989 147 975 108 q 1003 238 1003 186 q 989 329 1003 290 q 947 389 975 368 q 879 410 919 410 z "},"↑":{"ha":1042,"x_min":63,"x_max":978,"o":"m 128 432 l 63 513 q 251 644 171 579 q 396 777 332 708 q 517 925 460 846 l 525 925 q 647 777 583 846 q 790 644 710 708 q 978 513 871 579 l 914 432 q 715 585 801 508 q 574 735 629 661 q 500 876 519 810 l 542 876 q 467 735 522 810 q 327 585 413 661 q 128 432 242 508 m 471 0 l 471 525 q 474 668 471 606 q 483 782 478 731 l 521 856 l 558 782 q 567 668 563 731 q 571 525 571 606 l 571 0 l 471 0 z "},"↗":{"ha":1042,"x_min":176,"x_max":865,"o":"m 247 124 l 176 194 l 540 558 q 614 629 579 597 q 678 688 649 661 q 735 735 708 714 l 813 760 l 788 682 q 739 624 764 654 q 683 561 714 594 q 611 488 651 528 l 247 124 m 757 149 q 746 258 750 201 q 742 369 742 314 q 758 601 742 490 q 804 781 774 713 l 833 751 q 654 705 765 721 q 422 689 543 689 q 310 693 367 689 q 201 704 254 697 l 211 803 q 351 786 282 792 q 490 781 421 781 q 674 790 582 781 q 858 813 765 799 l 865 806 q 842 621 851 713 q 833 438 833 529 q 839 299 833 369 q 856 158 844 229 l 757 149 z "},"→":{"ha":1042,"x_min":69,"x_max":994,"o":"m 501 851 l 582 917 q 713 728 649 810 q 847 584 778 647 q 994 463 915 521 l 994 454 q 847 333 915 397 q 713 190 778 269 q 582 1 649 110 l 501 65 q 654 265 578 179 q 805 405 731 350 q 946 479 879 460 l 946 438 q 805 512 879 457 q 654 653 731 567 q 501 851 578 739 m 69 508 l 594 508 q 738 505 675 508 q 851 496 800 501 l 925 458 l 851 421 q 738 413 800 417 q 594 408 675 408 l 69 408 l 69 508 z "},"↘":{"ha":1042,"x_min":163,"x_max":851,"o":"m 163 758 l 233 829 l 597 465 q 668 393 636 428 q 726 328 700 358 q 774 271 753 297 l 799 193 l 721 218 q 663 267 693 242 q 600 324 633 293 q 526 394 567 354 l 163 758 m 188 249 q 297 260 240 256 q 408 264 353 264 q 640 248 529 264 q 819 201 751 232 l 790 172 q 744 352 760 242 q 728 583 728 463 q 732 697 728 640 q 743 804 736 753 l 842 794 q 825 654 831 724 q 819 515 819 585 q 828 333 819 424 q 851 147 838 242 l 844 140 q 660 164 751 156 q 476 172 568 172 q 338 167 408 172 q 197 150 268 161 l 188 249 z "},"↓":{"ha":1042,"x_min":64,"x_max":979,"o":"m 914 485 l 979 404 q 792 273 872 338 q 647 140 711 208 q 525 -8 583 71 l 517 -8 q 396 140 460 71 q 252 273 332 208 q 64 404 172 338 l 128 485 q 327 333 242 410 q 467 182 413 256 q 542 40 522 108 l 500 40 q 574 182 519 108 q 715 333 629 256 q 914 485 801 410 m 571 917 l 571 392 q 567 249 571 311 q 558 135 564 186 l 521 61 l 483 135 q 475 249 479 186 q 471 392 471 311 l 471 917 l 571 917 z "},"↙":{"ha":1042,"x_min":190,"x_max":879,"o":"m 808 829 l 879 758 l 515 394 q 443 324 478 357 q 378 266 408 292 q 321 218 347 240 l 243 193 l 268 271 q 317 328 292 299 q 374 392 343 358 q 444 465 404 426 l 808 829 m 299 804 q 310 697 306 753 q 314 583 314 640 q 298 352 314 463 q 251 172 282 242 l 222 201 q 402 248 292 232 q 633 264 513 264 q 747 260 690 264 q 854 249 803 256 l 844 150 q 704 167 774 161 q 565 172 635 172 q 383 164 474 172 q 197 140 292 156 l 190 147 q 214 333 206 242 q 222 515 222 424 q 217 654 222 585 q 200 794 211 724 l 299 804 z "},"←":{"ha":1042,"x_min":47,"x_max":972,"o":"m 540 65 l 460 0 q 328 189 393 108 q 195 333 264 269 q 47 454 126 397 l 47 463 q 195 584 126 521 q 328 728 264 647 q 460 915 393 808 l 540 851 q 388 653 465 739 q 238 512 311 567 q 96 438 164 457 l 96 479 q 238 405 164 460 q 388 265 311 350 q 540 65 465 179 m 972 408 l 447 408 q 304 412 367 408 q 190 421 242 415 l 117 458 l 190 496 q 304 504 242 500 q 447 508 367 508 l 972 508 l 972 408 z "},"↖":{"ha":1042,"x_min":176,"x_max":865,"o":"m 865 194 l 794 124 l 431 488 q 360 561 393 526 q 302 626 328 596 q 254 682 276 657 l 229 760 l 307 735 q 365 685 335 711 q 428 629 394 660 q 501 558 463 599 l 865 194 m 840 704 q 733 693 789 697 q 619 689 676 689 q 388 705 499 689 q 208 751 278 721 l 238 781 q 284 601 268 713 q 300 369 300 490 q 296 258 300 314 q 285 149 292 201 l 186 158 q 203 299 197 229 q 208 438 208 368 q 200 621 208 529 q 176 806 192 713 l 183 813 q 369 790 278 799 q 551 781 460 781 q 690 786 621 781 q 831 803 760 792 l 840 704 z "},"↔":{"ha":1456,"x_min":47,"x_max":1408,"o":"m 1339 486 l 1265 449 q 1172 440 1224 443 q 1056 436 1121 436 l 400 436 q 283 440 335 436 q 190 449 232 443 l 117 486 l 190 524 q 283 533 232 529 q 400 536 335 536 l 1056 536 q 1172 533 1121 536 q 1265 524 1224 529 l 1339 486 m 549 82 l 461 29 q 329 217 394 136 q 196 361 264 297 q 47 482 128 425 l 47 490 q 196 612 128 549 q 329 756 264 675 q 461 944 394 838 l 549 892 q 391 683 469 772 q 238 540 313 594 q 96 465 164 485 l 96 507 q 238 433 164 488 q 391 290 313 378 q 549 82 469 201 m 907 82 q 1066 290 988 201 q 1219 433 1144 378 q 1360 507 1293 488 l 1360 465 q 1219 540 1293 485 q 1066 683 1144 594 q 907 892 988 772 l 994 944 q 1126 756 1063 838 q 1260 612 1190 675 q 1408 490 1329 549 l 1408 482 q 1260 361 1329 425 q 1126 217 1190 297 q 994 29 1063 136 l 907 82 z "},"↕":{"ha":1042,"x_min":64,"x_max":979,"o":"m 521 -153 l 483 -79 q 474 15 478 -37 q 471 131 471 67 l 471 786 q 474 903 471 851 q 483 996 478 954 l 521 1069 l 558 996 q 567 903 564 954 q 571 786 571 851 l 571 131 q 567 15 571 67 q 558 -79 564 -37 l 521 -153 m 117 638 l 64 725 q 251 857 171 793 q 396 990 332 921 q 517 1139 460 1060 l 525 1139 q 647 990 583 1060 q 792 857 711 921 q 979 725 872 793 l 926 638 q 718 797 807 718 q 574 949 629 875 q 500 1090 519 1024 l 542 1090 q 467 949 522 1024 q 324 797 413 875 q 117 638 236 718 m 117 279 q 324 122 236 200 q 467 -31 413 43 q 542 -174 522 -106 l 500 -174 q 574 -31 519 -106 q 718 122 629 43 q 926 279 807 200 l 979 192 q 792 60 872 125 q 647 -74 711 -6 q 525 -222 583 -142 l 517 -222 q 396 -74 460 -142 q 251 60 332 -6 q 64 192 171 125 l 117 279 z "},"●":{"ha":1081,"x_min":68,"x_max":1013,"o":"m 540 -14 q 353 22 439 -14 q 203 121 267 57 q 103 271 139 185 q 68 458 68 357 q 103 646 68 560 q 203 796 139 732 q 353 895 267 860 q 540 931 439 931 q 728 895 642 931 q 878 796 814 860 q 977 646 942 732 q 1013 458 1013 560 q 977 271 1013 357 q 878 121 942 185 q 728 22 814 57 q 540 -14 642 -14 z "},"○":{"ha":1081,"x_min":68,"x_max":1013,"o":"m 540 -14 q 353 22 439 -14 q 203 121 267 57 q 103 271 139 185 q 68 458 68 357 q 103 646 68 560 q 203 796 139 732 q 353 895 267 860 q 540 931 439 931 q 728 895 642 931 q 878 796 814 860 q 977 646 942 732 q 1013 458 1013 560 q 977 271 1013 357 q 878 121 942 185 q 728 22 814 57 q 540 -14 642 -14 m 540 79 q 689 108 621 79 q 807 187 757 136 q 885 307 857 238 q 913 458 913 376 q 885 610 913 540 q 807 730 857 679 q 689 809 757 781 q 540 838 621 838 q 392 809 460 838 q 274 730 324 781 q 196 610 224 679 q 168 458 168 540 q 196 307 168 376 q 274 187 224 238 q 392 108 324 136 q 540 79 460 79 z "},"◌":{"ha":986,"x_min":69,"x_max":925,"o":"m 671 26 q 633 42 649 26 q 617 81 617 58 q 633 119 617 104 q 671 135 649 135 q 710 119 694 135 q 725 81 725 104 q 710 42 725 58 q 671 26 694 26 m 808 147 q 770 163 786 147 q 754 201 754 179 q 770 240 754 225 q 808 256 786 256 q 847 240 832 256 q 863 201 863 225 q 847 163 863 179 q 808 147 832 147 m 871 322 q 833 338 849 322 q 817 376 817 354 q 833 415 817 400 q 871 431 849 431 q 910 415 894 431 q 925 376 925 400 q 910 338 925 354 q 871 322 894 322 m 849 500 q 810 516 826 500 q 794 554 794 532 q 810 593 794 578 q 849 608 826 608 q 888 593 872 608 q 903 554 903 578 q 888 516 903 532 q 849 500 872 500 m 746 650 q 708 666 724 650 q 692 704 692 682 q 708 743 692 728 q 746 758 724 758 q 785 743 769 758 q 800 704 800 728 q 785 666 800 682 q 746 650 769 650 m 588 729 q 549 745 565 729 q 533 783 533 761 q 549 822 533 807 q 588 838 565 838 q 626 822 611 838 q 642 783 642 807 q 626 745 642 761 q 588 729 611 729 m 407 729 q 369 745 385 729 q 353 783 353 761 q 369 822 353 807 q 407 838 385 838 q 446 822 431 838 q 461 783 461 807 q 446 745 461 761 q 407 729 431 729 m 249 650 q 210 666 226 650 q 194 704 194 682 q 210 743 194 728 q 249 758 226 758 q 288 743 272 758 q 303 704 303 728 q 288 666 303 682 q 249 650 272 650 m 146 500 q 108 516 124 500 q 92 554 92 532 q 108 593 92 578 q 146 608 124 608 q 185 593 169 608 q 200 554 200 578 q 185 516 200 532 q 146 500 169 500 m 124 322 q 85 338 101 322 q 69 376 69 354 q 85 415 69 400 q 124 431 101 431 q 163 415 147 431 q 178 376 178 400 q 163 338 178 354 q 124 322 147 322 m 186 147 q 148 163 164 147 q 132 201 132 179 q 148 240 132 225 q 186 256 164 256 q 225 240 210 256 q 240 201 240 225 q 225 163 240 179 q 186 147 210 147 m 324 26 q 285 42 301 26 q 269 81 269 58 q 285 119 269 104 q 324 135 301 135 q 363 119 347 135 q 378 81 378 104 q 363 42 378 58 q 324 26 347 26 m 497 -14 q 459 2 475 -14 q 443 40 443 18 q 459 79 443 64 q 497 94 475 94 q 536 79 521 94 q 551 40 551 64 q 536 2 551 18 q 497 -14 521 -14 z "},"◊":{"ha":794,"x_min":64,"x_max":731,"o":"m 457 917 l 731 458 l 617 458 l 356 917 l 457 917 m 178 458 l 439 0 l 338 0 l 64 458 l 178 458 m 731 458 l 457 0 l 356 0 l 617 458 l 731 458 m 439 917 l 178 458 l 64 458 l 338 917 l 439 917 z "},"@":{"ha":1285,"x_min":92,"x_max":1203,"o":"m 653 -267 q 358 -195 485 -267 q 162 6 232 -124 q 92 310 92 136 q 135 557 92 446 q 258 748 179 668 q 444 872 338 828 q 676 915 551 915 q 902 872 804 915 q 1067 755 1000 829 q 1168 584 1133 681 q 1203 381 1203 488 q 1181 219 1203 292 q 1121 96 1158 147 q 1035 17 1083 44 q 933 -10 986 -10 q 828 31 863 -10 q 799 131 793 71 q 710 37 768 72 q 586 1 653 1 q 463 37 517 1 q 380 134 410 72 q 350 275 350 196 q 373 419 350 353 q 437 538 396 486 q 534 617 478 589 q 657 646 590 646 q 792 601 738 646 q 860 479 846 556 l 896 633 l 985 633 l 882 179 q 877 153 879 165 q 875 129 875 140 q 897 74 875 88 q 944 61 918 61 q 1035 99 993 61 q 1103 208 1076 136 q 1129 381 1129 279 q 1099 561 1129 478 q 1009 707 1068 644 q 867 805 950 769 q 681 840 785 840 q 478 803 571 840 q 318 697 386 767 q 213 530 250 628 q 175 310 175 432 q 238 41 175 154 q 408 -133 300 -72 q 653 -193 517 -193 q 832 -163 763 -193 q 946 -96 901 -133 l 990 -157 q 857 -234 935 -201 q 653 -267 779 -267 m 614 78 q 721 117 674 78 q 797 224 768 157 q 825 375 825 292 q 804 478 825 436 q 747 544 783 521 q 663 567 711 567 q 549 528 599 567 q 469 425 499 490 q 440 276 440 360 q 461 169 440 214 q 521 101 482 125 q 614 78 560 78 z "},"&":{"ha":832,"x_min":67,"x_max":838,"o":"m 346 -14 q 197 17 260 -14 q 100 103 133 49 q 67 228 67 157 q 88 340 67 289 q 160 436 110 392 q 294 518 210 481 l 344 544 q 433 601 397 574 q 486 660 468 628 q 504 738 504 693 q 474 817 504 789 q 392 844 443 844 q 302 810 332 844 q 272 729 272 776 q 279 678 272 703 q 308 617 286 653 q 375 521 331 581 q 494 363 419 461 q 621 203 571 264 q 706 113 671 143 q 772 72 742 82 q 838 61 801 61 l 814 -14 q 741 -3 775 -14 q 666 40 707 8 q 569 137 625 72 q 429 307 513 201 q 307 465 356 401 q 231 573 258 528 q 191 654 203 618 q 179 728 179 690 q 203 825 179 779 q 275 901 226 871 q 397 931 324 931 q 498 908 454 931 q 566 845 542 886 q 590 747 590 804 q 573 652 590 696 q 512 567 556 608 q 388 481 468 525 l 346 464 q 237 397 278 429 q 178 326 196 364 q 161 238 161 289 q 188 147 161 185 q 258 88 214 108 q 356 68 301 68 q 483 97 431 68 q 579 178 536 125 l 594 193 q 650 327 631 253 q 664 493 669 401 l 749 485 q 729 307 751 396 q 656 149 707 218 l 636 122 q 515 23 586 60 q 346 -14 443 -14 z "},"¶":{"ha":888,"x_min":56,"x_max":764,"o":"m 403 -139 l 403 276 q 221 317 299 276 q 99 429 143 357 q 56 596 56 501 q 102 765 56 693 q 232 877 149 838 q 428 917 315 917 l 764 917 l 764 -139 l 675 -139 l 675 833 l 494 833 l 494 -139 l 403 -139 m 403 360 l 403 833 q 266 804 322 833 q 180 722 210 775 q 150 596 150 668 q 180 470 150 524 q 266 388 210 417 q 403 360 322 360 z "},"§":{"ha":769,"x_min":46,"x_max":728,"o":"m 531 192 l 472 231 q 560 248 524 233 q 615 290 596 263 q 635 354 635 317 q 606 433 635 403 q 500 478 578 464 l 319 513 q 173 583 218 532 q 128 711 128 635 q 161 824 128 775 q 256 902 194 874 q 399 931 317 931 q 557 897 488 931 q 668 796 626 863 l 593 736 q 510 819 558 794 q 396 844 461 844 q 266 809 313 844 q 219 718 219 774 q 246 640 219 668 q 340 600 272 613 l 515 568 q 642 527 596 554 q 708 463 688 500 q 728 376 728 425 q 680 254 728 308 q 531 192 632 200 m 371 -153 q 190 -113 260 -153 q 85 -14 119 -74 l 160 50 q 239 -37 186 -4 q 375 -69 292 -69 q 509 -33 461 -69 q 557 65 557 4 q 533 131 557 103 q 453 169 508 158 l 250 213 q 138 251 183 226 q 69 316 93 276 q 46 410 46 356 q 67 490 46 454 q 128 551 89 526 q 219 581 168 575 l 261 549 q 197 522 225 539 q 153 482 168 506 q 138 426 138 458 q 169 349 138 383 q 279 299 200 314 l 471 261 q 571 224 532 250 q 628 159 610 197 q 647 74 647 121 q 614 -42 647 10 q 519 -123 581 -93 q 371 -153 457 -153 z "},"©":{"ha":1133,"x_min":93,"x_max":1040,"o":"m 567 -14 q 319 49 425 -14 q 153 218 213 111 q 93 458 93 325 q 153 699 93 593 q 319 868 213 806 q 567 931 425 931 q 815 868 708 931 q 981 699 921 806 q 1040 458 1040 593 q 981 218 1040 325 q 815 49 921 111 q 567 -14 708 -14 m 567 68 q 767 120 681 68 q 901 260 853 172 q 950 458 950 349 q 901 656 950 568 q 767 797 853 744 q 567 849 681 849 q 366 797 453 849 q 231 656 279 744 q 182 458 182 568 q 231 260 182 349 q 366 120 279 172 q 567 68 453 68 m 576 199 q 396 267 463 199 q 329 456 329 336 q 396 644 329 575 q 576 713 463 713 q 708 677 656 713 q 788 579 761 642 l 714 543 q 663 615 697 592 q 575 638 628 638 q 457 590 500 638 q 414 456 414 542 q 457 322 414 371 q 575 274 500 274 q 669 299 631 274 q 724 374 707 325 l 793 346 q 713 238 768 278 q 576 199 658 199 z "},"®":{"ha":1133,"x_min":93,"x_max":1040,"o":"m 567 -14 q 319 49 425 -14 q 153 218 213 111 q 93 458 93 325 q 153 699 93 593 q 319 868 213 806 q 567 931 425 931 q 815 869 708 931 q 981 700 921 807 q 1040 458 1040 593 q 981 218 1040 325 q 815 49 921 111 q 567 -14 708 -14 m 686 199 l 544 411 l 614 440 l 781 199 l 686 199 m 567 68 q 767 120 681 68 q 901 260 853 172 q 950 458 950 349 q 901 656 950 568 q 767 797 853 744 q 567 849 681 849 q 366 797 453 849 q 231 656 279 744 q 182 458 182 568 q 231 260 182 349 q 366 120 279 172 q 567 68 453 68 m 382 199 l 382 713 l 579 713 q 718 669 665 713 q 771 551 771 626 q 718 433 771 476 q 579 390 665 390 l 465 390 l 465 199 l 382 199 m 465 456 l 578 456 q 658 480 631 456 q 686 551 686 504 q 658 624 686 600 q 578 649 631 649 l 465 649 l 465 456 z "},"™":{"ha":1106,"x_min":63,"x_max":992,"o":"m 290 917 l 290 458 l 204 458 l 204 917 l 290 917 m 429 917 l 429 849 l 63 849 l 63 917 l 429 917 m 992 917 l 992 458 l 907 458 l 907 697 l 915 808 l 914 808 l 901 772 l 785 458 l 722 458 l 604 772 l 592 808 l 590 808 l 599 697 l 599 458 l 514 458 l 514 917 l 622 917 l 724 646 l 751 565 l 754 565 l 782 646 l 885 917 l 992 917 z "},"°":{"ha":624,"x_min":82,"x_max":542,"o":"m 311 483 q 193 512 244 483 q 112 591 142 540 q 82 707 82 642 q 112 823 82 772 q 193 902 142 874 q 311 931 244 931 q 431 902 379 931 q 512 823 482 874 q 542 707 542 772 q 512 591 542 642 q 431 512 482 540 q 311 483 379 483 m 311 564 q 414 604 374 564 q 454 707 454 644 q 414 808 454 768 q 311 849 374 849 q 210 808 250 849 q 169 707 169 768 q 210 604 169 644 q 311 564 250 564 z "},"′":{"ha":325,"x_min":72,"x_max":240,"o":"m 240 957 l 153 629 l 72 629 l 128 957 l 240 957 z "},"″":{"ha":550,"x_min":72,"x_max":465,"o":"m 465 957 l 378 629 l 297 629 l 353 957 l 465 957 m 240 957 l 153 629 l 72 629 l 128 957 l 240 957 z "},"|":{"ha":325,"x_min":119,"x_max":206,"o":"m 206 1014 l 206 -233 l 119 -233 l 119 1014 l 206 1014 z "},"¦":{"ha":325,"x_min":119,"x_max":206,"o":"m 206 1014 l 206 510 l 119 510 l 119 1014 l 206 1014 m 206 271 l 206 -233 l 119 -233 l 119 271 l 206 271 z "},"†":{"ha":713,"x_min":56,"x_max":656,"o":"m 407 917 l 407 -139 l 307 -139 l 307 917 l 407 917 m 656 625 l 656 539 l 56 539 l 56 625 l 656 625 z "},"‡":{"ha":713,"x_min":56,"x_max":656,"o":"m 407 917 l 407 -139 l 307 -139 l 307 917 l 407 917 m 656 625 l 656 539 l 56 539 l 56 625 l 656 625 m 656 239 l 656 153 l 56 153 l 56 239 l 656 239 z "},"̈":{"ha":0,"x_min":-207,"x_max":207,"o":"m -135 957 q -81 937 -101 957 q -61 885 -61 917 q -81 831 -61 851 q -135 811 -101 811 q -187 831 -167 811 q -207 885 -207 851 q -187 937 -207 917 q -135 957 -167 957 m 133 957 q 187 937 167 957 q 207 885 207 917 q 187 831 207 851 q 133 811 167 811 q 81 831 101 811 q 61 885 61 851 q 81 937 61 917 q 133 957 101 957 z "},"̇":{"ha":0,"x_min":-76,"x_max":76,"o":"m 0 982 q 56 961 35 982 q 76 906 76 940 q 56 849 76 871 q 0 828 35 828 q -56 849 -35 828 q -76 906 -76 871 q -56 961 -76 940 q 0 982 -35 982 z "},"̀":{"ha":0,"x_min":-162,"x_max":53,"o":"m -54 1039 l 53 810 l -29 810 l -162 1039 l -54 1039 z "},"́":{"ha":0,"x_min":-61,"x_max":156,"o":"m 46 1039 l 156 1039 l 21 810 l -61 810 l 46 1039 z "},"̂":{"ha":0,"x_min":-214,"x_max":214,"o":"m 214 801 l 122 801 l 0 964 l -122 801 l -214 801 l -57 1029 l 57 1029 l 214 801 z "},"̆":{"ha":0,"x_min":-201,"x_max":201,"o":"m 201 1003 q 146 858 201 914 q 0 803 90 803 q -146 858 -90 803 q -201 1003 -201 914 l -119 1003 q -88 915 -118 951 q 0 878 -58 878 q 88 915 58 878 q 119 1003 118 951 l 201 1003 z "},"̊":{"ha":0,"x_min":-171,"x_max":163,"o":"m -4 1114 q 117 1070 71 1114 q 163 957 163 1026 q 117 842 163 886 q -4 799 71 799 q -124 842 -78 799 q -171 957 -171 886 q -124 1070 -171 1026 q -4 1114 -78 1114 m -4 1053 q -74 1026 -46 1053 q -101 957 -101 999 q -74 890 -101 917 q -4 863 -46 863 q 67 890 39 863 q 94 957 94 917 q 67 1026 94 999 q -4 1053 39 1053 z "},"̃":{"ha":0,"x_min":-249,"x_max":246,"o":"m 246 990 q 202 858 239 903 q 96 813 165 813 q 31 827 57 813 q -16 860 4 842 q -55 892 -36 878 q -97 907 -74 907 q -146 881 -129 907 q -169 811 -162 856 l -249 811 q -203 944 -240 899 q -96 989 -167 989 q -32 974 -58 989 q 15 942 -6 960 q 53 909 35 924 q 94 894 72 894 q 143 920 126 894 q 167 990 160 946 l 246 990 z "},"̄":{"ha":0,"x_min":-225,"x_max":225,"o":"m 225 914 l 225 829 l -225 829 l -225 914 l 225 914 z "},"̧":{"ha":0,"x_min":-162,"x_max":132,"o":"m -72 6 l -17 36 q 98 -35 64 10 q 132 -140 132 -81 q 86 -251 132 -206 q -31 -296 40 -296 q -106 -284 -74 -296 q -162 -254 -139 -272 l -137 -182 q -96 -206 -118 -196 q -42 -217 -74 -217 q 24 -191 -1 -217 q 49 -118 49 -165 q 22 -53 49 -81 q -72 6 -4 -25 z "},"̸":{"ha":0,"x_min":81,"x_max":757,"o":"m 81 -42 l 672 736 l 757 736 l 165 -42 l 81 -42 z "},"¨":{"ha":703,"x_min":144,"x_max":558,"o":"m 217 957 q 270 937 250 957 q 290 885 290 917 q 270 831 290 851 q 217 811 250 811 q 165 831 185 811 q 144 885 144 851 q 165 937 144 917 q 217 957 185 957 m 485 957 q 538 937 518 957 q 558 885 558 917 q 538 831 558 851 q 485 811 518 811 q 433 831 453 811 q 413 885 413 851 q 433 937 413 917 q 485 957 453 957 z "},"`":{"ha":703,"x_min":244,"x_max":460,"o":"m 353 1039 l 460 810 l 378 810 l 244 1039 l 353 1039 z "},"´":{"ha":833,"x_min":310,"x_max":526,"o":"m 417 1039 l 526 1039 l 392 810 l 310 810 l 417 1039 z "},"ˆ":{"ha":703,"x_min":138,"x_max":565,"o":"m 565 801 l 474 801 l 351 964 l 229 801 l 138 801 l 294 1029 l 408 1029 l 565 801 z "},"˚":{"ha":713,"x_min":190,"x_max":524,"o":"m 357 1114 q 478 1070 432 1114 q 524 957 524 1026 q 478 842 524 886 q 357 799 432 799 q 237 842 283 799 q 190 957 190 886 q 237 1070 190 1026 q 357 1114 283 1114 m 357 1053 q 288 1026 315 1053 q 260 957 260 999 q 288 890 260 917 q 357 863 315 863 q 428 890 400 863 q 456 957 456 917 q 428 1026 456 999 q 357 1053 400 1053 z "},"˜":{"ha":703,"x_min":104,"x_max":599,"o":"m 599 990 q 555 858 592 903 q 449 813 518 813 q 383 827 410 813 q 337 860 357 842 q 298 892 317 878 q 256 907 279 907 q 207 881 224 907 q 183 811 190 856 l 104 811 q 149 944 113 899 q 257 989 186 989 q 321 974 294 989 q 367 942 347 960 q 406 909 388 924 q 447 894 425 894 q 496 920 479 894 q 519 990 513 946 l 599 990 z "},"¯":{"ha":703,"x_min":126,"x_max":576,"o":"m 576 914 l 576 829 l 126 829 l 126 914 l 576 914 z "},"¸":{"ha":713,"x_min":208,"x_max":503,"o":"m 299 6 l 354 36 q 469 -35 435 10 q 503 -140 503 -81 q 457 -251 503 -206 q 340 -296 411 -296 q 265 -284 297 -296 q 208 -254 232 -272 l 233 -182 q 275 -206 253 -196 q 329 -217 297 -217 q 394 -191 369 -217 q 419 -118 419 -165 q 393 -53 419 -81 q 299 6 367 -25 z "},"ិ":{"ha":0,"x_min":-661,"x_max":-139,"o":"m -511 931 q -622 963 -583 931 q -661 1051 -661 994 q -613 1153 -661 1114 q -478 1192 -565 1192 q -358 1172 -414 1192 q -258 1122 -303 1153 q -183 1059 -214 1092 q -139 1000 -153 1026 l -139 931 l -511 931 m -508 1000 l -233 1000 q -294 1057 -254 1031 q -383 1100 -335 1083 q -479 1117 -432 1117 q -545 1099 -521 1117 q -569 1051 -569 1082 q -553 1015 -569 1029 q -508 1000 -537 1000 z "},"ី":{"ha":0,"x_min":-661,"x_max":-139,"o":"m -511 931 q -622 963 -583 931 q -661 1050 -661 994 q -612 1153 -661 1114 q -469 1192 -562 1192 q -355 1173 -403 1192 q -276 1127 -307 1154 q -228 1075 -244 1100 l -222 1075 l -222 1219 l -139 1219 l -139 931 l -511 931 m -508 1000 l -244 1000 q -300 1063 -264 1038 q -381 1103 -336 1089 q -468 1117 -425 1117 q -543 1099 -517 1117 q -569 1051 -569 1082 q -553 1015 -569 1029 q -508 1000 -537 1000 z "},"ឹ":{"ha":0,"x_min":-661,"x_max":-103,"o":"m -511 931 q -622 963 -583 931 q -661 1051 -661 994 q -614 1153 -661 1114 q -483 1192 -567 1192 q -386 1174 -433 1192 q -300 1129 -339 1157 l -286 1099 q -310 1105 -296 1099 q -324 1124 -324 1111 q -292 1195 -324 1168 q -217 1222 -261 1222 q -135 1190 -168 1222 q -103 1110 -103 1158 q -136 1034 -103 1063 q -203 1006 -169 1006 q -214 1016 -211 1006 q -217 1032 -217 1026 l -192 1032 q -162 1009 -175 1021 q -139 983 -149 997 l -139 931 l -511 931 m -508 1000 l -244 1000 q -266 1022 -254 1010 q -301 1050 -278 1033 q -385 1097 -340 1078 q -479 1117 -431 1117 q -545 1099 -521 1117 q -569 1051 -569 1082 q -553 1015 -569 1029 q -508 1000 -537 1000 m -217 1064 q -185 1077 -197 1064 q -172 1110 -172 1090 q -185 1142 -172 1129 q -217 1156 -197 1156 q -248 1142 -235 1156 q -261 1110 -261 1129 q -248 1077 -261 1090 q -217 1064 -235 1064 z "},"ឺ":{"ha":0,"x_min":-661,"x_max":-139,"o":"m -511 931 q -622 963 -583 931 q -661 1050 -661 994 q -615 1153 -661 1114 q -492 1192 -569 1192 q -373 1167 -426 1192 q -281 1108 -319 1143 q -222 1040 -242 1072 l -219 1040 l -219 1219 l -139 1219 l -139 931 l -511 931 m -508 1000 l -275 1000 q -314 1047 -292 1025 q -362 1083 -336 1068 q -417 1108 -387 1099 q -478 1117 -446 1117 q -545 1099 -521 1117 q -569 1051 -569 1082 q -553 1015 -569 1029 q -508 1000 -537 1000 m -303 1106 l -383 1133 l -383 1250 l -303 1250 l -303 1106 z "},"ុ":{"ha":0,"x_min":-233,"x_max":-139,"o":"m -233 -358 l -233 -83 l -139 -83 l -139 -358 l -233 -358 z "},"ូ":{"ha":0,"x_min":-467,"x_max":-139,"o":"m -303 -372 q -424 -332 -381 -372 q -467 -226 -467 -292 l -467 -83 l -375 -83 l -375 -222 q -355 -277 -375 -257 q -303 -297 -335 -297 q -251 -277 -271 -297 q -231 -222 -231 -257 l -231 -83 l -139 -83 l -139 -226 q -182 -332 -139 -292 q -303 -372 -225 -372 z "},"ួ":{"ha":0,"x_min":-494,"x_max":-139,"o":"m -494 -358 l -494 -83 l -403 -83 l -403 -264 l -317 -186 l -231 -264 l -231 -83 l -139 -83 l -139 -358 l -231 -358 l -317 -276 l -403 -358 l -494 -358 z "},"ើ":{"ha":0,"x_min":-647,"x_max":-125,"o":"m -497 931 q -608 963 -569 931 q -647 1050 -647 994 q -598 1153 -647 1114 q -456 1192 -549 1192 q -341 1173 -389 1192 q -262 1127 -293 1154 q -214 1075 -231 1100 l -208 1075 l -208 1219 l -125 1219 l -125 931 l -497 931 m -494 1000 l -231 1000 q -286 1063 -250 1038 q -367 1103 -322 1089 q -454 1117 -411 1117 q -529 1099 -503 1117 q -556 1051 -556 1082 q -540 1015 -556 1029 q -494 1000 -524 1000 z "},"ំ":{"ha":0,"x_min":-556,"x_max":-286,"o":"m -421 917 q -517 953 -479 917 q -556 1050 -556 990 q -517 1147 -556 1111 q -421 1183 -479 1183 q -324 1147 -362 1183 q -286 1050 -286 1111 q -324 953 -286 990 q -421 917 -362 917 m -421 986 q -379 1003 -394 986 q -364 1050 -364 1021 q -379 1097 -364 1079 q -421 1114 -394 1114 q -462 1097 -447 1114 q -478 1050 -478 1079 q -462 1003 -478 1021 q -421 986 -447 986 z "},"៉":{"ha":0,"x_min":-417,"x_max":-139,"o":"m -417 931 l -417 1192 l -331 1192 l -331 931 l -417 931 m -225 931 l -225 1192 l -139 1192 l -139 931 l -225 931 z "},"៊":{"ha":0,"x_min":-717,"x_max":-139,"o":"m -664 917 l -717 972 l -561 1072 l -554 1072 l -428 997 l -301 1072 l -294 1072 l -139 972 l -192 917 l -301 986 l -424 917 l -432 917 l -554 986 l -664 917 z "},"់":{"ha":0,"x_min":-225,"x_max":-139,"o":"m -225 931 l -225 1192 l -139 1192 l -139 931 l -225 931 z "},"៌":{"ha":0,"x_min":-624,"x_max":-139,"o":"m -532 921 l -599 921 q -618 976 -612 949 q -624 1028 -624 1004 q -572 1151 -624 1106 q -436 1197 -519 1197 l -418 1197 l -289 1163 l -279 1163 q -244 1174 -254 1163 q -231 1206 -235 1186 l -139 1206 q -179 1119 -146 1150 q -278 1089 -212 1089 l -294 1089 l -424 1124 l -436 1124 q -508 1098 -479 1124 q -536 1029 -536 1072 q -534 1006 -536 1019 q -529 979 -532 993 q -479 1003 -512 994 q -401 1011 -446 1011 q -343 1007 -375 1011 q -286 989 -311 1003 l -303 921 q -356 940 -329 935 q -412 944 -383 944 q -477 938 -446 944 q -532 921 -508 931 z "},"៍":{"ha":0,"x_min":-525,"x_max":-139,"o":"m -389 925 q -488 959 -451 925 q -525 1050 -525 993 q -486 1147 -525 1110 q -387 1183 -447 1183 l -357 1183 l -272 1126 l -269 1126 q -244 1146 -254 1126 q -231 1206 -235 1165 l -139 1206 q -179 1097 -149 1133 q -261 1061 -210 1061 l -286 1061 l -371 1113 l -374 1113 q -417 1097 -401 1113 q -433 1053 -433 1081 q -419 1013 -433 1028 q -382 997 -404 997 q -335 1007 -354 997 l -335 933 q -358 927 -343 929 q -389 925 -374 925 z "},"៎":{"ha":0,"x_min":-558,"x_max":-281,"o":"m -461 931 l -461 1021 l -558 1021 l -558 1101 l -461 1101 l -461 1192 l -378 1192 l -378 1101 l -281 1101 l -281 1021 l -378 1021 l -378 931 l -461 931 z "},"៏":{"ha":0,"x_min":-553,"x_max":-139,"o":"m -422 925 q -517 960 -482 925 q -553 1054 -553 994 q -515 1150 -553 1114 q -417 1186 -478 1186 l -389 1186 l -272 1169 q -240 1178 -249 1169 q -231 1206 -232 1188 l -139 1206 q -172 1128 -144 1154 q -261 1101 -200 1101 l -282 1101 l -392 1118 l -410 1118 q -447 1102 -433 1118 q -461 1058 -461 1086 q -449 1015 -461 1032 q -415 997 -436 997 l -410 997 l -340 1042 l -271 997 l -264 997 q -240 1006 -247 997 q -232 1039 -232 1015 l -143 1039 q -172 952 -143 979 q -262 925 -201 925 l -276 925 l -340 971 l -404 925 l -422 925 z "},"័":{"ha":0,"x_min":-606,"x_max":-139,"o":"m -422 922 q -558 958 -511 922 q -606 1058 -606 994 q -565 1155 -606 1121 q -464 1189 -525 1189 q -423 1185 -440 1189 q -397 1178 -406 1181 l -397 1110 q -422 1118 -407 1114 q -451 1122 -436 1122 q -497 1106 -481 1122 q -514 1064 -514 1090 q -489 1013 -514 1031 q -417 994 -464 994 q -293 1049 -337 994 q -233 1206 -249 1104 l -139 1206 q -230 994 -162 1065 q -422 922 -297 922 z "},"៑":{"ha":0,"x_min":-681,"x_max":-142,"o":"m -681 931 l -681 1014 l -142 1014 l -142 931 l -681 931 z "},"្":{"ha":0,"x_min":-561,"x_max":-261,"o":"m -453 -358 l -453 -261 l -561 -261 l -561 -181 l -453 -181 l -453 -83 l -369 -83 l -369 -181 l -261 -181 l -261 -261 l -369 -261 l -369 -358 l -453 -358 z "},"៓":{"ha":0,"x_min":-403,"x_max":-144,"o":"m -274 922 q -368 963 -333 922 q -403 1083 -403 1003 q -368 1205 -403 1165 q -274 1244 -333 1244 q -178 1205 -212 1244 q -144 1083 -144 1165 q -178 963 -144 1003 q -274 922 -212 922 m -274 989 q -234 1013 -249 989 q -219 1083 -219 1036 q -234 1154 -219 1131 q -274 1178 -249 1178 q -313 1154 -299 1178 q -328 1083 -328 1131 q -313 1013 -328 1036 q -274 989 -299 989 z "},"៝":{"ha":0,"x_min":-683,"x_max":-139,"o":"m -683 931 q -592 1076 -664 1025 q -411 1128 -521 1128 q -229 1076 -300 1128 q -139 931 -158 1025 l -228 931 q -293 1017 -244 988 q -411 1047 -342 1047 q -528 1017 -479 1047 q -594 931 -578 988 l -683 931 z "}}}
